<?xml version="1.0" encoding="UTF-8" standalone="no"?>
<!-- Created with Inkscape (http://www.inkscape.org/) -->

<svg
   xmlns:dc="http://purl.org/dc/elements/1.1/"
   xmlns:cc="http://creativecommons.org/ns#"
   xmlns:rdf="http://www.w3.org/1999/02/22-rdf-syntax-ns#"
   xmlns:svg="http://www.w3.org/2000/svg"
   xmlns="http://www.w3.org/2000/svg"
   xmlns:sodipodi="http://sodipodi.sourceforge.net/DTD/sodipodi-0.dtd"
   xmlns:inkscape="http://www.inkscape.org/namespaces/inkscape"
   width="68.190048mm"
   height="62.70203mm"
   viewBox="0 0 68.190048 62.70203"
   version="1.1"
   id="svg3873"
   inkscape:version="0.92.2 5c3e80d, 2017-08-06"
   sodipodi:docname="logo-outline.svg">
  <defs
     id="defs3867" />
  <sodipodi:namedview
     id="base"
     pagecolor="#ffffff"
     bordercolor="#666666"
     borderopacity="1.0"
     inkscape:pageopacity="0.0"
     inkscape:pageshadow="2"
     inkscape:zoom="0.35"
     inkscape:cx="203.1488"
     inkscape:cy="118.49203"
     inkscape:document-units="mm"
     inkscape:current-layer="layer1"
     showgrid="false"
     fit-margin-top="0"
     fit-margin-left="0"
     fit-margin-right="0"
     fit-margin-bottom="0"
     inkscape:window-width="3838"
     inkscape:window-height="2158"
     inkscape:window-x="0"
     inkscape:window-y="0"
     inkscape:window-maximized="0" />
  <metadata
     id="metadata3870">
    <rdf:RDF>
      <cc:Work
         rdf:about="">
        <dc:format>image/svg+xml</dc:format>
        <dc:type
           rdf:resource="http://purl.org/dc/dcmitype/StillImage" />
        <dc:title></dc:title>
      </cc:Work>
    </rdf:RDF>
  </metadata>
  <g
     inkscape:label="Layer 1"
     inkscape:groupmode="layer"
     id="layer1"
     transform="translate(-52.083546,-117.48232)">
    <path
       style="fill:#000000;stroke-width:0.26458332"
       d="m 80.754614,179.79121 c -7.900645,-1.21981 -14.616746,-4.5777 -19.942898,-9.97098 -2.677158,-2.71089 -4.074618,-4.66184 -5.729423,-7.99866 -2.289794,-4.61724 -2.821966,-6.80048 -2.969199,-12.18122 -0.137951,-5.04143 0.179472,-7.31901 1.541664,-11.06177 3.72487,-10.23449 13.397674,-18.33104 24.685156,-20.66253 2.799753,-0.57831 12.877563,-0.57831 15.677315,0 11.287481,2.33149 20.960291,10.42804 24.685161,20.66253 1.36219,3.74276 1.67961,6.02034 1.54166,11.06177 -0.14724,5.38074 -0.67941,7.56398 -2.9692,12.18122 -2.77608,5.59781 -6.82534,9.90554 -12.53933,13.33975 -6.860103,4.12304 -15.926455,5.87344 -23.980906,4.62989 z m 11.1125,-0.76716 c 8.203016,-1.34413 15.280956,-5.19713 20.551666,-11.18767 3.0064,-3.41699 5.30553,-7.72174 6.4941,-12.15914 0.60908,-2.27397 0.69521,-3.11505 0.71193,-6.95255 0.0165,-3.78003 -0.0648,-4.68503 -0.60614,-6.74687 -1.84599,-7.03142 -6.21803,-13.36512 -12.14156,-17.58925 -19.559023,-13.94773 -47.685012,-4.70739 -53.538633,17.58925 -0.541303,2.06184 -0.622607,2.96684 -0.606142,6.74687 0.01672,3.8375 0.102844,4.67858 0.711931,6.95255 3.225908,12.04364 13.682662,21.11579 26.913473,23.34981 2.768867,0.46752 8.647194,0.46599 11.509375,-0.003 z m -9.260417,-0.0385 c -7.630534,-0.8294 -14.903469,-4.09534 -20.436611,-9.17714 -3.353908,-3.08033 -7.117524,-9.35525 -8.249375,-13.75382 -2.55456,-9.92751 0.06447,-19.89755 7.184536,-27.34989 4.94012,-5.17066 10.86063,-8.38346 18.208189,-9.8808 3.614642,-0.73662 10.115629,-0.73662 13.730272,0 7.347552,1.49734 13.268072,4.71014 18.208192,9.8808 7.12433,7.4568 9.73913,17.42078 7.18092,27.36365 -1.12821,4.38497 -4.89631,10.66382 -8.24577,13.74006 -4.73696,4.35058 -10.932309,7.46982 -17.274232,8.69725 -2.105215,0.40745 -8.313121,0.69651 -10.306121,0.47989 z m 9.291905,-1.03106 C 97.493976,176.99362 102.59605,174.79577 107,171.4492 c 12.44459,-9.45669 15.34436,-25.73122 6.84853,-38.43638 -1.657,-2.47797 -5.02017,-5.91473 -7.69392,-7.86228 -3.82495,-2.78608 -10.669804,-5.52826 -14.684371,-5.88283 -1.491062,-0.13169 -1.561442,-0.11982 -0.529167,0.0893 1.510406,0.30595 3.226379,0.82829 3.581088,1.09008 0.240972,0.17785 4.116183,1.58142 5.54704,2.0091 0.29104,0.087 1.0081,0.48368 1.59346,0.88152 0.58536,0.39784 1.50087,0.90576 2.03446,1.12871 1.16955,0.48867 3.9127,2.47652 3.9127,2.83538 0,0.14093 0.14883,0.26132 0.33073,0.26752 0.49138,0.0168 2.36766,1.81547 3.20892,3.07624 0.42257,0.63329 0.69888,1.36578 0.64874,1.71979 l -0.0873,0.61665 -2.38125,0.0818 c -2.50306,0.086 -4.03382,-0.23017 -5.12891,-1.05928 -0.34705,-0.26275 -0.82785,-0.47773 -1.06845,-0.47773 -0.2406,0 -0.88532,-0.53578 -1.4327,-1.19063 -0.54738,-0.65484 -1.16791,-1.19062 -1.37894,-1.19062 -0.21104,0 -0.383711,-0.11917 -0.383711,-0.26483 0,-0.47185 -3.279722,-3.47956 -4.233333,-3.88223 -1.955508,-0.82573 -3.325301,-1.53369 -3.777183,-1.95219 -0.258437,-0.23934 -0.960702,-0.59715 -1.560583,-0.79513 -0.599885,-0.19798 -1.143585,-0.5622 -1.208223,-0.80937 -0.06464,-0.24718 -0.353401,-0.5111 -0.641699,-0.58649 -0.395521,-0.10343 -0.503164,-0.32018 -0.43856,-0.8831 0.06727,-0.58614 0.255738,-0.78212 0.879369,-0.91441 0.436562,-0.0926 -0.813594,-0.16839 -2.778125,-0.16839 -1.964531,0 -3.214688,0.0758 -2.778125,0.16839 0.623631,0.13229 0.812099,0.32827 0.879369,0.91441 0.0646,0.56292 -0.04304,0.77967 -0.43856,0.8831 -0.288298,0.0754 -0.577062,0.33931 -0.641699,0.58649 -0.06464,0.24717 -0.608338,0.61139 -1.208223,0.80937 -0.599882,0.19798 -1.302147,0.55579 -1.560584,0.79513 -0.451882,0.4185 -1.821674,1.12646 -3.777179,1.95219 -0.953611,0.40267 -4.233333,3.41038 -4.233333,3.88223 0,0.14566 -0.17267,0.26483 -0.383707,0.26483 -0.21104,0 -0.831564,0.53578 -1.378945,1.19062 -0.547383,0.65485 -1.192096,1.19063 -1.432697,1.19063 -0.240599,0 -0.721403,0.21498 -1.068449,0.47773 -1.095097,0.82911 -2.625852,1.14526 -5.128911,1.05928 l -2.38125,-0.0818 -0.08734,-0.61665 c -0.05014,-0.35401 0.226166,-1.0865 0.648737,-1.71979 0.841259,-1.26077 2.717546,-3.05948 3.20892,-3.07624 0.181901,-0.006 0.330729,-0.12659 0.330729,-0.26752 0,-0.35886 2.743152,-2.34671 3.912706,-2.83538 0.533591,-0.22295 1.449097,-0.73087 2.034458,-1.12871 0.585362,-0.39784 1.302419,-0.79453 1.593461,-0.88152 1.430851,-0.42768 5.306063,-1.83125 5.547037,-2.0091 0.354709,-0.26179 2.070683,-0.78413 3.581089,-1.09008 1.032274,-0.20911 0.961895,-0.22098 -0.529167,-0.0893 -4.014568,0.35457 -10.859419,3.09675 -14.684376,5.88283 -2.673749,1.94755 -6.036913,5.38431 -7.693911,7.86228 -8.495832,12.70516 -5.596062,28.97969 6.848528,38.43638 4.316669,3.28025 9.442672,5.51556 14.868301,6.48366 2.87283,0.51261 8.750773,0.5235 11.673155,0.0216 z m -7.572113,-0.66887 c -3.613836,-0.50491 -8.703081,-2.35707 -8.721837,-3.17417 -0.01537,-0.66986 0.562361,-1.04511 1.609066,-1.04511 0.540914,0 1.539005,-0.23812 2.217979,-0.52917 0.678974,-0.29104 1.476303,-0.52916 1.771848,-0.52916 0.848741,0 2.500241,-1.05215 3.390641,-2.16013 1.116409,-1.38922 2.052362,-1.38922 3.168772,0 0.890399,1.10798 2.541899,2.16013 3.39064,2.16013 0.295545,0 1.092875,0.23812 1.771849,0.52916 0.678974,0.29105 1.677061,0.52917 2.217978,0.52917 1.046705,0 1.624444,0.37525 1.609066,1.04511 -0.01302,0.56668 -2.515645,1.68167 -5.546836,2.47126 -3.001378,0.78182 -4.914955,0.97735 -6.879166,0.70291 z m 5.755875,-1.19038 c 1.418175,-0.3714 3.185679,-0.96672 3.927787,-1.32292 0.742109,-0.35621 1.516015,-0.65601 1.719792,-0.66624 0.753562,-0.0378 -0.716206,-0.47392 -1.65808,-0.49197 -0.533641,-0.0102 -1.525776,-0.25673 -2.204749,-0.54777 -0.678974,-0.29104 -1.530046,-0.52917 -1.891274,-0.52917 -0.443317,0 -1.129739,-0.47296 -2.111986,-1.4552 -0.800365,-0.80037 -1.558742,-1.45521 -1.685282,-1.45521 -0.12654,0 -0.884918,0.65484 -1.685282,1.45521 -0.982247,0.98224 -1.668669,1.4552 -2.111986,1.4552 -0.361228,0 -1.2123,0.23813 -1.891274,0.52917 -0.678974,0.29104 -1.671108,0.53754 -2.20475,0.54777 -0.941874,0.0181 -2.411642,0.45415 -1.658083,0.49197 0.20378,0.0102 0.977686,0.31081 1.719795,0.66795 1.916417,0.9223 5.844477,1.935 7.63433,1.96822 0.87189,0.0162 2.62445,-0.26032 4.101042,-0.64701 z m -17.662126,-4.5892 c -1.657451,-0.60032 -1.852084,-0.76003 -1.852084,-1.51973 v -0.66756 l 1.785938,0.13817 c 0.982266,0.076 2.275295,0.21575 2.873401,0.31056 0.829075,0.13142 1.345221,0.0409 2.172272,-0.38105 0.596643,-0.30438 1.305333,-0.55342 1.574862,-0.55342 0.740716,0 3.329728,-2.09253 4.262442,-3.44505 0.650272,-0.94295 0.825693,-1.47491 0.828887,-2.51354 0.0021,-0.7246 0.108204,-1.4819 0.2355,-1.68289 0.146884,-0.23191 0.03352,-0.84169 -0.310266,-1.66893 l -0.541711,-1.30351 -0.739174,1.27207 c -0.406545,0.69963 -0.876371,1.56971 -1.044056,1.93351 -1.888469,4.09711 -2.759681,5.29066 -4.484035,6.14307 -1.288002,0.63672 -1.761734,0.72009 -4.134353,0.72761 -1.750319,0.006 -2.99561,-0.12352 -3.59065,-0.37214 -0.891526,-0.3725 -4.445307,-3.87699 -4.445307,-4.38364 0,-0.14104 -0.60843,-1.55176 -1.352065,-3.13494 -1.146456,-2.44076 -1.489824,-2.94419 -2.257936,-3.31048 -1.737429,-0.82852 -3.624895,-0.26812 -3.004058,0.89192 0.145232,0.27137 0.264059,0.73935 0.264059,1.03996 0,0.70605 -1.060714,0.74567 -1.678783,0.0627 -0.535676,-0.59191 -0.615995,-3.33954 -0.107154,-3.66558 0.732377,-0.46926 2.244482,-0.8699 3.29738,-0.87366 0.92392,-0.003 1.353863,0.19103 2.513542,1.13616 1.593974,1.29907 2.366666,2.51135 3.111878,4.88222 0.648563,2.06338 0.901684,2.55237 2.067899,3.99488 1.29781,1.60528 2.293604,2.15141 3.924993,2.1526 2.949289,0.002 5.89357,-1.90535 7.133324,-4.62143 0.948314,-2.0776 1.141492,-3.031 0.788106,-3.88963 l -0.290912,-0.70684 -1.273641,0.61384 c -2.230213,1.07486 -5.309868,1.45305 -7.250076,0.89031 -1.380601,-0.40042 -3.500985,-2.3116 -3.952928,-3.56291 -0.965676,-2.67371 -1.086493,-4.66258 -0.399819,-6.58173 0.359328,-1.00427 0.620498,-1.34413 1.084281,-1.411 l 0.610941,-0.0881 -0.149053,1.27871 c -0.08198,0.70329 -0.224996,1.77729 -0.317815,2.38667 -0.127566,0.8375 -0.03955,1.35419 0.360585,2.11667 0.291139,0.55479 0.677354,1.40238 0.858255,1.88355 0.435287,1.15778 2.370585,2.16786 4.153601,2.16786 1.491642,0 4.881097,-1.488 5.339189,-2.34396 0.156499,-0.29241 0.291402,-1.81941 0.299789,-3.39333 0.0084,-1.57392 0.101034,-3.33791 0.205886,-3.92 l 0.190638,-1.05833 0.786302,0.0222 c 0.432466,0.0122 1.024427,0.11601 1.315468,0.23074 0.291042,0.11472 -0.125677,-0.1956 -0.926041,-0.68961 l -1.455209,-0.89819 0.06229,-0.92004 c 0.194011,-2.86556 1.17947,-9.31447 1.778048,-11.63567 0.09382,-0.3638 -0.15267,-0.0661 -0.547746,0.66146 -0.395076,0.7276 -0.806267,1.73963 -0.913757,2.24895 -0.10749,0.50933 -0.38553,1.61647 -0.617866,2.46031 -0.232336,0.84384 -0.424223,2.094 -0.426414,2.77812 -0.0041,1.2784 -0.490262,3.03457 -0.973984,3.51829 -0.15018,0.15018 -0.790532,0.23565 -1.423006,0.18994 l -1.149953,-0.0831 -0.223102,-1.05833 c -0.758566,-3.59841 0.93858,-8.80728 4.177047,-12.82016 1.494763,-1.85221 5.125434,-5.47586 6.204294,-6.19229 0.359799,-0.23894 0.529156,-0.43443 0.376343,-0.43443 -0.445799,0 -3.539657,1.3083 -4.301876,1.81913 -0.383572,0.25707 -1.947558,1.29073 -3.475528,2.29703 -1.527969,1.0063 -3.115175,2.18848 -3.527126,2.62706 -0.976183,1.03928 -3.087457,4.61854 -3.087457,5.23419 0,0.2635 -0.238125,0.94586 -0.529167,1.51634 -1.120349,2.19607 -0.427836,8.46667 0.93504,8.46667 0.28543,0 0.396957,0.1884 0.340133,0.57455 -0.08207,0.55774 1.051359,2.07128 1.551098,2.07128 0.127993,0 0.367538,-0.35718 0.532321,-0.79375 0.243522,-0.64516 0.452077,-0.79375 1.114099,-0.79375 0.527945,0 0.930754,-0.18616 1.144961,-0.52916 0.382259,-0.6121 1.458412,-0.69817 2.175274,-0.17399 l 0.485737,0.35517 -0.42488,2.4891 c -0.772363,4.5248 -0.794842,4.59796 -1.441201,4.69031 -0.325461,0.0465 -0.591749,-0.0289 -0.591749,-0.16758 0,-0.13867 -0.238125,-0.3144 -0.529166,-0.39051 -0.294151,-0.0769 -0.529167,-0.36089 -0.529167,-0.6394 0,-0.57996 -0.480459,-1.13602 -0.981572,-1.13602 -0.190611,0 -1.212083,-0.70172 -2.269935,-1.55938 -2.111129,-1.71161 -2.77881,-2.848 -3.358798,-5.71666 -0.367834,-1.81933 -0.367183,-2.89378 0.0021,-3.58392 0.141975,-0.26528 0.258138,-1.16632 0.258138,-2.0023 0,-2.17981 0.873381,-4.78109 2.229755,-6.64108 0.447124,-0.61314 1.161047,-1.59253 1.586494,-2.17641 1.124461,-1.54321 3.835482,-3.85031 4.95998,-4.22099 0.534064,-0.17604 1.11419,-0.49258 1.28917,-0.70342 0.174979,-0.21084 0.537054,-0.38334 0.804608,-0.38334 0.267555,0 0.699461,-0.22183 0.95979,-0.49295 0.260331,-0.27113 0.770985,-0.55909 1.134787,-0.63992 0.363802,-0.0808 1.137708,-0.33002 1.719792,-0.55377 1.358913,-0.52234 4.197336,-0.52234 5.55625,0 0.582083,0.22375 1.355989,0.47294 1.719791,0.55377 0.363802,0.0808 0.874456,0.36879 1.134788,0.63992 0.260328,0.27112 0.692234,0.49295 0.959789,0.49295 0.267554,0 0.629629,0.1725 0.804608,0.38334 0.17498,0.21084 0.755105,0.52738 1.289167,0.70342 1.124497,0.37068 3.835522,2.67778 4.95998,4.22099 0.425448,0.58388 1.139368,1.56327 1.586498,2.17641 1.35637,1.85999 2.22975,4.46127 2.22975,6.64108 0,0.83598 0.11617,1.73702 0.25814,2.0023 0.36935,0.69014 0.37,1.76459 0.002,3.58392 -0.57998,2.86866 -1.24767,4.00505 -3.3588,5.71666 -1.057797,0.85766 -2.079269,1.55938 -2.269883,1.55938 -0.50111,0 -0.981569,0.55606 -0.981569,1.13602 0,0.27851 -0.235017,0.56248 -0.529167,0.6394 -0.291042,0.0761 -0.529167,0.25184 -0.529167,0.39051 0,0.13867 -0.266287,0.21408 -0.591751,0.16758 -0.646356,-0.0923 -0.668835,-0.16551 -1.441199,-4.69031 l -0.424878,-2.4891 0.485735,-0.35517 c 0.716862,-0.52418 1.793013,-0.43811 2.175275,0.17399 0.214206,0.343 0.617013,0.52916 1.14496,0.52916 0.662022,0 0.870575,0.14859 1.114097,0.79375 0.164785,0.43657 0.404329,0.79375 0.532323,0.79375 0.49974,0 1.633174,-1.51354 1.551104,-2.07128 -0.0568,-0.38615 0.0547,-0.57455 0.34013,-0.57455 1.36287,0 2.05539,-6.2706 0.93504,-8.46667 -0.29104,-0.57048 -0.52917,-1.25284 -0.52917,-1.51634 0,-0.61565 -2.111276,-4.19491 -3.087459,-5.23419 -0.411914,-0.43859 -1.999121,-1.62076 -3.527089,-2.62706 -1.527969,-1.0063 -3.091956,-2.03997 -3.475527,-2.29703 -0.76222,-0.51084 -3.856078,-1.81913 -4.301877,-1.81913 -0.152812,0 0.01654,0.19549 0.376344,0.43442 1.078859,0.71644 4.70953,4.34009 6.204294,6.19229 3.238465,4.01289 4.935611,9.22176 4.177046,12.82017 l -0.223102,1.05833 -1.149954,0.0831 c -0.632473,0.0457 -1.272825,-0.0398 -1.423006,-0.18994 -0.483721,-0.48372 -0.969891,-2.23989 -0.973984,-3.51829 -0.0021,-0.68412 -0.194077,-1.93428 -0.426413,-2.77812 -0.232336,-0.84385 -0.510376,-1.95099 -0.617865,-2.46031 -0.10749,-0.50932 -0.518682,-1.52135 -0.913757,-2.24896 -0.395076,-0.7276 -0.641562,-1.02526 -0.547746,-0.66146 0.598577,2.3212 1.584036,8.77012 1.778047,11.63568 l 0.06229,0.92004 -1.455208,0.89819 c -0.800365,0.49401 -1.217083,0.80433 -0.926042,0.68961 0.291042,-0.11473 0.883002,-0.21856 1.315469,-0.23074 l 0.786302,-0.0221 0.190637,1.05833 c 0.104852,0.58208 0.197499,2.34608 0.205886,3.92 0.0084,1.57391 0.14329,3.10092 0.299789,3.39333 0.458091,0.85596 3.847547,2.34396 5.339186,2.34396 1.783019,0 3.718319,-1.01008 4.153599,-2.16786 0.18091,-0.48117 0.56712,-1.32877 0.85826,-1.88355 0.40013,-0.76248 0.48815,-1.27917 0.36059,-2.11667 -0.0928,-0.60938 -0.23584,-1.68338 -0.31782,-2.38667 l -0.14905,-1.27871 0.61094,0.0881 c 0.46378,0.0669 0.72495,0.40673 1.08428,1.411 0.68667,1.91915 0.56586,3.90802 -0.39982,6.58173 -0.45194,1.25131 -2.57233,3.16249 -3.95293,3.56291 -1.940209,0.56274 -5.019864,0.18455 -7.250077,-0.89031 l -1.273637,-0.61385 -0.290912,0.70684 c -0.353385,0.85862 -0.160208,1.81203 0.788107,3.88963 1.239753,2.71608 4.184033,4.62358 7.133319,4.62142 1.63139,-0.001 2.62719,-0.54731 3.925,-2.15259 1.16621,-1.44251 1.41933,-1.9315 2.06789,-3.99488 0.74522,-2.37088 1.51791,-3.58315 3.11188,-4.88222 1.15968,-0.94513 1.58963,-1.13947 2.51355,-1.13616 1.05289,0.004 2.565,0.4044 3.29738,0.87366 0.20206,0.12947 0.33073,0.8075 0.33073,1.74279 0,1.67148 -0.4711,2.40664 -1.54219,2.40664 -0.63426,0 -0.77488,-0.71868 -0.31042,-1.58652 0.62084,-1.16004 -1.26663,-1.72044 -3.00406,-0.89191 -0.76811,0.36628 -1.11148,0.86971 -2.25794,3.31047 -0.74363,1.58318 -1.35206,2.9939 -1.35206,3.13494 0,0.50665 -3.55378,4.01114 -4.44531,4.38364 -0.59504,0.24862 -1.84033,0.37769 -3.590648,0.37214 -2.372622,-0.007 -2.846354,-0.0909 -4.134356,-0.72761 -1.72435,-0.85241 -2.595562,-2.04596 -4.484031,-6.14307 -0.167685,-0.3638 -0.637511,-1.23388 -1.044057,-1.93351 l -0.739174,-1.27207 -0.541711,1.30351 c -0.343786,0.82724 -0.457149,1.43702 -0.310266,1.66893 0.127297,0.20099 0.233273,0.95829 0.235501,1.68289 0.0032,1.03863 0.178614,1.57059 0.828886,2.51354 0.932715,1.35252 3.521726,3.44505 4.262443,3.44505 0.269528,0 0.978215,0.24904 1.574861,0.55342 0.827048,0.42194 1.343194,0.51247 2.172271,0.38105 0.598104,-0.0948 1.891136,-0.23456 2.873401,-0.31056 l 1.78594,-0.13817 v 0.66756 c 0,0.77193 -0.18946,0.91935 -1.984377,1.54402 -2.179198,0.75841 -4.967711,0.63581 -7.28645,-0.32036 -2.4681,-1.01777 -3.414927,-1.75117 -4.959654,-3.84173 -0.686205,-0.92867 -1.307177,-1.68849 -1.379937,-1.68849 -0.07276,0 -0.693733,0.75982 -1.379937,1.68849 -1.544728,2.09056 -2.491555,2.82396 -4.959655,3.84173 -1.652054,0.68125 -2.249393,0.79286 -4.081696,0.76267 -1.231929,-0.0203 -2.653694,-0.2191 -3.337047,-0.4666 z m 5.55625,-0.44887 c 2.034829,-0.7075 4.789173,-2.28239 5.241235,-2.99686 0.917829,-1.45061 2.534825,-3.19605 2.960849,-3.19605 0.426024,0 2.04302,1.74544 2.960849,3.19605 0.452062,0.71447 3.206406,2.28936 5.241234,2.99686 1.59684,0.55521 2.612975,0.52668 4.57241,-0.12835 2.022685,-0.67617 2.631855,-1.17406 1.116135,-0.91223 -0.582086,0.10055 -1.968797,0.24125 -3.081584,0.31266 -1.649809,0.10587 -2.211414,0.0355 -3.042708,-0.38107 -0.560703,-0.28101 -1.317342,-0.5822 -1.68142,-0.66932 -0.74582,-0.17847 -3.544141,-2.57381 -4.026913,-3.44702 -0.284072,-0.51381 -0.408731,-1.1811 -0.897437,-4.80404 -0.189196,-1.40257 0.699635,-3.57188 1.463513,-3.57188 0.28942,0 0.714386,0.2679 0.94437,0.59532 1.012311,1.4412 1.723218,2.62307 1.723218,2.86481 0,0.40122 1.299773,2.88458 2.187326,4.17914 1.116531,1.62854 3.454445,2.68106 5.942801,2.67543 0.985464,-0.002 1.970344,-0.11946 2.188624,-0.26053 0.27433,-0.17729 -0.26495,-0.25773 -1.74653,-0.26053 -2.445083,-0.005 -3.934737,-0.60982 -5.760317,-2.34021 -1.866114,-1.76882 -3.045883,-5.61103 -2.286109,-7.44528 0.420884,-1.01611 0.914287,-1.01749 2.913788,-0.008 0.864825,0.43656 1.775711,0.79375 2.024192,0.79375 0.248478,0 0.835917,0.1389 1.305417,0.30868 0.698151,0.25245 1.120315,0.2248 2.317709,-0.15183 0.80523,-0.25328 1.62018,-0.6526 1.81098,-0.88738 0.30344,-0.37339 0.2806,-0.39903 -0.18226,-0.20465 -0.29104,0.12223 -1.24778,0.33898 -2.1261,0.48167 -1.917973,0.3116 -3.787524,-0.13815 -5.745251,-1.38211 l -1.25677,-0.79856 -0.0063,-3.11468 c -0.0055,-2.71189 -0.248195,-4.9126 -0.578167,-5.24257 -0.14844,-0.14844 -2.497347,0.53721 -4.17802,1.21957 -0.800365,0.32495 -1.752865,0.59082 -2.116667,0.59082 -0.363802,0 -1.316302,-0.26587 -2.116666,-0.59082 -1.680673,-0.68236 -4.029581,-1.36801 -4.17802,-1.21957 -0.329972,0.32997 -0.572672,2.53068 -0.578167,5.24257 l -0.0063,3.11468 -1.256772,0.79856 c -1.957726,1.24396 -3.82728,1.69371 -5.745255,1.38211 -0.878314,-0.14269 -1.835058,-0.35944 -2.126099,-0.48167 -0.462854,-0.19438 -0.485693,-0.16874 -0.182253,0.20465 0.190801,0.23478 1.005742,0.6341 1.81098,0.88738 1.19739,0.37663 1.619554,0.40428 2.317705,0.15183 0.469501,-0.16978 1.056939,-0.30868 1.305417,-0.30868 0.248481,0 1.159365,-0.35719 2.024192,-0.79375 1.999502,-1.00935 2.492905,-1.00797 2.913789,0.008 0.759774,1.83425 -0.419995,5.67646 -2.286112,7.44528 -1.825578,1.73039 -3.315232,2.33559 -5.760313,2.34021 -1.481584,0.003 -2.020864,0.0832 -1.74653,0.26052 0.218281,0.14107 1.203161,0.25831 2.18862,0.26054 2.488358,0.006 4.826272,-1.0469 5.942804,-2.67544 0.887553,-1.29456 2.187327,-3.77792 2.187327,-4.17913 0,-0.24175 0.710906,-1.42362 1.723218,-2.86482 0.229983,-0.32742 0.654949,-0.59531 0.944369,-0.59531 0.763878,0 1.652709,2.1693 1.463513,3.57187 -0.488706,3.62294 -0.613365,4.29023 -0.897437,4.80405 -0.482772,0.8732 -3.281093,3.26855 -4.026913,3.44701 -0.364078,0.0871 -1.120717,0.38832 -1.68142,0.66932 -0.831295,0.41661 -1.392902,0.48695 -3.042709,0.38107 -1.112787,-0.0714 -2.499497,-0.21211 -3.081581,-0.31266 -1.445204,-0.24965 -0.949322,0.22194 0.926042,0.88068 1.827504,0.64192 3.239778,0.68934 4.7625,0.1599 z m 2.028474,-16.95263 c -0.329097,-0.3291 -0.17847,-2.13835 0.204486,-2.45617 0.209481,-0.17385 0.715496,-0.27773 1.124479,-0.23083 0.64589,0.0741 0.754197,0.21234 0.824222,1.05231 0.06343,0.76081 -0.04787,1.05704 -0.521894,1.38906 -0.629451,0.44088 -1.330481,0.54644 -1.631293,0.24563 z m 1.51139,-1.29081 c 0.222684,-0.5803 -0.407326,-0.78203 -0.793401,-0.25404 -0.191545,0.26195 -0.288732,0.5726 -0.215972,0.69033 0.182285,0.29494 0.837441,0.0118 1.009373,-0.43629 z m 9.21181,1.05303 c -0.481232,-0.33924 -0.592789,-0.63374 -0.529167,-1.39691 0.07219,-0.86597 0.165944,-0.97538 0.896903,-1.04671 1.05528,-0.10298 1.489017,0.4346 1.383602,1.71484 -0.09643,1.17104 -0.742561,1.43992 -1.751338,0.72878 z m 0.998066,-1.18939 c -0.295307,-0.55179 -0.662329,-0.66132 -0.904264,-0.26986 -0.196109,0.31731 0.617501,1.12991 0.934903,0.93375 0.145881,-0.0902 0.133562,-0.35708 -0.03064,-0.66389 z m -24.333074,12.36019 c 0,-0.0502 -0.26789,-0.3181 -0.595312,-0.59531 l -0.595313,-0.50403 0.504026,0.59531 c 0.473663,0.55944 0.686599,0.71576 0.686599,0.50403 z m 38.232296,-0.43789 c 0.26339,-0.29104 0.41936,-0.52916 0.3466,-0.52916 -0.0728,0 -0.3478,0.23812 -0.61119,0.52916 -0.26339,0.29105 -0.41936,0.52917 -0.34659,0.52917 0.0728,0 0.34779,-0.23812 0.61118,-0.52917 z m -40.316665,-3.08901 c -0.311901,-0.53636 -0.38722,-0.36468 -0.131902,0.30066 0.09074,0.23646 0.220712,0.37419 0.288835,0.30607 0.06812,-0.0681 -0.0024,-0.34115 -0.156933,-0.60673 z m 42.028345,-0.21828 c 0,-0.14552 -0.11541,-0.086 -0.25647,0.13229 -0.14107,0.21829 -0.25648,0.51594 -0.25648,0.66146 0,0.14552 0.11541,0.086 0.25648,-0.13229 0.14106,-0.21828 0.25647,-0.51594 0.25647,-0.66146 z M 64.513562,159.6637 c -0.295132,-0.55943 -0.541867,-0.93189 -0.548299,-0.82769 -0.01878,0.30425 0.866542,2.06321 0.980898,1.94885 0.0572,-0.0572 -0.13747,-0.56172 -0.432599,-1.12116 z m 43.867828,-0.75257 c 0,-0.14552 -0.22814,0.15214 -0.50698,0.66146 -0.27885,0.50932 -0.50699,1.04511 -0.50699,1.19063 0,0.14552 0.22814,-0.15214 0.50699,-0.66146 0.27884,-0.50932 0.50698,-1.04511 0.50698,-1.19063 z m -50.457427,-2.44739 c 0.16895,-0.20426 0.949214,-0.33073 2.040337,-0.33073 1.046993,0 1.911932,0.13474 2.123085,0.33073 0.285377,0.26488 0.318678,0.26413 0.167257,-0.004 C 62.150661,156.27598 61.61974,155.898 61.074817,155.62 l -0.990764,-0.50545 -1.249317,0.41129 c -1.416886,0.46645 -1.902206,1.11992 -1.599137,2.15317 l 0.20619,0.70296 0.104301,-0.79375 c 0.05737,-0.43656 0.22741,-0.94258 0.377873,-1.12448 z m 57.159117,0.10298 c -0.1835,-0.40275 -0.72549,-0.76593 -1.54626,-1.03614 l -1.26373,-0.41604 -0.99077,0.50545 c -0.54492,0.278 -1.07584,0.65599 -1.17982,0.83997 -0.15142,0.26791 -0.11812,0.26866 0.16726,0.004 0.46295,-0.42971 3.73943,-0.44012 4.16631,-0.0132 0.17463,0.17462 0.32556,0.68064 0.33541,1.12448 l 0.0179,0.80698 0.28812,-0.59758 c 0.20526,-0.42572 0.20686,-0.7759 0.006,-1.21767 z m -51.394092,1.3017 c 0,-0.0642 -0.137459,-0.20164 -0.305464,-0.30547 -0.189257,-0.11697 -0.233643,-0.0726 -0.116676,0.11668 0.188499,0.305 0.42214,0.40949 0.42214,0.18879 z m 45.376042,-0.14791 c 0.0899,-0.14552 0.10399,-0.26459 0.0312,-0.26459 -0.0728,0 -0.20587,0.11907 -0.29581,0.26459 -0.0899,0.14552 -0.10399,0.26458 -0.0312,0.26458 0.0728,0 0.20587,-0.11906 0.29581,-0.26458 z m -39.555209,-0.62045 c 0,-0.0502 -0.267891,-0.3181 -0.595312,-0.59531 l -0.595313,-0.50403 0.504026,0.59531 c 0.473662,0.55944 0.686599,0.71576 0.686599,0.50403 z m 33.998959,-0.43789 c 0.26339,-0.29104 0.41936,-0.52916 0.3466,-0.52916 -0.0728,0 -0.34779,0.23812 -0.61118,0.52916 -0.26339,0.29105 -0.41936,0.52917 -0.3466,0.52917 0.0728,0 0.34779,-0.23812 0.61118,-0.52917 z M 68.072705,154.9449 c -0.544547,-1.30329 -0.926484,-1.92074 -0.936088,-1.51331 -0.0092,0.38812 0.992582,2.43685 1.191506,2.43685 0.07175,0 -0.04318,-0.41559 -0.255418,-0.92354 z m 36.621325,-0.12425 c 0.54432,-1.06695 0.75275,-2.13269 0.24737,-1.26481 -0.43889,0.75368 -1.05392,2.3126 -0.91238,2.3126 0.0718,0 0.37101,-0.4715 0.66501,-1.04779 z m -37.582231,-3.51627 c -0.01336,-1.10618 -0.06575,-1.26714 -0.257297,-0.79039 -0.213595,0.53163 -0.0814,2.17945 0.17485,2.17945 0.05457,0 0.09167,-0.62507 0.08245,-1.38906 z m 9.806355,0.71021 c 0,-0.37337 0.106805,-0.87938 0.237342,-1.12448 0.13054,-0.24509 0.321146,-1.23195 0.423572,-2.19301 0.162105,-1.52106 0.126561,-1.77028 -0.274429,-1.92415 -0.304051,-0.11668 -0.588068,0.005 -0.835448,0.35832 -0.235963,0.33688 -0.671769,0.53509 -1.176523,0.53509 -0.647843,0 -0.859237,0.15236 -1.101339,0.79375 -0.219122,0.58053 -0.471482,0.79375 -0.939437,0.79375 h -0.639834 l 0.998805,0.79375 c 0.549341,0.43656 1.159428,0.79375 1.355746,0.79375 0.196318,0 0.531058,0.41672 0.743868,0.92604 0.459243,1.09912 1.207677,1.25232 1.207677,0.24719 z m 19.728512,-0.24719 c 0.212807,-0.50932 0.547547,-0.92604 0.743868,-0.92604 0.196318,0 0.806402,-0.35719 1.355746,-0.79375 l 0.998805,-0.79375 h -0.639834 c -0.467958,0 -0.720315,-0.21322 -0.93944,-0.79375 -0.242099,-0.64139 -0.453493,-0.79375 -1.101336,-0.79375 -0.504754,0 -0.940562,-0.19821 -1.176526,-0.53509 -0.24738,-0.35319 -0.531394,-0.475 -0.835445,-0.35832 -0.400992,0.15387 -0.436534,0.40309 -0.274429,1.92415 0.102426,0.96106 0.293032,1.94792 0.423569,2.19301 0.13054,0.2451 0.237345,0.75111 0.237345,1.12448 0,1.00513 0.748434,0.85193 1.207677,-0.24719 z m 8.864194,-1.23119 c -0.19963,-0.49831 -0.24735,-0.33359 -0.24166,0.83432 l 0.007,1.45521 0.24166,-0.83432 c 0.1479,-0.5106 0.14514,-1.07522 -0.007,-1.45521 z M 67.649634,148.5924 c 0,-0.14552 -0.115417,-0.086 -0.25648,0.13229 -0.141065,0.21829 -0.256481,0.51594 -0.256481,0.66146 0,0.14552 0.115416,0.086 0.256481,-0.13229 0.141063,-0.21828 0.25648,-0.51594 0.25648,-0.66146 z m 37.346656,0.21828 c -0.3119,-0.53636 -0.38722,-0.36468 -0.13191,0.30066 0.0907,0.23646 0.22072,0.37419 0.28884,0.30607 0.0681,-0.0681 -0.002,-0.34115 -0.15693,-0.60673 z m -33.542734,-0.6813 c -0.56874,-0.61846 -1.195242,-1.51525 -1.392227,-1.99286 -0.196982,-0.47761 -0.410437,-0.81609 -0.47434,-0.75219 -0.2213,0.2213 0.77913,1.88958 1.725473,2.87734 1.30479,1.3619 1.417754,1.25598 0.141094,-0.13229 z m 30.906244,-1.61314 c 0.28844,-0.5598 0.47263,-1.06963 0.4093,-1.13296 -0.0633,-0.0633 -0.2763,0.27563 -0.47329,0.75324 -0.19698,0.47761 -0.83391,1.40416 -1.4154,2.05901 l -1.057257,1.19062 1.006107,-0.92604 c 0.55335,-0.50932 1.2421,-1.38406 1.53054,-1.94387 z m -15.342084,1.59749 0.971437,-0.33842 h -1.826099 -1.826099 l 0.854663,0.31083 c 0.470064,0.17096 0.854662,0.32325 0.854662,0.33842 0,0.0152 0.437147,-0.1247 0.971436,-0.31083 z m 3.08409,-2.01198 c 1.13267,-0.5695 2.179375,-1.19458 2.32601,-1.38906 0.373274,-0.49509 0.02191,-3.99693 -0.911561,-9.08487 -0.13349,-0.7276 -0.49611,-2.08257 -0.80582,-3.01103 -0.745276,-2.23421 -0.731137,-2.67751 0.0854,-2.67751 0.52442,0 0.836165,0.33556 1.629224,1.75368 0.539393,0.96452 1.069502,2.18491 1.178021,2.71198 0.108516,0.52706 0.387397,1.64872 0.619733,2.49256 0.232336,0.84384 0.422429,2.07163 0.422429,2.72841 0,2.64413 1.348306,4.95345 2.323007,3.97875 0.490379,-0.49038 0.560845,-4.27278 0.0884,-4.74522 -0.162107,-0.16211 -0.294743,-0.50832 -0.294743,-0.76937 0,-0.90843 -2.555533,-5.68456 -4.016692,-7.50693 -1.575434,-1.96489 -4.385949,-4.7498 -5.572526,-5.52175 -0.451461,-0.29372 -0.965292,-0.41197 -1.359791,-0.31296 -0.83869,0.2105 -4.362826,3.52196 -6.204231,5.82982 -1.461353,1.83154 -4.013428,6.60819 -4.013428,7.51182 0,0.26105 -0.132636,0.60726 -0.294743,0.76937 -0.472443,0.47244 -0.401979,4.25484 0.0884,4.74522 0.974701,0.9747 2.323007,-1.33462 2.323007,-3.97875 0,-0.65678 0.190093,-1.88457 0.422429,-2.72841 0.232336,-0.84384 0.511218,-1.9655 0.619734,-2.49256 0.108519,-0.52707 0.638628,-1.74746 1.17802,-2.71198 0.79306,-1.41812 1.104805,-1.75368 1.629225,-1.75368 0.816534,0 0.830673,0.4433 0.0854,2.67751 -0.30971,0.92846 -0.67233,2.28343 -0.80582,3.01103 -0.93308,5.08584 -1.284804,8.5898 -0.911889,9.08447 0.146452,0.19427 1.166034,0.8134 2.265738,1.37583 1.764895,0.90265 2.225183,1.02417 3.923562,1.03585 1.724242,0.0118 2.138013,-0.0943 3.983505,-1.02222 z m -20.680181,-1.52219 c -0.09701,-0.097 -0.176387,-0.0176 -0.176387,0.17638 0,0.19403 0.07938,0.27341 0.176387,0.17639 0.09701,-0.097 0.09701,-0.25576 0,-0.35277 z m 33.602085,0 c -0.097,-0.097 -0.17639,-0.0176 -0.17639,0.17638 0,0.19403 0.0794,0.27341 0.17639,0.17639 0.097,-0.097 0.097,-0.25576 0,-0.35277 z m -34.012316,-2.36337 c -0.133192,-0.56767 -0.252503,-0.794 -0.265134,-0.50295 -0.02731,0.62926 0.25794,1.78444 0.40445,1.63793 0.05657,-0.0566 -0.0061,-0.56731 -0.139316,-1.13498 z m 34.611076,-0.34861 c 0.0269,-0.92451 -0.14988,-0.58906 -0.33693,0.63941 -0.11231,0.7376 -0.0885,0.89797 0.0786,0.52916 0.13186,-0.29104 0.24811,-0.8169 0.25834,-1.16857 z m -33.671678,-6.01927 c -0.09701,-0.097 -0.176388,-0.0177 -0.176388,0.17638 0,0.19403 0.07938,0.27341 0.176388,0.17639 0.09701,-0.097 0.09701,-0.25576 0,-0.35277 z m 32.543758,0 c -0.097,-0.097 -0.17639,-0.0177 -0.17639,0.17638 0,0.19403 0.0794,0.27341 0.17639,0.17639 0.097,-0.097 0.097,-0.25576 0,-0.35277 z m -32.279175,-0.79375 c -0.09701,-0.097 -0.176387,-0.0177 -0.176387,0.17638 0,0.19403 0.07937,0.27341 0.176387,0.17639 0.09701,-0.097 0.09701,-0.25576 0,-0.35277 z m 32.014585,0 c -0.097,-0.097 -0.17639,-0.0177 -0.17639,0.17638 0,0.19403 0.0794,0.27341 0.17639,0.17639 0.097,-0.097 0.097,-0.25576 0,-0.35277 z m -31.000347,-1.94028 c 0.08994,-0.14552 0.103989,-0.26459 0.03123,-0.26459 -0.07276,0 -0.205875,0.11907 -0.295813,0.26459 -0.08994,0.14552 -0.103991,0.26458 -0.03123,0.26458 0.07276,0 0.205878,-0.11906 0.295815,-0.26458 z m 30.294797,0.14791 c 0,-0.0642 -0.13746,-0.20164 -0.30547,-0.30547 -0.18925,-0.11697 -0.23364,-0.0726 -0.11667,0.11668 0.1885,0.305 0.42214,0.40949 0.42214,0.18879 z M 81.364973,131.1229 c -0.08146,-0.0815 -0.229407,0.0654 -0.328766,0.32632 -0.143584,0.37709 -0.113194,0.40748 0.148114,0.14811 0.180821,-0.17947 0.262114,-0.39297 0.180652,-0.47443 z m 9.931985,0.26018 c -0.08617,-0.22456 -0.213421,-0.35155 -0.282774,-0.28219 -0.06936,0.0694 -0.04762,0.25308 0.0483,0.40829 0.260892,0.42213 0.41338,0.34012 0.234474,-0.1261 z m -18.215262,-0.91464 c 0.08994,-0.14552 0.103989,-0.26458 0.03123,-0.26458 -0.07276,0 -0.205875,0.11906 -0.295812,0.26458 -0.08994,0.14553 -0.103992,0.26459 -0.03123,0.26459 0.07276,0 0.205878,-0.11906 0.295815,-0.26459 z m 26.590626,0.14791 c 0,-0.0642 -0.137459,-0.20163 -0.305464,-0.30546 -0.189257,-0.11697 -0.233643,-0.0726 -0.116676,0.11667 0.1885,0.305 0.42214,0.40949 0.42214,0.18879 z m -22.108216,-3.78593 c 1.552059,-1.05502 2.722986,-1.91823 2.602066,-1.91823 -0.120922,0 -0.48301,0.18432 -0.804643,0.4096 -0.32163,0.22528 -0.987201,0.5527 -1.479048,0.72761 -0.491842,0.1749 -1.654167,1.03121 -2.582939,1.90292 -0.928775,0.8717 -1.434132,1.40748 -1.123019,1.19062 0.311116,-0.21686 1.835526,-1.25749 3.387583,-2.31252 z m 19.44243,1.05834 c -0.900689,-0.83675 -2.040032,-1.66446 -2.531877,-1.83936 -0.491845,-0.17491 -1.157414,-0.50233 -1.479045,-0.72761 -0.321632,-0.22528 -0.692631,-0.4096 -0.824444,-0.4096 -0.131813,0 0.696127,0.61089 1.839865,1.35753 1.143735,0.74664 2.604884,1.75867 3.246993,2.24896 0.642109,0.49029 1.216668,0.89143 1.276797,0.89143 0.06013,0 -0.627599,-0.68461 -1.528289,-1.52135 z m -15.047044,-3.74287 c 0.409172,-0.16342 0.487693,-0.26465 0.213495,-0.27526 -0.238538,-0.009 -0.660869,0.19159 -0.938512,0.44625 -0.27764,0.25466 -0.373713,0.37853 -0.213495,0.27526 0.160219,-0.10328 0.582549,-0.30409 0.938512,-0.44626 z m 9.282999,0.22834 c -0.343546,-0.2862 -0.819796,-0.52018 -1.058334,-0.51996 -0.23854,2.3e-4 -0.01699,0.22376 0.492332,0.49675 1.211064,0.64909 1.322789,0.65367 0.566002,0.0232 z m -4.73319,-0.6956 c -0.181901,-0.0734 -0.479557,-0.0734 -0.661458,0 -0.181901,0.0734 -0.03307,0.13345 0.330729,0.13345 0.363802,0 0.51263,-0.06 0.330729,-0.13345 z m -1.124479,-0.63061 c 0.28984,-0.19614 0.182806,-0.22068 -0.396875,-0.091 -0.972855,0.21762 -1.18404,0.36905 -0.507119,0.36364 0.278916,-0.002 0.685713,-0.1249 0.903994,-0.27262 z m 2.888369,0.1816 c -0.06063,-0.0523 -0.467432,-0.17496 -0.903994,-0.27262 -0.579681,-0.12966 -0.686716,-0.10512 -0.396875,0.091 0.357285,0.24178 1.566373,0.41057 1.300869,0.1816 z m -24.181912,44.74351 c -1.005801,-0.9095 -2.073325,-1.90119 -2.372281,-2.20373 -0.894411,-0.90517 -2.527927,-3.28586 -2.527927,-3.6842 0,-0.3924 2.126017,-1.45426 2.911652,-1.45426 0.616927,0 0.929386,0.41339 2.147957,2.84178 0.566615,1.12916 1.438034,2.5888 1.936485,3.24364 0.581414,0.76384 0.912569,1.49886 0.92384,2.05052 0.02814,1.37756 -0.883536,1.13792 -3.019726,-0.79375 z m 2.083385,0.26459 c -0.949892,-1.09383 -2.100689,-2.95831 -3.023386,-4.89839 -0.682451,-1.43494 -1.015,-1.87878 -1.31263,-1.75191 -0.219242,0.0934 -0.666509,0.22801 -0.993931,0.29902 -0.327422,0.071 -0.595313,0.23326 -0.595313,0.36056 0,0.67803 3.122912,4.10046 5.423959,5.94417 0.995772,0.79786 1.167614,0.81382 0.501301,0.0465 z m 39.071476,0.52916 c 0.0113,-0.55166 0.34242,-1.28668 0.92384,-2.05052 0.49845,-0.65484 1.36987,-2.11448 1.93648,-3.24364 1.21857,-2.42839 1.53103,-2.84178 2.14796,-2.84178 0.78564,0 2.91165,1.06186 2.91165,1.45426 0,0.39834 -1.63351,2.77903 -2.52792,3.6842 -2.02734,2.05171 -4.27672,3.85738 -4.8053,3.85738 -0.50896,0 -0.60151,-0.13563 -0.58671,-0.8599 z m 3.59291,-2.48853 c 1.40245,-1.32032 3.26869,-3.62199 3.26869,-4.03135 0,-0.1273 -0.26789,-0.28955 -0.59531,-0.36056 -0.32743,-0.071 -0.7747,-0.20557 -0.99393,-0.29902 -0.29763,-0.12687 -0.63018,0.31697 -1.31263,1.75191 -0.90561,1.90415 -2.00736,3.69772 -3.04342,4.95446 l -0.537,0.65139 0.92604,-0.69252 c 0.50932,-0.38089 1.53872,-1.26933 2.28756,-1.97431 z m -39.082177,-2.03693 c -1.592762,-1.18548 -2.905561,-2.747 -3.938053,-4.68416 -1.041286,-1.95365 -1.019852,-2.98773 0.06451,-3.11219 0.587092,-0.0674 0.968068,0.15682 1.852083,1.08992 2.260867,2.38642 5.417217,3.46896 7.544858,2.58766 0.432988,-0.17935 1.127469,-0.28718 1.543294,-0.23963 l 0.756047,0.0865 0.07778,1.32588 0.07778,1.32589 -0.916853,0.88864 c -0.952508,0.92321 -2.130134,1.31824 -4.530376,1.5197 -1.178777,0.0989 -1.454555,0.0131 -2.531073,-0.78818 z m 3.986281,-0.15939 c 1.511695,-0.30492 2.637462,-1.03433 3.102957,-2.01048 0.597225,-1.2524 0.245734,-1.57902 -1.262269,-1.17295 -1.523013,0.4101 -4.545137,0.0939 -5.779915,-0.60483 -0.525561,-0.29739 -1.577698,-1.13987 -2.338081,-1.8722 -0.760386,-0.73232 -1.45279,-1.26122 -1.538679,-1.17533 -0.281194,0.28119 1.470895,3.40168 2.605482,4.64038 1.365083,1.49035 3.333551,2.78502 3.881525,2.55289 0.221615,-0.0939 0.819658,-0.25475 1.32898,-0.35748 z m 24.870835,0.78225 c -0.218282,-0.14107 -0.723953,-0.25831 -1.123718,-0.26053 -0.461176,-0.003 -1.11847,-0.35787 -1.798309,-0.97206 l -1.071467,-0.96801 0.07852,-1.3471 0.07852,-1.34709 0.756044,-0.0865 c 0.415828,-0.0476 1.110309,0.0603 1.543294,0.23962 2.127644,0.8813 5.283997,-0.20123 7.544857,-2.58765 0.88402,-0.93311 1.26499,-1.15731 1.85209,-1.08992 1.08867,0.12495 1.10575,1.15861 0.0518,3.136 -1.73156,3.24874 -4.37749,5.55081 -6.37182,5.54374 -0.628622,-0.002 -1.321544,-0.11947 -1.539825,-0.26054 z m 2.924761,-1.01549 c 0.64696,-0.41299 1.67554,-1.29597 2.28574,-1.96217 1.13459,-1.2387 2.88668,-4.35919 2.60549,-4.64038 -0.0859,-0.0859 -0.7783,0.44301 -1.53868,1.17533 -0.76039,0.73233 -1.81252,1.57481 -2.33809,1.8722 -1.23477,0.69869 -4.256896,1.01493 -5.779912,0.60483 -1.508683,-0.40625 -1.859502,-0.0795 -1.261329,1.17491 0.46456,0.9742 2.073492,1.99382 3.157624,2.00107 0.333219,0.002 0.784448,0.11947 1.002729,0.26053 0.549248,0.35495 0.548138,0.35524 1.866428,-0.48632 z M 54.574219,153.68563 c -0.237093,-0.7663 -0.402545,-3.87489 -0.247499,-4.65012 0.188291,-0.94145 0.858089,-1.12612 1.458515,-0.40212 0.526124,0.6344 2.019168,1.22614 3.526023,1.39747 l 1.310815,0.14904 0.390816,1.26171 c 0.258871,0.83573 0.302059,1.35046 0.127921,1.52459 -0.33233,0.33234 -4.037746,1.05016 -5.4209,1.05016 -0.603726,0 -1.08648,-0.13936 -1.145691,-0.33073 z m 4.48456,-0.84657 1.322917,-0.296 -0.09196,-0.65241 c -0.144288,-1.02364 -0.544092,-1.31387 -1.809911,-1.31387 -1.263772,0 -1.986114,-0.28075 -2.926771,-1.13752 l -0.595312,-0.54222 v 1.7833 c 0,0.98082 0.123613,2.01429 0.274698,2.29659 0.29505,0.55131 0.832803,0.53193 3.826343,-0.13787 z m 54.261301,0.7699 c -1.0067,-0.20316 -1.95103,-0.49003 -2.0985,-0.63751 -0.18113,-0.18113 -0.14132,-0.67756 0.12267,-1.52984 l 0.39082,-1.26171 1.31082,-0.14904 c 1.50685,-0.17133 2.99989,-0.76307 3.52602,-1.39747 0.19972,-0.24082 0.57621,-0.43786 0.83664,-0.43786 0.62834,0 0.84242,1.4055 0.58435,3.83646 l -0.19662,1.85208 -1.32292,0.0471 c -0.7276,0.0259 -2.14658,-0.11909 -3.15328,-0.32224 z m 3.80543,-0.63354 c 0.15064,-0.28147 0.2739,-1.31426 0.2739,-2.29508 v -1.7833 l -0.59532,0.54222 c -0.94065,0.85677 -1.663,1.13752 -2.92677,1.13752 -1.26903,0 -1.66636,0.29042 -1.80991,1.32291 l -0.092,0.66146 2.11667,0.44073 c 2.74465,0.57148 2.71324,0.57175 3.0334,-0.0265 z m -55.641382,-0.98753 c -0.09701,-0.097 -0.176835,-1.01975 -0.17738,-2.05052 -0.0013,-2.29226 -0.697426,-3.75232 -1.665494,-3.49275 -0.32036,0.0859 -0.914085,0.15781 -1.319389,0.1598 -0.646213,0.003 -0.703202,0.0666 -0.463021,0.51538 0.453075,0.84658 0.342355,1.86948 -0.202356,1.86948 -1.286722,0 -1.546955,-2.08743 -0.426273,-3.41928 l 0.68498,-0.81406 h 1.782442 c 1.879044,0 2.40519,0.29432 3.16579,1.77089 0.463381,0.89957 -0.184904,5.63745 -0.771374,5.63745 -0.237347,0 -0.510913,-0.0794 -0.607925,-0.17639 z m 0.529166,-1.05833 c -0.09701,-0.097 -0.17639,-0.0177 -0.17639,0.17638 0,0.19403 0.07938,0.27341 0.17639,0.17639 0.09701,-0.097 0.09701,-0.25576 0,-0.35277 z m 0.33418,-3.07679 c 0.03242,-1.75061 -1.724959,-2.93554 -3.504968,-2.36324 l -0.84206,0.27073 1.50635,0.027 c 1.87783,0.0337 2.321642,0.53736 2.348703,2.66557 0.01349,1.06147 0.08095,1.31738 0.245989,0.93331 0.125063,-0.29104 0.235759,-0.98106 0.245986,-1.53338 z m 47.168126,1.79411 c -0.34149,-2.70377 -0.26491,-3.10532 0.81924,-4.29562 0.45977,-0.50479 0.81326,-0.59532 2.32467,-0.59532 h 1.78244 l 0.68498,0.81406 c 1.12068,1.33185 0.86044,3.41928 -0.42627,3.41928 -0.54472,0 -0.65544,-1.0229 -0.20236,-1.86948 0.24018,-0.44878 0.18319,-0.51222 -0.46302,-0.51538 -0.40531,-0.002 -0.9947,-0.0728 -1.30976,-0.15728 -0.936,-0.25108 -1.52086,0.95432 -1.67611,3.45445 -0.11748,1.89186 -0.1928,2.13906 -0.67266,2.20774 l -0.54037,0.0773 z m 0.91645,1.28268 c -0.097,-0.097 -0.17639,-0.0177 -0.17639,0.17638 0,0.19403 0.0794,0.27341 0.17639,0.17639 0.097,-0.097 0.097,-0.25576 0,-0.35277 z m 0.58361,-4.67833 c 0.25266,-0.30403 0.81605,-0.44517 1.85208,-0.46396 l 1.48896,-0.027 -0.84206,-0.27073 c -1.06891,-0.34367 -2.07112,-0.0934 -2.8849,0.72036 -0.66094,0.66094 -0.81726,1.74798 -0.43774,3.04397 0.14922,0.50956 0.22434,0.29092 0.32712,-0.9521 0.0734,-0.88746 0.29682,-1.8102 0.49654,-2.05053 z m -46.796736,0.22653 c -0.145944,-0.38386 -0.265353,-0.86067 -0.265353,-1.05957 0,-1.1454 -4.556871,-2.47489 -7.778461,-2.26939 l -1.031584,0.0658 0.15304,-1.48281 c 0.215667,-2.08964 1.335328,-3.49165 2.986169,-3.73921 1.011706,-0.15171 1.332511,-0.0779 2.172155,0.49965 1.636885,1.12596 3.434432,1.7658 4.960822,1.7658 1.153953,0 1.492972,0.10665 1.819113,0.57228 0.220464,0.31476 0.339252,0.67195 0.263972,0.79375 -0.07528,0.12181 -0.03469,0.22147 0.0902,0.22147 0.571071,0 -0.0834,2.07445 -1.122641,3.55841 -1.276492,1.82272 -1.857205,2.10019 -2.247429,1.07382 z m 2.908658,-3.68629 c -5.3e-4,-0.15647 -0.236919,-0.67144 -0.525278,-1.14438 l -0.52429,-0.8599 h -1.559415 c -1.607484,0 -4.120951,-0.90356 -4.80447,-1.72715 -0.394552,-0.4754 -1.724168,-0.51269 -2.096138,-0.0588 -1.18763,1.44924 -1.541116,2.01323 -1.658318,2.64583 l -0.134806,0.7276 h 0.924992 c 1.053944,0 3.914166,0.43664 5.48392,0.83717 1.311331,0.33459 2.513542,1.42839 2.513542,2.28688 0,0.55022 0.173046,0.42094 1.190625,-0.8895 0.654844,-0.84331 1.190181,-1.66131 1.189636,-1.81777 z m 39.766548,4.02634 c -1.25151,-1.58468 -2.14328,-3.17544 -2.2388,-3.9936 -0.0628,-0.53827 -0.0121,-0.97868 0.11282,-0.97868 0.12489,0 0.16548,-0.0997 0.0902,-0.22147 -0.0753,-0.1218 0.0435,-0.47899 0.26397,-0.79375 0.32614,-0.46563 0.66516,-0.57228 1.81911,-0.57228 1.52639,0 3.32394,-0.63984 4.96083,-1.7658 2.22806,-1.53262 4.83475,0.10445 5.15832,3.23956 l 0.15304,1.48281 -1.03159,-0.0658 c -2.16526,-0.13812 -5.8759,0.58206 -6.97054,1.35286 -0.35601,0.2507 -0.77628,0.91553 -0.93393,1.47742 -0.297,1.05856 -0.91427,1.43279 -1.38343,0.83874 z m 1.42227,-2.62913 c 0.36388,-0.38475 1.15743,-0.82142 1.76345,-0.97038 1.68792,-0.41488 4.49697,-0.84361 5.52743,-0.84361 h 0.925 l -0.13481,-0.7276 c -0.1172,-0.6326 -0.47069,-1.19659 -1.65832,-2.64583 -0.37197,-0.45391 -1.70159,-0.41662 -2.09614,0.0588 -0.68351,0.82359 -3.19698,1.72715 -4.80447,1.72715 h -1.55941 l -0.52429,0.8599 c -0.28836,0.47294 -0.52474,0.98638 -0.52528,1.14096 -5.3e-4,0.15459 0.50503,0.94035 1.12349,1.74612 0.9413,1.22638 1.13892,1.37456 1.21312,0.90955 0.0487,-0.30552 0.38636,-0.87029 0.75023,-1.25504 z M 71.45576,143.0314 c -0.08476,-0.22089 -0.01005,-0.74942 0.166018,-1.1745 0.305393,-0.73729 0.277336,-1.67064 -0.145492,-4.84002 -0.14974,-1.12239 -0.11317,-1.25677 0.342022,-1.25677 0.58928,0 1.416902,0.85679 1.882741,1.94909 0.24888,0.58358 0.255563,1.25439 0.02899,2.90922 -0.161964,1.18292 -0.418443,2.30013 -0.569954,2.48268 -0.383503,0.4621 -1.518058,0.4157 -1.704322,-0.0697 z m 1.60196,-2.51632 c 0.199427,-1.50334 -0.169707,-3.19871 -0.81256,-3.73196 l -0.435861,-0.36155 0.437761,0.84676 c 0.488138,0.9442 0.575908,3.15598 0.181703,4.57894 -0.22097,0.79765 -0.207426,0.86019 0.09885,0.45645 0.195196,-0.25732 0.433745,-1.06221 0.530109,-1.78864 z m 26.150441,2.5994 c -0.517351,-0.62337 -0.918091,-4.54702 -0.552067,-5.40528 0.465839,-1.0923 1.293461,-1.94909 1.882746,-1.94909 0.45696,0 0.49103,0.13001 0.3294,1.25677 -0.1946,1.35668 -0.24497,4.20844 -0.097,5.49011 0.0792,0.68542 -0.002,0.8046 -0.59243,0.87327 -0.376261,0.0437 -0.813067,-0.0759 -0.970684,-0.26578 z m 0.710274,-1.33335 c -0.386049,-1.34608 -0.291233,-3.57877 0.191645,-4.5128 l 0.43776,-0.84676 -0.43586,0.36155 c -0.930733,0.77205 -1.161957,3.91688 -0.396531,5.39314 0.377381,0.72783 0.472141,0.54337 0.202986,-0.39513 z M 62.762946,138.8318 c -2.099114,-0.80596 -3.836458,-2.28955 -3.836458,-3.27612 v -0.62978 l 1.031967,0.0745 c 0.567582,0.041 1.19266,-0.0534 1.389063,-0.20975 0.479478,-0.38167 2.567075,-0.68307 4.987303,-0.72003 l 1.984375,-0.0303 0.08578,0.60471 c 0.09521,0.67119 -0.978845,2.70363 -2.022433,3.82706 -0.538122,0.5793 -0.895,0.72117 -1.750867,0.69604 -0.591238,-0.0174 -1.432165,-0.16871 -1.868728,-0.33633 z m 2.962283,-1.02117 c 0.449421,-0.47294 1.071708,-1.36826 1.382858,-1.98959 0.492196,-0.98286 0.512678,-1.15006 0.157567,-1.28633 -0.224488,-0.0862 -0.793654,-0.0806 -1.264811,0.0124 -0.471154,0.093 -1.479209,0.23987 -2.240119,0.32644 -0.76091,0.0866 -1.519629,0.32147 -1.686044,0.52198 -0.167002,0.20123 -0.788585,0.36458 -1.387303,0.36458 h -1.084733 l 0.521819,0.52164 c 0.544444,0.54427 4.019844,2.38654 4.504809,2.38796 0.153355,5.3e-4 0.646536,-0.38614 1.095957,-0.85908 z m 40.249371,0.66146 c -1.04359,-1.12343 -2.11764,-3.15587 -2.02243,-3.82706 l 0.0858,-0.60471 1.98437,0.0303 c 2.42023,0.037 4.50782,0.33836 4.9873,0.72003 0.1964,0.15634 0.82148,0.25073 1.38907,0.20975 l 1.03196,-0.0745 v 0.62978 c 0,1.46415 -3.47342,3.63004 -5.83747,3.64003 -0.69133,0.003 -1.12291,-0.19002 -1.61858,-0.72362 z m 3.90802,-0.74798 c 1.05347,-0.52053 2.1226,-1.17537 2.37585,-1.4552 l 0.46045,-0.5088 h -1.06694 c -0.58682,0 -1.2031,-0.16406 -1.36952,-0.36457 -0.16641,-0.20052 -0.92513,-0.43541 -1.68604,-0.52199 -0.76091,-0.0866 -1.76897,-0.23347 -2.24012,-0.32643 -0.47116,-0.093 -1.04032,-0.0986 -1.26481,-0.0124 -0.35511,0.13626 -0.33463,0.30346 0.15756,1.28632 0.59978,1.19769 2.02527,2.84949 2.45908,2.84949 0.1425,0 1.12102,-0.42589 2.17449,-0.94641 z m -44.079053,-5.56049 c 0.653698,-0.22759 1.3564,-0.55311 1.561563,-0.72338 0.205163,-0.17027 0.705212,-0.42881 1.111221,-0.57454 0.710107,-0.25488 3.157101,-2.38595 3.598018,-3.13349 0.330055,-0.55958 4.074843,-3.61377 4.430895,-3.61377 0.295257,0 1.107078,-0.39816 4.580079,-2.24634 0.763984,-0.40656 1.389062,-0.88798 1.389062,-1.06983 0,-0.18184 0.314878,-0.40966 0.699728,-0.50625 0.40644,-0.10201 0.600514,-0.27302 0.463021,-0.408 -0.332314,-0.32625 -3.439184,0.30207 -4.872742,0.98543 -0.65164,0.31064 -1.958705,0.81245 -2.904591,1.11514 -0.945885,0.3027 -1.926537,0.66762 -2.179222,0.81094 -0.252688,0.14332 -0.626282,0.26058 -0.830207,0.26058 -0.203928,0 -0.97658,0.41672 -1.717003,0.92604 -0.740426,0.50933 -1.44241,0.92604 -1.559967,0.92604 -0.325004,0 -3.00228,1.70201 -3.900059,2.47935 -0.436563,0.37801 -1.248521,1.03993 -1.80435,1.47094 -1.007163,0.78099 -2.561275,2.70393 -2.561275,3.16913 0,0.64692 2.782191,0.72861 4.495829,0.13201 z m 44.827323,0.26089 c 0.23019,-0.0883 0.41852,-0.26795 0.41852,-0.39916 0,-0.45986 -1.56039,-2.38674 -2.56128,-3.16287 -0.55583,-0.43101 -1.36779,-1.09293 -1.80435,-1.47094 -0.89778,-0.77734 -3.57506,-2.47935 -3.90006,-2.47935 -0.11756,0 -0.81954,-0.41671 -1.55997,-0.92604 -0.74042,-0.50932 -1.513071,-0.92604 -1.716999,-0.92604 -0.203928,0 -0.577519,-0.11726 -0.830207,-0.26058 -0.252688,-0.14332 -1.233337,-0.50824 -2.179222,-0.81094 -0.945886,-0.30269 -2.252951,-0.8045 -2.904591,-1.11514 -1.433557,-0.68336 -4.540427,-1.31168 -4.872741,-0.98543 -0.137493,0.13498 0.05658,0.30599 0.463021,0.408 0.38485,0.0966 0.699728,0.32441 0.699728,0.50625 0,0.18185 0.625078,0.66327 1.389062,1.06983 3.472998,1.84818 4.284821,2.24634 4.580075,2.24634 0.356055,0 4.100841,3.05419 4.430894,3.61377 0.44092,0.74754 2.88792,2.87861 3.59802,3.13349 0.40601,0.14573 0.91198,0.40919 1.12438,0.58547 1.02099,0.84734 4.42107,1.43561 5.62572,0.97334 z"
       id="path3923"
       inkscape:connector-curvature="0" />
  </g>
</svg>
