<?xml version="1.0" encoding="UTF-8" standalone="no"?>
<!-- Created with Inkscape (http://www.inkscape.org/) -->

<svg
   xmlns:dc="http://purl.org/dc/elements/1.1/"
   xmlns:cc="http://creativecommons.org/ns#"
   xmlns:rdf="http://www.w3.org/1999/02/22-rdf-syntax-ns#"
   xmlns:svg="http://www.w3.org/2000/svg"
   xmlns="http://www.w3.org/2000/svg"
   xmlns:sodipodi="http://sodipodi.sourceforge.net/DTD/sodipodi-0.dtd"
   xmlns:inkscape="http://www.inkscape.org/namespaces/inkscape"
   width="68.791664mm"
   height="63.235416mm"
   viewBox="0 0 68.791664 63.235416"
   version="1.1"
   id="svg3810"
   inkscape:version="0.92.2 5c3e80d, 2017-08-06"
   sodipodi:docname="logo-new.svg">
  <defs
     id="defs3804" />
  <sodipodi:namedview
     id="base"
     pagecolor="#ffffff"
     bordercolor="#666666"
     borderopacity="1.0"
     inkscape:pageopacity="0"
     inkscape:pageshadow="2"
     inkscape:zoom="0.35"
     inkscape:cx="278.57143"
     inkscape:cy="36.642856"
     inkscape:document-units="mm"
     inkscape:current-layer="layer1"
     showgrid="false"
     fit-margin-top="0"
     fit-margin-left="0"
     fit-margin-right="0"
     fit-margin-bottom="0"
     inkscape:pagecheckerboard="true"
     showborder="false"
     inkscape:window-width="1918"
     inkscape:window-height="718"
     inkscape:window-x="1920"
     inkscape:window-y="720"
     inkscape:window-maximized="0" />
  <metadata
     id="metadata3807">
    <rdf:RDF>
      <cc:Work
         rdf:about="">
        <dc:format>image/svg+xml</dc:format>
        <dc:type
           rdf:resource="http://purl.org/dc/dcmitype/StillImage" />
        <dc:title></dc:title>
      </cc:Work>
    </rdf:RDF>
  </metadata>
  <g
     inkscape:label="Layer 1"
     inkscape:groupmode="layer"
     id="layer1"
     transform="translate(-32.127977,-95.293007)">
    <g
       id="g3962"
       transform="matrix(0.26458333,0,0,0.26458333,14.138983,77.656842)">
      <path
         style="fill:#aeaeae"
         d="M 177.58939,302.14707 C 147.39711,297.2217 122.54146,284.67062 102.4899,264.22495 59.690084,220.58389 58.193172,156.0629 98.909921,109.91809 122.54755,83.129267 159.34057,67.305057 197.9899,67.305057 c 33.05354,0 61.77418,10.23903 87.05223,31.034488 29.02344,23.876675 45.24784,63.001535 40.95847,98.770605 -6.11758,51.01449 -45.66696,92.07535 -99.76682,103.57967 -12.95819,2.75556 -36.38401,3.45733 -48.64439,1.45725 z m 47.90051,-5.96176 c 37.99215,-8.51144 69.11301,-31.70688 85.23555,-63.52894 C 337.61372,179.5853 314.43337,114.73015 258.34791,86.111889 194.7738,53.672455 115.11199,77.945494 84.993661,138.93311 c -16.812269,34.04373 -14.00926,73.64446 7.518668,106.22326 5.462253,8.26618 18.454321,21.68146 27.602311,28.50146 14.75043,10.99672 36.21276,20.15052 53.87526,22.97809 4.125,0.66037 8.175,1.36259 9,1.56048 3.92547,0.9416 36.12041,-0.58186 42.5,-2.01109 z m -45,-5.18278 c -4.95,-1.34213 -11.25,-3.5043 -14,-4.80482 -2.75,-1.30053 -5.7875,-2.61524 -6.75,-2.92158 -4.35071,-1.38474 -0.38042,-4.80462 6.60399,-5.68847 2.83031,-0.35816 7.17101,-1.37616 9.64601,-2.26222 2.475,-0.88606 5.78667,-1.86999 7.35927,-2.18652 1.68151,-0.33845 5.00054,-2.82187 8.05765,-6.02903 2.85911,-2.99943 5.82149,-5.45352 6.58308,-5.45352 0.76159,0 3.72397,2.45409 6.58308,5.45352 3.05711,3.20716 6.37614,5.69058 8.05765,6.02903 1.5726,0.31653 4.88427,1.30046 7.35927,2.18652 2.475,0.88606 6.8157,1.90406 9.64601,2.26222 6.98441,0.88385 10.9547,4.30373 6.60399,5.68847 -0.9625,0.30634 -4,1.61812 -6.75,2.91505 -2.75,1.29694 -9.38548,3.50717 -14.74551,4.91163 -12.46152,3.26522 -21.94432,3.23746 -34.25449,-0.10028 z m -33.5,-19.53915 c -6.41076,-2.24589 -8.52485,-3.99689 -7.63271,-6.32178 0.53597,-1.3967 1.58074,-1.5697 6.38675,-1.05756 17.00978,1.81262 16.8495,1.81524 21.08393,-0.34501 2.2453,-1.14546 4.78852,-2.08266 5.65161,-2.08266 2.15691,0 11.29449,-7.36677 14.67718,-11.83283 2.0488,-2.70496 2.7849,-4.82927 2.80542,-8.09617 0.0153,-2.43595 0.54236,-5.85193 1.17123,-7.59105 0.93699,-2.59118 0.81994,-4.00906 -0.64833,-7.85366 -0.98546,-2.58038 -2.15897,-4.91856 -2.60781,-5.19596 -0.44883,-0.2774 -1.9611,1.6498 -3.36059,4.28266 -1.39949,2.63285 -2.91984,5.46201 -3.37857,6.28701 -0.45872,0.825 -1.90565,3.75 -3.2154,6.5 -5.62208,11.80437 -8.73077,15.53387 -15.51055,18.60796 -5.39857,2.44783 -7.65834,2.89204 -14.71237,2.89204 -6.15196,0 -9.36754,-0.49929 -12.28092,-1.90688 -4.98419,-2.4081 -15.00679,-12.83869 -17.06129,-17.7558 -0.85867,-2.05508 -3.49494,-7.84733 -5.85839,-12.87168 -4.87056,-10.35408 -6.81274,-11.80322 -15.112991,-11.2764 l -4.8962,0.31076 0.08372,3 c 0.04604,1.65 0.430232,3.78371 0.853754,4.74157 0.538999,1.21903 0.241572,1.94436 -0.991297,2.41746 -4.257695,1.63383 -8.272322,-8.37832 -5.46376,-13.62617 1.227335,-2.29329 11.075656,-5.48609 14.370964,-4.65902 1.34976,0.33877 4.74362,2.4257 7.54192,4.63763 5.51527,4.35957 8.98239,10.16569 12.53538,20.99204 2.3528,7.16924 7.40603,14.61777 12.1312,17.88157 2.4075,1.66292 4.56622,2.11492 10.10077,2.11492 10.00463,0 14.56988,-1.8617 22.48486,-9.16926 5.7199,-5.28093 10.21086,-19.40649 7.67674,-24.14588 l -1.32425,-2.47666 -5,2.50781 c -14.45383,7.24948 -27.15055,6.47555 -35.80884,-2.18274 -4.68583,-4.68583 -6.8457,-9.06915 -8.74238,-17.7421 -1.08057,-4.94112 -1.01881,-6.43893 0.45921,-11.13796 2.07991,-6.61257 3.84963,-9.23006 5.53592,-8.18787 0.83817,0.51801 1.03244,1.96224 0.59226,4.40277 -1.82651,10.12677 -1.76457,14.54964 0.26059,18.6079 1.10443,2.21319 2.48836,5.25279 3.0754,6.75465 1.48524,3.79982 8.50939,6.93182 15.84662,7.06584 4.3633,0.0797 7.30115,-0.58454 11.97835,-2.70828 9.5285,-4.32654 9.51314,-4.29446 10.40607,-21.73742 0.42595,-8.32065 1.19811,-15.55211 1.71592,-16.06992 0.58863,-0.58863 2.68594,-0.34921 5.59612,0.63882 6.40742,2.17538 6.89455,1.9101 1.58476,-0.86303 -6.49625,-3.39277 -10.36481,-7.23251 -9.41473,-9.34459 0.42358,-0.94164 1.12022,-5.08708 1.54808,-9.21208 1.24204,-11.97439 3.97883,-27.54396 5.75674,-32.75 0.61045,-1.7875 1.54541,-4.7125 2.07768,-6.5 l 0.96778,-3.25 -1.54754,2 c -2.62291,3.38978 -6.67663,11.81806 -7.45497,15.5 -0.40693,1.925 -1.45834,6.10946 -2.33646,9.29879 -0.87812,3.18934 -1.60313,7.91434 -1.61113,10.5 -0.0172,5.57182 -2.42891,13.19512 -4.72987,14.95121 -2.2721,1.73407 -6.75039,1.56365 -8.31057,-0.31626 -1.76319,-2.12451 -1.79942,-15.72215 -0.0571,-21.43648 5.05312,-16.57299 13.26738,-29.17278 28.73988,-44.08382 9.81187,-9.455821 12.61669,-11.319883 15.82222,-10.515345 3.11821,0.782619 19.14059,15.959495 26.26554,24.879495 6.47618,8.10777 12.14122,19.04288 15.39658,29.71967 1.7423,5.71433 1.70607,19.31197 -0.0571,21.43648 -1.56018,1.87991 -6.03847,2.05033 -8.31057,0.31626 -2.30096,-1.75609 -4.71262,-9.37939 -4.72987,-14.95121 -0.008,-2.58566 -0.73301,-7.31066 -1.61113,-10.5 -0.87814,-3.18933 -1.92955,-7.37379 -2.33648,-9.29879 -0.77834,-3.68194 -4.83206,-12.11023 -7.45497,-15.5 l -1.54754,-2 0.96778,3.25 c 0.53227,1.7875 1.46723,4.7125 2.07768,6.5 1.77791,5.20604 4.5147,20.77561 5.75674,32.75 0.42786,4.125 1.1245,8.27044 1.54808,9.21208 0.95008,2.11208 -2.91848,5.95182 -9.41473,9.34459 -5.30979,2.77313 -4.82266,3.03841 1.58476,0.86303 2.91018,-0.98803 5.00749,-1.22745 5.59612,-0.63882 0.51781,0.51781 1.28997,7.74927 1.71592,16.06992 0.89293,17.44296 0.87757,17.41088 10.40607,21.73742 4.6772,2.12374 7.61505,2.78798 11.97835,2.70828 7.33723,-0.13402 14.36138,-3.26602 15.84662,-7.06584 0.58703,-1.50186 1.97096,-4.54146 3.0754,-6.75465 2.02516,-4.05826 2.0871,-8.48113 0.26059,-18.6079 -0.44019,-2.44053 -0.24591,-3.88476 0.59226,-4.40277 1.68629,-1.04219 3.45601,1.5753 5.53592,8.18787 1.47802,4.69903 1.53978,6.19684 0.45921,11.13796 -1.89668,8.67295 -4.05655,13.05627 -8.74238,17.7421 -8.65829,8.65829 -21.35501,9.43222 -35.80884,2.18274 l -5,-2.50781 -1.32425,2.47666 c -2.53412,4.73939 1.95684,18.86495 7.67674,24.14588 7.91498,7.30756 12.48023,9.16926 22.48485,9.16926 5.53456,0 7.69328,-0.452 10.10078,-2.11492 4.72518,-3.2638 9.7784,-10.71233 12.1312,-17.88157 3.55299,-10.82635 7.02011,-16.63247 12.53538,-20.99204 2.7983,-2.21193 6.19217,-4.29886 7.54192,-4.63763 3.29531,-0.82707 13.14363,2.36573 14.37097,4.65902 2.80856,5.24785 -1.20607,15.26 -5.46376,13.62617 -1.23287,-0.4731 -1.5303,-1.19843 -0.9913,-2.41746 0.42352,-0.95786 0.80771,-3.09157 0.85376,-4.74157 l 0.0837,-3 -4.8962,-0.31076 c -8.30025,-0.52682 -10.24243,0.92232 -15.11299,11.2764 -2.36345,5.02435 -4.99973,10.8166 -5.85839,12.87168 -2.0545,4.91711 -12.0771,15.3477 -17.06129,17.7558 -2.91338,1.40759 -6.12896,1.90688 -12.28092,1.90688 -7.05403,0 -9.3138,-0.44421 -14.71238,-2.89204 -6.77977,-3.07409 -9.88846,-6.80359 -15.51054,-18.60796 -1.30975,-2.75 -2.75668,-5.675 -3.2154,-6.5 -0.45873,-0.825 -1.97908,-3.65416 -3.37857,-6.28701 -1.39949,-2.63286 -2.91176,-4.56006 -3.36059,-4.28266 -0.44884,0.2774 -1.62235,2.61558 -2.60781,5.19596 -1.46827,3.8446 -1.58532,5.26248 -0.64833,7.85366 0.62887,1.73912 1.15593,5.1551 1.17123,7.59105 0.0205,3.2669 0.75662,5.39121 2.80542,8.09617 3.38269,4.46606 12.52027,11.83283 14.67718,11.83283 0.86309,0 3.40631,0.9372 5.65161,2.08266 4.23443,2.16025 4.07415,2.15763 21.08393,0.34501 4.80601,-0.51214 5.85078,-0.33914 6.38674,1.05756 0.91871,2.3941 -1.26425,4.07777 -8.35115,6.44107 -10.95376,3.6528 -17.53771,2.81514 -30.73207,-3.90999 -6.65335,-3.39119 -9.4788,-6.08874 -17.29948,-16.51631 l -2.25,-3 -2.25,3 c -7.82068,10.42757 -10.64613,13.12512 -17.29948,16.51631 -3.82279,1.94846 -8.55747,4.09189 -10.52152,4.76317 -5.04967,1.72591 -14.477,1.28787 -20.92899,-0.97247 z m 33.84378,-70.27609 c 0.18908,-0.95885 -0.12935,-2.21649 -0.70762,-2.79476 -1.511,-1.511 -4.13616,0.93511 -4.13616,3.85406 0,2.01164 0.32013,2.22715 2.25,1.5147 1.2375,-0.45685 2.4047,-1.61515 2.59378,-2.574 z m 37.8385,-2.27721 c -0.8197,-0.8197 -1.98354,-1.18556 -2.58632,-0.81302 -1.92065,1.18703 -1.2037,4.58339 1.15404,5.4669 1.82703,0.68463 2.31322,0.46653 2.58632,-1.16019 0.18498,-1.10183 -0.33434,-2.67399 -1.15404,-3.49369 z M 201.5399,183.75343 c 0.5225,-0.49661 1.85,-1.10132 2.95,-1.3438 1.1,-0.24248 -1.825,-0.44087 -6.5,-0.44087 -4.675,0 -7.6,0.19839 -6.5,0.44087 1.1,0.24248 2.4275,0.84719 2.95,1.3438 1.2279,1.16708 5.8721,1.16708 7.1,0 z m -85.22052,75.17807 c -3.39378,-3.17632 -7.44378,-6.92786 -9,-8.33674 -3.73907,-3.38509 -10.329481,-12.64926 -10.329481,-14.52019 0,-0.81453 0.7875,-1.7247 1.75,-2.02259 0.9625,-0.29789 3.260241,-1.19925 5.106081,-2.00302 4.38198,-1.90813 5.19705,-1.18914 10.22657,9.02108 2.19081,4.44748 5.77752,10.56133 7.97046,13.58633 4.00234,5.52091 4.74246,9.23311 1.94689,9.76492 -0.825,0.15694 -4.27673,-2.31346 -7.67052,-5.48979 z m 154.33719,5.0582 c -1.43175,-1.43174 -0.5038,-4.05466 3.30201,-9.33333 2.18096,-3.025 5.75786,-9.13885 7.94867,-13.58633 5.02952,-10.21022 5.84459,-10.92921 10.22657,-9.02108 1.84584,0.80377 4.14358,1.70513 5.10608,2.00302 0.9625,0.29789 1.75,1.20806 1.75,2.02259 0,1.87093 -6.59041,11.1351 -10.32948,14.52019 -1.55622,1.40888 -5.59426,5.14911 -8.97343,8.31161 -5.9349,5.55436 -7.61414,6.49962 -9.03042,5.08333 z M 137.35683,244.21754 c -6.54837,-4.40993 -11.29856,-9.9995 -15.83603,-18.63433 -2.95404,-5.62154 -3.42189,-7.26201 -2.54066,-8.9086 1.63595,-3.0568 3.57065,-2.46585 8.25026,2.52003 8.83798,9.41641 20.39582,13.11983 30.62992,9.81459 6.1544,-1.98766 8.12958,-0.92173 8.12958,4.38723 0,2.71656 -0.85045,4.34565 -3.8175,7.3127 -2.09962,2.09962 -5.13712,4.08729 -6.75,4.41704 -1.61287,0.32974 -4.31445,1.03393 -6.0035,1.56485 -4.892,1.53772 -6.63713,1.17985 -12.06207,-2.47351 z m 108.63307,2.3693 c -1.375,-0.47122 -3.81963,-1.12754 -5.4325,-1.45848 -1.61288,-0.33094 -4.65038,-2.31958 -6.75,-4.4192 -2.96705,-2.96705 -3.8175,-4.59614 -3.8175,-7.3127 0,-5.30896 1.97517,-6.37489 8.12958,-4.38723 10.2341,3.30524 21.79194,-0.39818 30.62992,-9.81459 4.67961,-4.98588 6.61431,-5.57683 8.25026,-2.52003 0.88183,1.64771 0.40659,3.29999 -2.58859,8.99983 -4.49311,8.55039 -9.83534,14.75581 -16.24315,18.8677 -4.9052,3.14765 -7.62646,3.60455 -12.17802,2.0447 z M 79.008422,203.69098 c -1.508393,-2.81846 -1.673945,-17.77919 -0.212908,-19.24022 0.908266,-0.90827 1.818151,-0.60244 3.937792,1.32355 3.782781,3.4372 7.55459,4.88206 12.744629,4.88206 4.679705,0 5.300545,0.51561 7.220995,5.99716 1.66034,4.73908 0.66287,5.51397 -9.569499,7.43403 -10.862251,2.03826 -12.847765,1.9825 -14.121009,-0.39658 z m 222.981478,0.31236 c -9.34176,-1.82135 -10.34832,-2.67081 -8.70903,-7.34981 1.92045,-5.48155 2.54129,-5.99716 7.22099,-5.99716 5.19004,0 8.96185,-1.44486 12.74463,-4.88206 4.04149,-3.67227 5.15619,-1.89147 4.94786,7.90446 -0.2735,12.8603 -0.95885,13.29697 -16.20445,10.32457 z m -141,-0.23034 c 0,-0.48585 -0.90298,-1.1195 -2.00662,-1.40811 -1.25542,-0.3283 -2.23812,-1.68223 -2.625,-3.61663 -0.39893,-1.99463 -1.21912,-3.09189 -2.31115,-3.09189 -0.93102,0 -5.05497,-2.67477 -9.16434,-5.94394 -6.03163,-4.79842 -7.97991,-7.0629 -10.10925,-11.75 -3.07569,-6.77018 -5.42022,-20.06948 -3.82012,-21.66958 0.57006,-0.57006 1.03648,-3.72703 1.03648,-7.01548 0,-8.52169 3.90752,-19.96455 9.35962,-27.40889 6.88394,-9.39938 10.8542,-14.21211 11.7243,-14.21211 0.50258,0 2.71969,-1.75257 4.9269,-3.89459 2.20722,-2.14203 5.20972,-4.194928 6.67223,-4.561994 1.46251,-0.367067 3.76781,-1.539498 5.12289,-2.605404 1.35508,-1.065905 3.27757,-1.93801 4.27221,-1.93801 0.99465,0 2.39646,-0.812909 3.11515,-1.806465 1.51159,-2.089712 16.27397,-7.193535 20.8067,-7.193535 4.53273,0 19.29511,5.103823 20.8067,7.193535 0.71869,0.993556 2.1205,1.806465 3.11515,1.806465 0.99464,0 2.91713,0.872105 4.27221,1.93801 1.35508,1.065906 3.66038,2.238337 5.12289,2.605404 1.46251,0.367066 4.46501,2.419964 6.67222,4.561994 2.20722,2.14202 4.42432,3.89459 4.92691,3.89459 0.87009,0 4.84036,4.81273 11.7243,14.21211 5.4521,7.44434 9.35962,18.8872 9.35962,27.40889 0,3.28845 0.46642,6.44542 1.03648,7.01548 1.60009,1.6001 -0.74443,14.8994 -3.82012,21.66958 -2.12934,4.6871 -4.07762,6.95158 -10.10925,11.75 -4.10937,3.26917 -8.23332,5.94394 -9.16434,5.94394 -1.08379,0 -1.91032,1.08775 -2.29749,3.0236 -0.3326,1.66298 -1.40135,3.31766 -2.375,3.67706 -0.97365,0.3594 -2.09151,1.13628 -2.48412,1.7264 -1.5688,2.35801 -3.56031,-2.27109 -4.70097,-10.92706 -0.6523,-4.95 -1.43407,-10.61395 -1.73727,-12.58656 l -0.55127,-3.58657 3.14086,-1.30098 c 2.80136,-1.16037 3.29531,-1.09697 4.56987,0.58656 0.78596,1.03815 1.44332,2.25384 1.46082,2.70152 0.0175,0.44768 1.44534,0.67268 3.17299,0.5 2.68037,-0.26791 3.37721,0.15949 4.75,2.91332 0.88485,1.77501 2.02345,3.23751 2.53023,3.25 2.24371,0.0553 9.4554,-9.08793 11.14166,-14.12579 2.57125,-7.68184 2.24881,-25.33974 -0.56338,-30.85208 -1.09983,-2.15586 -1.9997,-4.68563 -1.9997,-5.62172 0,-2.08513 -4.05462,-9.24481 -8.86317,-15.65066 -3.19531,-4.25672 -9.57853,-9.01543 -29.13683,-21.721562 -2.33892,-1.519487 -9.2495,-4.311595 -16.75,-6.767565 -2.29734,-0.752244 -4.20266,-0.752244 -6.5,0 -7.5005,2.45597 -14.41108,5.248078 -16.75,6.767565 -19.5583,12.706132 -25.94152,17.464842 -29.13683,21.721562 -4.80855,6.40585 -8.86317,13.56553 -8.86317,15.65066 0,0.93609 -0.89987,3.46586 -1.9997,5.62172 -2.81219,5.51233 -3.13463,23.17024 -0.56338,30.85208 1.68626,5.03786 8.89795,14.18109 11.14166,14.12579 0.50678,-0.0125 1.64538,-1.47499 2.53023,-3.25 1.37278,-2.75383 2.06963,-3.18123 4.75,-2.91332 1.72765,0.17268 3.1555,-0.0523 3.17299,-0.5 0.0175,-0.44768 0.67486,-1.66337 1.46082,-2.70152 1.27456,-1.68353 1.76851,-1.74693 4.56987,-0.58656 l 3.14086,1.30098 -0.55127,3.58657 c -0.3032,1.97261 -1.09069,7.63656 -1.74999,12.58656 -0.65929,4.95 -1.63708,9.5625 -2.17285,10.25 -1.12555,1.4443 -2.72924,1.65973 -2.72924,0.36663 z m -55.7875,-6.30413 c -0.7271,-0.7271 -1.2125,-4.11606 -1.2125,-8.46545 0,-3.98912 -0.51857,-8.39109 -1.15239,-9.78215 l -1.15238,-2.52921 -5.929542,0.16342 -5.929542,0.16342 0.501193,2.06873 c 0.275656,1.13781 0.815007,3.08124 1.198558,4.31874 0.569062,1.83604 0.314415,2.25 -1.384083,2.25 -5.070967,0 -5.072001,-8.20648 -0.0016,-12.47297 4.09107,-3.44241 11.772946,-3.58527 14.895656,-0.27703 3.89538,4.12681 5.17613,7.67974 4.55131,12.62572 -0.3213,2.54336 -0.69961,6.38516 -0.84069,8.53735 -0.2725,4.15687 -1.55572,5.38773 -3.54402,3.39943 z m 182.34039,0.27307 c -0.31083,-0.50293 -0.5549,-2.41543 -0.54238,-4.25 0.0125,-1.83456 -0.25053,-5.41649 -0.58457,-7.95985 -0.65028,-4.95129 0.61548,-8.48057 4.52816,-12.62572 3.12271,-3.30824 10.80459,-3.16538 14.89566,0.27703 5.07043,4.26649 5.06939,12.47297 -0.002,12.47297 -1.69849,0 -1.95314,-0.41396 -1.38408,-2.25 0.38355,-1.2375 0.9229,-3.18093 1.19856,-4.31874 l 0.50119,-2.06873 -5.92954,-0.16342 -5.92954,-0.16342 -1.15239,2.52921 c -0.63339,1.39106 -1.15196,5.79303 -1.15196,9.78215 0,4.30785 -0.48727,7.74022 -1.2,8.45295 -1.43458,1.43458 -2.48016,1.52653 -3.24711,0.28557 z M 116.02337,176.39366 c -1.84922,-4.99438 -2.50188,-6.00207 -5.1108,-7.89099 -2.56432,-1.85662 -16.029991,-4.22882 -24.422671,-4.30244 l -5,-0.0439 0.325031,-4.98735 c 0.178767,-2.74304 0.976091,-5.66804 1.771831,-6.5 0.795739,-0.83195 2.321324,-2.68873 3.390188,-4.12616 2.840845,-3.82043 8.475061,-4.51903 12.459227,-1.54484 5.812664,4.33916 12.228714,6.65835 18.420384,6.65835 6.96485,0 7.9773,0.88689 8.78353,7.69425 l 0.58105,4.90601 -4.28676,6.24662 c -2.35771,3.43564 -4.60751,6.44486 -4.99956,6.68716 -0.39204,0.2423 -1.2522,-1.01624 -1.91145,-2.79675 z m 161.31395,2.11874 c -0.59041,-0.74582 -2.76421,-3.7909 -4.83069,-6.76685 l -3.75722,-5.41081 0.58567,-4.94506 c 0.81115,-6.84886 1.81624,-7.73331 8.78816,-7.73331 6.19167,0 12.60772,-2.31919 18.42038,-6.65835 3.98417,-2.97419 9.61839,-2.27559 12.45923,1.54484 1.06886,1.43743 2.59445,3.29421 3.39019,4.12616 0.79574,0.83196 1.59306,3.75696 1.77183,6.5 l 0.32503,4.98735 -5,0.0439 c -8.39268,0.0736 -21.85835,2.44582 -24.42267,4.30244 -2.51115,1.81813 -2.89435,2.40301 -5.24776,8.00973 -1.1147,2.65563 -1.63272,3.07302 -2.48215,2 z m -133.8625,-13.88043 c -0.34821,-0.56342 -0.31259,-2.47592 0.0792,-4.25 1.31235,-5.94312 1.23247,-13.18751 -0.17559,-15.92594 -3.14278,-6.11211 -0.82732,-9.55233 3.58443,-5.3256 3.53287,3.3847 4.04136,6.04432 3.05045,15.95505 -0.58533,5.85424 -1.26548,8.27476 -2.5992,9.25 -2.17182,1.58807 -3.09793,1.65778 -3.93925,0.29649 z m 105.10935,-0.28301 c -1.35541,-0.9911 -2.02881,-3.37416 -2.61764,-9.26348 -0.99091,-9.91074 -0.48242,-12.57035 3.05045,-15.95505 4.41962,-4.23427 6.73188,-0.77618 3.56974,5.33871 -0.94051,1.81875 -1.24733,4.6875 -0.93052,8.70034 0.85831,10.8716 0.84271,11.78853 -0.20674,12.15275 -0.57224,0.19861 -1.86162,-0.23937 -2.86529,-0.97327 z M 111.9899,148.74516 c -0.825,-0.43647 -3.65717,-1.87251 -6.29371,-3.19119 -10.030363,-5.01675 -14.270325,-12.9764 -6.095349,-11.44276 2.517099,0.47221 4.082759,0.23683 5.239439,-0.78768 1.58586,-1.40467 4.54826,-1.95196 17.69149,-3.26846 8.51788,-0.85319 9.62701,0.63333 5.82545,7.80762 -5.38612,10.16464 -10.85331,13.79973 -16.36732,10.88247 z m 161.46887,-2.34944 c -1.66712,-1.78164 -4.29341,-5.62151 -5.83619,-8.53303 -3.80156,-7.17429 -2.69243,-8.66081 5.82545,-7.80762 13.14323,1.3165 16.10562,1.86379 17.69149,3.26846 1.15668,1.02451 2.72234,1.25989 5.23944,0.78768 8.17473,-1.53359 3.93562,6.42494 -6.09536,11.44346 -2.63653,1.31907 -5.57509,2.78157 -6.53013,3.25 -3.56199,1.74712 -7.20301,0.89512 -10.2947,-2.40895 z M 102.55442,125.32721 c -1.56143,-1.14175 -1.63981,-1.66164 -0.55586,-3.68702 2.04316,-3.81767 6.40492,-8.48513 15.55414,-16.64425 3.60877,-3.21824 14.21144,-10.339568 15.39418,-10.339568 0.6265,0 3.47998,-1.47505 6.34106,-3.277888 5.39157,-3.397371 11.38095,-6.154057 15.70196,-7.227027 1.375,-0.341432 3.4,-0.998747 4.5,-1.460698 13.01064,-5.463892 27.06671,-9.038245 29.53755,-7.51118 1.4768,0.912713 1.1427,3.470394 -0.53755,4.115167 -0.825,0.316582 -1.5,1.216582 -1.5,2 0,0.783417 -0.7875,1.683961 -1.75,2.001208 -4.40801,1.452913 -9.98148,4.331946 -11.17865,5.774447 -0.72393,0.872284 -2.10604,1.585971 -3.07135,1.585971 -0.96531,0 -2.31263,0.67177 -2.99404,1.492823 -0.68142,0.821053 -2.87402,1.935045 -4.87245,2.475539 -2.43852,0.659519 -6.429,3.681775 -12.13351,9.189496 -4.675,4.51374 -7.6,7.56224 -6.5,6.77447 l 2,-1.43233 -1.36331,1.73899 c -0.74982,0.95645 -1.70255,1.52932 -2.11719,1.27306 -0.41464,-0.25625 -2.58735,1.5487 -4.82826,4.01102 -2.2409,2.46231 -4.94557,4.47693 -6.01036,4.47693 -1.0648,0 -2.45772,0.62864 -3.09538,1.39698 -3.24714,3.91256 -22.41208,6.27836 -26.52098,3.27386 z m 169.96175,-0.33489 c -2.18555,-0.787 -4.69598,-2.08455 -5.57874,-2.88343 -0.88276,-0.79889 -2.38337,-1.45252 -3.3347,-1.45252 -0.95134,0 -3.56317,-2.01462 -5.80407,-4.47693 -2.24091,-2.46232 -4.41362,-4.26727 -4.82826,-4.01102 -0.41464,0.25626 -1.36737,-0.31661 -2.11719,-1.27306 l -1.36331,-1.73899 2,1.43233 c 1.1,0.78777 -1.825,-2.26073 -6.5,-6.77447 -5.70451,-5.507721 -9.69499,-8.529977 -12.13351,-9.189496 -1.99843,-0.540494 -4.19103,-1.654486 -4.87245,-2.475539 -0.68141,-0.821053 -2.02873,-1.492823 -2.99404,-1.492823 -0.96531,0 -2.34742,-0.713687 -3.07135,-1.585971 -1.19717,-1.442501 -6.77064,-4.321534 -11.17865,-5.774447 -0.9625,-0.317247 -1.75,-1.217791 -1.75,-2.001208 0,-0.783418 -0.675,-1.683418 -1.5,-2 -1.68025,-0.644773 -2.01435,-3.202454 -0.53755,-4.115167 2.47084,-1.527065 16.52691,2.047288 29.53755,7.51118 1.1,0.461951 3.125,1.119266 4.5,1.460698 4.32101,1.07297 10.31038,3.829656 15.70196,7.227027 2.86108,1.802838 5.71456,3.277888 6.34106,3.277888 1.18274,0 11.78541,7.121328 15.39418,10.339568 9.14922,8.15912 13.51098,12.82658 15.55414,16.64425 1.08395,2.02538 1.00557,2.54527 -0.55586,3.68702 -2.40963,1.76196 -15.67622,1.54949 -20.90921,-0.33489 z"
         id="path3966"
         inkscape:connector-curvature="0" />
      <path
         style="fill:#0f0f0f"
         d="m 174.37209,301.18846 c -28.17748,-5.36182 -50.04332,-16.40774 -69.21586,-34.9656 -23.030645,-22.29228 -35.166331,-50.01801 -35.166331,-80.34258 0,-56.27874 40.421911,-102.621931 101.052581,-115.855456 11.97883,-2.614554 41.91601,-2.614554 53.89484,0 46.49202,10.147559 81.66025,39.821106 95.56218,80.631546 7.82822,22.98048 7.20844,51.45614 -1.60617,73.79443 -15.17413,38.45483 -48.45607,65.768 -92.40343,75.83184 -9.59781,2.19788 -42.33745,2.7669 -52.11781,0.90582 z m 47.78101,-4.00075 c 61.52923,-10.73386 105.63317,-64.58002 99.76149,-121.79801 -4.61599,-44.98172 -36.47196,-82.571428 -82.78275,-97.682783 -25.08489,-8.185275 -57.19899,-8.185275 -82.28388,0 -65.365763,21.329051 -99.428486,87.114343 -75.845669,146.480653 16.414719,41.32166 56.085329,69.4657 105.487609,74.83745 6.91935,0.75237 26.6433,-0.26377 35.6632,-1.83731 z m -40.6632,-7.18387 c -4.95,-1.34141 -11.29485,-3.54335 -14.09967,-4.8932 -2.80482,-1.34985 -5.61732,-2.45427 -6.25,-2.45427 -0.63268,0 -1.15033,-0.43417 -1.15033,-0.96482 0,-1.55285 3.59027,-3.03518 7.35135,-3.03518 1.91556,0 5.58245,-0.9 8.14865,-2 2.5662,-1.1 5.77286,-2 7.12593,-2 1.66514,0 4.42319,-1.93886 8.53507,-6 3.34123,-3.3 6.41878,-6 6.839,-6 0.42022,0 3.49777,2.7 6.839,6 4.11188,4.06114 6.86993,6 8.53507,6 1.35307,0 4.55973,0.9 7.12593,2 2.5662,1.1 6.23309,2 8.14865,2 3.76108,0 7.35135,1.48233 7.35135,3.03518 0,0.53065 -0.51765,0.96482 -1.15033,0.96482 -0.63268,0 -3.44518,1.1015 -6.25,2.44779 -8.05078,3.86429 -23.64022,7.56724 -31.34518,7.4454 -3.71497,-0.0587 -10.80449,-1.20432 -15.75449,-2.54572 z m -33.5,-19.54046 c -6.65078,-2.32998 -9.22042,-4.40146 -6.67271,-5.37911 0.9253,-0.35507 3.36769,-0.33813 5.42754,0.0376 9.88441,1.80319 16.96041,1.71984 20.88279,-0.24599 2.12431,-1.06466 4.98823,-2.20516 6.36427,-2.53443 2.81885,-0.67453 13.39518,-9.72781 15.21983,-13.0281 0.65591,-1.18636 1.53441,-4.63202 1.95224,-7.65702 0.41782,-3.025 1.03392,-7.075 1.36911,-9 0.64469,-3.70241 -2.54571,-13 -4.46085,-13 -0.54387,0 -1.70004,1.0125 -2.56927,2.25 -3.82606,5.44707 -6.51295,9.91396 -6.51295,10.82765 0,1.5164 -4.91253,10.90234 -8.26706,15.79516 -4.42696,6.45703 -13.00381,10.1428 -23.46098,10.082 -9.57784,-0.0557 -13.88154,-2.09413 -21.02317,-9.95763 -3.53163,-3.88861 -6.51908,-8.87544 -10.18413,-17 -6.59148,-14.61173 -8.97139,-16.99714 -16.957993,-16.99714 -7.233437,0 -8.614122,1.29539 -7.733133,7.25542 l 0.627418,4.24458 -2.500476,-2.80576 c -4.871663,-5.46645 -2.935206,-10.74228 4.840592,-13.18807 l 5.376244,-1.69103 3.891348,2.0048 c 7.40758,3.81636 13.22496,12.12999 16.71197,23.88311 1.69475,5.71224 7.87891,14.58969 12.58944,18.07234 2.54784,1.8837 4.29491,2.22461 11.4005,2.22461 7.08727,0 9.15298,-0.40094 13.29049,-2.57957 10.00631,-5.26891 16.31025,-13.97771 17.92831,-24.76772 0.7059,-4.70725 -0.79206,-10.65271 -2.68393,-10.65271 -0.50156,0 -3.25947,1.19859 -6.12869,2.66354 -4.74558,2.42297 -7.77823,3.37322 -16.01746,5.01893 -7.72552,1.5431 -20.24765,-6.48249 -23.87167,-15.29965 -3.40313,-8.27976 -4.07903,-13.73872 -2.35363,-19.00923 0.87751,-2.68047 2.00537,-5.53556 2.50637,-6.34463 1.57555,-2.54441 2.45763,-0.1291 1.21144,3.31717 -1.90101,5.25714 -1.50339,14.09448 0.80446,17.8797 1.09794,1.80079 1.99794,3.97748 2,4.83708 0.005,2.05274 4.71957,6.331 8.50374,7.71662 8.90212,3.25962 17.66116,2.05797 26.65448,-3.6567 l 4.65447,-2.95762 0.35823,-14.33261 c 0.21695,-8.68011 0.83339,-15.17011 1.56307,-16.45621 l 1.20483,-2.1236 4.78246,1.45938 c 5.10598,1.55811 10.75982,3.62908 16.03246,5.87259 2.76655,1.17718 3.73345,1.17718 6.5,0 5.27264,-2.24351 10.92648,-4.31448 16.03246,-5.87259 l 4.78246,-1.45938 1.20483,2.1236 c 0.72968,1.2861 1.34612,7.7761 1.56307,16.45621 l 0.35823,14.33261 4.65447,2.95762 c 8.99332,5.71467 17.75236,6.91632 26.65448,3.6567 3.78417,-1.38562 8.49883,-5.66388 8.50374,-7.71662 0.002,-0.8596 0.90205,-3.03629 2,-4.83708 2.30785,-3.78522 2.70547,-12.62256 0.80446,-17.8797 -1.24619,-3.44627 -0.36411,-5.86158 1.21144,-3.31717 0.501,0.80907 1.62886,3.66416 2.50637,6.34463 1.7254,5.27051 1.0495,10.72947 -2.35364,19.00923 -3.62401,8.81716 -16.14614,16.84275 -23.87166,15.29965 -8.23924,-1.64571 -11.27188,-2.59596 -16.01747,-5.01893 -2.86921,-1.46495 -5.62712,-2.66354 -6.12868,-2.66354 -1.89187,0 -3.38983,5.94546 -2.68393,10.65271 1.61806,10.79001 7.922,19.49881 17.92831,24.76772 4.13751,2.17863 6.20322,2.57957 13.29049,2.57957 7.10559,0 8.85266,-0.34091 11.4005,-2.22461 4.71053,-3.48265 10.89468,-12.3601 12.58944,-18.07234 3.487,-11.75312 9.30439,-20.06675 16.71197,-23.88311 l 3.89135,-2.0048 5.37624,1.69103 c 7.7758,2.44579 9.71226,7.72162 4.84059,13.18807 l -2.50047,2.80576 0.62742,-4.24458 c 0.88098,-5.96003 -0.4997,-7.25542 -7.73314,-7.25542 -7.9866,0 -10.36651,2.38541 -16.95799,16.99718 -3.66505,8.12456 -6.6525,13.11139 -10.18413,17 -7.14163,7.8635 -11.44533,9.90195 -21.02317,9.95763 -10.45717,0.0608 -19.03402,-3.62497 -23.46098,-10.082 -3.35453,-4.89282 -8.26706,-14.27876 -8.26706,-15.79516 0,-0.91369 -2.68689,-5.38058 -6.51295,-10.82765 -0.86923,-1.2375 -2.0254,-2.25 -2.56927,-2.25 -1.91514,0 -5.10554,9.29759 -4.46085,13 0.33519,1.925 0.95129,5.975 1.36911,9 0.41783,3.025 1.29633,6.47066 1.95224,7.65702 1.82465,3.30029 12.40098,12.35357 15.21983,13.0281 1.37604,0.32927 4.23996,1.46977 6.36427,2.53443 3.92238,1.96583 10.99837,2.04918 20.88279,0.24599 2.05984,-0.37577 4.50224,-0.39271 5.42754,-0.0376 1.45516,0.5584 1.48957,0.83326 0.25483,2.03515 -2.19926,2.14074 -13.36441,5.53865 -18.14599,5.5224 -8.58872,-0.0292 -25.47586,-8.04185 -29.31811,-13.91094 -1.28705,-1.96598 -3.94285,-5.37451 -5.90177,-7.57451 l -3.56167,-4 -3.56167,4 c -1.95892,2.2 -4.61472,5.60853 -5.90177,7.57451 -1.53133,2.33913 -4.70689,4.81743 -9.18832,7.17083 -13.66707,7.1772 -20.88451,8.22745 -31.34824,4.56167 z m 31.83459,-66.4037 c 1.59091,-1.11432 2.18682,-2.3957 1.9725,-4.24145 -0.59491,-5.12354 -6.80709,-3.4864 -6.80709,1.79392 0,4.33566 1.24154,4.9642 4.83459,2.44753 z m 40.66541,-2.37766 c 0,-3.61026 -2.19639,-5.73987 -4.86408,-4.71618 -2.39222,0.91798 -2.02648,5.30356 0.59545,7.14004 3.06928,2.1498 4.26863,1.46877 4.26863,-2.42386 z m -100.5,58.97752 c -10.23945,-8.35075 -22.479118,-22.06582 -21.721213,-24.33953 0.28729,-0.86187 7.266323,-3.61934 9.234403,-3.64858 0.55726,-0.008 2.57215,3.24744 4.47753,7.23494 1.90539,3.9875 5.68755,10.5269 8.40481,14.532 5.48031,8.07769 5.30288,10.86849 -0.39553,6.22117 z m 151.47433,1.95529 c -0.37106,-0.60038 1.51804,-4.32414 4.19798,-8.27503 2.67995,-3.95089 6.43158,-10.44593 8.33697,-14.43343 1.90538,-3.9875 3.92027,-7.24322 4.47753,-7.23494 1.96808,0.0292 8.94711,2.78671 9.2344,3.64858 1.14959,3.44876 -24.49089,29.13608 -26.24688,26.29482 z M 138.9899,243.87249 c -6.22032,-3.99789 -12.31769,-10.9215 -15.94325,-18.10369 -5.38397,-10.66559 -3.53424,-12.57646 4.70075,-4.85614 3.15837,2.96098 7.35287,6.30394 9.3211,7.4288 5.06967,2.89737 15.36332,3.84187 20.93811,1.9212 4.82528,-1.66245 6.98329,-0.86955 6.98329,2.56581 0,5.42631 -5.18858,10.19656 -13,11.95189 -1.925,0.43257 -4.625,1.05601 -6,1.38542 -1.77286,0.42472 -3.80886,-0.2423 -7,-2.29329 z m 109,1.78388 c -0.825,-0.53316 -2.53043,-0.97627 -3.78984,-0.98469 -3.71393,-0.0248 -10.05061,-3.8061 -11.68955,-6.97546 -3.43904,-6.65037 -1.18135,-9.72262 5.46268,-7.43356 5.57479,1.92067 15.86843,0.97617 20.93811,-1.9212 1.96823,-1.12486 6.16272,-4.46782 9.3211,-7.4288 8.23499,-7.72032 10.08472,-5.80945 4.70074,4.85614 -3.62308,7.17729 -9.73643,14.1219 -15.88902,18.04952 -4.71939,3.01271 -6.63486,3.40156 -9.05422,1.83805 z M 80.067072,202.80057 c -1.183966,-2.21226 -1.700085,-15.85462 -0.639922,-16.91478 0.362272,-0.36228 1.424593,-0.10561 2.360713,0.57037 6.02866,4.35333 8.020916,5.19299 12.329591,5.19647 5.28495,0.004 6.697266,1.20343 7.093976,6.02331 l 0.27847,3.38325 -5.412176,1.22706 c -2.976696,0.67488 -7.553399,1.52155 -10.170451,1.88148 -4.130529,0.5681 -4.901012,0.38773 -5.840201,-1.36716 z m 222.422828,0.0215 -8,-1.66573 0.27847,-3.43184 c 0.39506,-4.8688 1.79567,-6.06762 7.09397,-6.0719 4.30868,-0.003 6.30094,-0.84314 12.3296,-5.19647 2.54112,-1.83496 3.03023,-0.6243 2.91105,7.20556 -0.17885,11.74932 -0.67759,12.06196 -14.61309,9.16038 z M 159.8,201.75339 c -0.92945,-0.90787 -2.15581,-2.87611 -2.72525,-4.37385 -0.56944,-1.49774 -1.67891,-2.72317 -2.46549,-2.72317 -0.78657,0 -3.26926,-1.4625 -5.51708,-3.25 -2.24781,-1.7875 -5.45895,-4.3121 -7.13585,-5.61021 -5.4649,-4.23047 -10.38188,-16.68752 -10.12041,-25.63979 0.50121,-17.15984 4.58983,-30.18298 12.87196,-41 5.41311,-7.06988 17.31809,-19.499998 18.67617,-19.499998 1.43953,0 14.01716,-6.222334 14.73409,-7.289165 0.34554,-0.51417 2.37054,-1.29925 4.5,-1.744623 2.12947,-0.445373 5.67176,-1.500217 7.87176,-2.344097 5.07856,-1.948045 9.92144,-1.948045 15,0 2.2,0.84388 5.74229,1.898724 7.87176,2.344097 2.12946,0.445373 4.15446,1.230453 4.5,1.744623 0.71693,1.066831 13.29456,7.289165 14.73409,7.289165 1.35808,0 13.26306,12.430118 18.67616,19.499998 4.55994,5.95557 8.04254,12.78048 9.95043,19.5 1.04463,3.67914 2.7724,16.39406 2.92154,21.5 0.26147,8.95227 -4.65551,21.40932 -10.12041,25.63979 -1.6769,1.29811 -4.88804,3.82271 -7.13586,5.61021 -2.24781,1.7875 -4.7305,3.25 -5.51707,3.25 -0.78658,0 -1.8983,1.23134 -2.47049,2.73632 -1.49127,3.92233 -4.46574,6.51781 -5.69723,4.97132 -0.97807,-1.22826 -1.30121,-2.57526 -3.16844,-13.20764 -0.57954,-3.3 -1.28165,-6.99835 -1.56025,-8.21855 -0.39377,-1.7246 0.18456,-2.57594 2.59754,-3.82374 1.70725,-0.88285 3.17477,-1.4595 3.26116,-1.28145 1.66076,3.423 2.80394,4.36765 5.62191,4.6456 2.54925,0.25145 3.50493,0.96246 4.36839,3.25 1.53825,4.07531 3.73185,3.66607 8.58794,-1.60216 7.02178,-7.61774 8.39623,-11.98001 8.25618,-26.20377 -0.10003,-10.1595 -0.46443,-12.90832 -2.1489,-16.21017 -1.11565,-2.18684 -2.02845,-4.74374 -2.02845,-5.68199 0,-2.41875 -8.21841,-15.2684 -12.17698,-19.03896 -4.48665,-4.27356 -23.96789,-17.296439 -31.02737,-20.741271 -12.85194,-6.271399 -18.73936,-6.271399 -31.5913,0 -7.05948,3.444832 -26.54072,16.467711 -31.02737,20.741271 -3.95857,3.77056 -12.17698,16.62021 -12.17698,19.03896 0,0.93825 -0.9128,3.49515 -2.02845,5.68199 -1.68447,3.30185 -2.04887,6.05067 -2.1489,16.21017 -0.14005,14.22376 1.2344,18.58603 8.25618,26.20377 4.85609,5.26823 7.04969,5.67747 8.58794,1.60216 0.86345,-2.28754 1.81914,-2.99855 4.36839,-3.25 2.81797,-0.27795 3.96115,-1.2226 5.62191,-4.6456 0.0864,-0.17805 1.55391,0.3986 3.26116,1.28145 2.41297,1.2478 2.99131,2.09914 2.59754,3.82374 -0.47273,2.07044 -1.92084,10.00706 -3.18091,17.43351 -0.72149,4.25226 -2.37137,5.48547 -4.52476,3.38206 z m -54.14343,-5.76369 c -0.36667,-0.36666 -0.66667,-4.09154 -0.66667,-8.27749 0,-10.42923 -1.21286,-12.05584 -8.989317,-12.05584 -4.934418,0 -5.974437,0.31044 -6.490832,1.93745 -0.338208,1.0656 -0.04807,2.84514 0.644757,3.95452 1.555433,2.49065 0.445817,3.85953 -1.691007,2.08612 -1.027327,-0.8526 -1.470249,-2.55225 -1.274166,-4.88942 0.249331,-2.97186 0.897163,-3.87316 3.800564,-5.28756 6.771185,-3.29862 14.638071,-1.4949 17.296861,3.96582 0.97126,1.9948 1.0863,3.94863 0.42589,7.23307 -0.49766,2.475 -0.90882,6.1875 -0.9137,8.25 -0.008,3.57493 -0.68176,4.54396 -2.14238,3.08333 z m 182.52116,-3.03226 c -0.003,-2.09059 -0.41293,-5.82607 -0.91058,-8.30107 -0.66041,-3.28444 -0.54537,-5.23827 0.42589,-7.23307 2.65879,-5.46072 10.52567,-7.26444 17.29686,-3.96582 2.9034,1.4144 3.55123,2.3157 3.80056,5.28756 0.19609,2.33717 -0.24684,4.03682 -1.27416,4.88942 -2.13683,1.77341 -3.24644,0.40453 -1.69101,-2.08612 0.69283,-1.10938 0.98297,-2.88892 0.64476,-3.95452 -0.51536,-1.62374 -1.55571,-1.93745 -6.42509,-1.93745 -7.6069,0 -8.42431,1.0669 -9.05506,11.81893 -0.30161,5.14129 -0.95758,8.67396 -1.6532,8.90319 -0.73473,0.24211 -1.1553,-0.99934 -1.15897,-3.42105 z M 181.93289,176.69138 c -4.15636,-2.12575 -8.04767,-4.46576 -8.64736,-5.20001 -0.75411,-0.92331 -0.82319,-4.1104 -0.22403,-10.335 1.48754,-15.45372 3.88847,-28.65168 6.8001,-37.38027 2.52306,-7.56369 2.56943,-8.11973 0.67724,-8.11973 -1.79287,0 -8.59452,11.9457 -9.61006,16.87809 -0.41014,1.99205 -1.46418,6.23137 -2.3423,9.4207 -0.87812,3.18934 -1.5984,7.91434 -1.60061,10.5 -0.006,7.09148 -2.98178,14.47221 -6.30611,15.64132 -4.39932,1.54716 -5.79639,-0.77408 -6.17061,-10.25252 -0.22538,-5.70847 0.0825,-8.60863 1.04908,-9.8834 0.75243,-0.9923 1.38237,-2.58892 1.39987,-3.54803 0.0628,-3.4441 9.76425,-21.52738 15.19473,-28.32265 6.53218,-8.17385 18.54103,-19.711939 22.81831,-21.923805 l 3.01876,-1.561063 3.01876,1.561063 c 4.27728,2.211866 16.28613,13.749955 22.81831,21.923805 5.43048,6.79527 15.13192,24.87855 15.19473,28.32265 0.0175,0.95911 0.64743,2.55573 1.39987,3.54803 0.96662,1.27477 1.27446,4.17493 1.04908,9.8834 -0.37422,9.47844 -1.77129,11.79968 -6.17061,10.25252 -3.32433,-1.16911 -6.30002,-8.54984 -6.30611,-15.64132 -0.002,-2.58566 -0.72249,-7.31066 -1.60061,-10.5 -0.87812,-3.18933 -1.93216,-7.42865 -2.3423,-9.4207 -1.01554,-4.93239 -7.81719,-16.87809 -9.61006,-16.87809 -1.89219,0 -1.84582,0.55604 0.67724,8.11973 2.91163,8.72859 5.31256,21.92655 6.8001,37.38027 0.59965,6.22966 0.53031,9.41139 -0.22527,10.3365 -0.60038,0.73507 -4.5942,3.09757 -8.87516,5.25 l -7.78358,3.9135 -8.27219,-0.05 -8.2722,-0.05 -7.55701,-3.86501 z m -65.94299,-1.76459 c 0,-3.5429 -4.04515,-7.60757 -9,-9.04343 -4.51495,-1.30837 -19.903491,-3.36262 -22.500001,-3.00356 -1.751393,0.24219 -1.960684,-0.21249 -1.683709,-3.65786 0.184318,-2.29277 1.291855,-5.09381 2.654351,-6.71305 1.285933,-1.52824 2.501538,-3.26906 2.701344,-3.86847 0.199806,-0.59942 2.042506,-1.46858 4.094889,-1.93147 3.094046,-0.69782 4.193159,-0.47856 6.433054,1.28335 5.281602,4.15451 12.215992,6.66407 18.414062,6.66407 h 5.91541 l 1.98156,3.25 c 2.89193,4.74311 2.50342,6.73599 -2.59775,13.32521 -5.41579,6.99562 -6.41321,7.57032 -6.41321,3.69521 z m 157.74246,-3.47782 c -5.26327,-6.88909 -5.6501,-8.7917 -2.75342,-13.5426 l 1.98156,-3.25 h 5.9154 c 6.19808,0 13.13246,-2.50956 18.41407,-6.66407 2.2399,-1.76191 3.33901,-1.98117 6.43306,-1.28335 2.05238,0.46289 3.89508,1.33205 4.09488,1.93147 0.19981,0.59941 1.41541,2.34023 2.70135,3.86847 1.36249,1.61924 2.47003,4.42028 2.65435,6.71305 0.27697,3.44537 0.0677,3.90005 -1.68371,3.65786 -2.59651,-0.35906 -17.98505,1.69519 -22.5,3.00356 -4.89602,1.41881 -9,5.5046 -9,8.9601 0,1.5471 -0.34089,2.81291 -0.75754,2.81291 -0.41665,0 -2.89165,-2.79333 -5.5,-6.2074 z m -129.28185,-9.5426 c 1.65316,-4.28857 1.60905,-14.76912 -0.0779,-18.51013 -0.9326,-2.06814 -1.37864,-4.07725 -0.9912,-4.46469 1.23819,-1.2382 4.0681,1.30675 5.36049,4.82072 1.3678,3.71902 0.8535,14.90422 -0.82994,18.04977 -1.30492,2.43826 -4.39704,2.53147 -3.46143,0.10433 z m 103.61735,-0.10433 c -1.68345,-3.14555 -2.19775,-14.33075 -0.82994,-18.04977 1.29239,-3.51397 4.12229,-6.05892 5.36049,-4.82072 0.38744,0.38744 -0.0586,2.39655 -0.99121,4.46469 -1.68696,3.74101 -1.73108,14.22156 -0.0779,18.51013 0.93561,2.42714 -2.15651,2.33393 -3.46143,-0.10433 z M 107.4899,145.15534 c -6.94787,-3.46885 -12.018029,-7.85176 -10.995965,-9.5055 0.292936,-0.47398 2.109545,-0.60588 4.036915,-0.29311 2.3931,0.38835 4.05204,0.083 5.23167,-0.96283 0.95006,-0.84233 3.75238,-1.77681 6.22738,-2.07662 16.1551,-1.95697 15.95096,-1.95228 16.55415,-0.38039 1.40688,3.66626 -7.96586,16.72245 -12.00032,16.7164 -1.12961,-0.002 -5.20383,-1.57577 -9.05383,-3.49795 z m 166.80397,0.25103 c -3.87428,-4.07704 -7.63102,-11.45535 -6.85812,-13.46948 0.60319,-1.57189 0.39905,-1.57658 16.55415,0.38039 2.475,0.29981 5.27732,1.23429 6.22738,2.07662 1.17963,1.04587 2.83857,1.35118 5.23167,0.96283 4.34329,-0.70482 5.09122,0.33037 2.56191,3.54587 -2.16674,2.75456 -15.54935,9.75377 -18.64939,9.75377 -1.08858,0 -3.369,-1.4625 -5.0676,-3.25 z m -170.82858,-21.14434 -1.90687,-1.39433 3.56907,-5.09838 c 1.963,-2.80412 5.32258,-6.45879 7.46574,-8.1215 2.14317,-1.6627 5.24667,-4.19201 6.89667,-5.62067 3.39318,-2.93801 13.51202,-9.370778 14.74038,-9.370778 0.44431,0 3.09748,-1.575 5.89594,-3.5 2.79846,-1.925 5.71871,-3.5 6.48946,-3.5 0.77075,0 2.18275,-0.443199 3.13779,-0.984886 0.95503,-0.541688 4.66143,-1.923821 8.23643,-3.071408 3.575,-1.147587 8.75,-3.124229 11.5,-4.392537 5.42411,-2.501618 16.67154,-4.806308 19.0332,-3.900057 2.31278,0.887499 1.71189,3.24927 -0.99985,3.929875 -1.35666,0.3405 -2.36916,1.071141 -2.25,1.623648 0.28572,1.324802 -20.19295,12.795365 -22.84387,12.795365 -1.34572,0 -15.49925,11.543378 -16.7467,13.658328 -1.66646,2.82535 -10.91494,10.87978 -13.5988,11.8431 -1.53453,0.55079 -3.42448,1.52797 -4.1999,2.17151 -4.68371,3.88713 -20.51345,5.78831 -24.41869,2.93272 z m 170.08224,-0.25943 c -2.16831,-0.78136 -4.5992,-1.96576 -5.40197,-2.63201 -0.80278,-0.66624 -2.71512,-1.662 -4.24964,-2.21279 -2.68386,-0.96332 -11.93234,-9.01775 -13.59881,-11.8431 -1.24745,-2.11495 -15.40097,-13.658328 -16.74669,-13.658328 -2.65092,0 -23.12959,-11.470563 -22.84387,-12.795365 0.11916,-0.552507 -0.89334,-1.283148 -2.25,-1.623648 -2.71174,-0.680605 -3.31263,-3.042376 -0.99985,-3.929875 2.36166,-0.906251 13.60909,1.398439 19.0332,3.900057 2.75,1.268308 7.925,3.24495 11.5,4.392537 3.575,1.147587 7.28139,2.52972 8.23643,3.071408 0.95504,0.541687 2.36704,0.984886 3.13779,0.984886 0.77075,0 3.691,1.575 6.48946,3.5 2.79846,1.925 5.45163,3.5 5.89594,3.5 1.22835,0 11.3472,6.432768 14.74038,9.370778 1.65,1.42866 4.7535,3.95797 6.89666,5.62067 2.14317,1.66271 5.50275,5.31738 7.46574,8.1215 l 3.56908,5.09838 -1.90687,1.39433 c -2.46503,1.80248 -13.67039,1.64921 -18.96698,-0.25943 z"
         id="path3964"
         inkscape:connector-curvature="0" />
    </g>
  </g>
</svg>
