<?xml version="1.0" encoding="UTF-8" standalone="no"?>
<!-- Created with Inkscape (http://www.inkscape.org/) -->

<svg
   xmlns:dc="http://purl.org/dc/elements/1.1/"
   xmlns:cc="http://creativecommons.org/ns#"
   xmlns:rdf="http://www.w3.org/1999/02/22-rdf-syntax-ns#"
   xmlns:svg="http://www.w3.org/2000/svg"
   xmlns="http://www.w3.org/2000/svg"
   xmlns:sodipodi="http://sodipodi.sourceforge.net/DTD/sodipodi-0.dtd"
   xmlns:inkscape="http://www.inkscape.org/namespaces/inkscape"
   width="68.791664mm"
   height="63.235416mm"
   viewBox="0 0 68.791664 63.235416"
   version="1.1"
   id="svg3810"
   inkscape:version="0.92.2 5c3e80d, 2017-08-06"
   sodipodi:docname="logo-new.svg">
  <defs
     id="defs3804" />
  <sodipodi:namedview
     id="base"
     pagecolor="#ffffff"
     bordercolor="#666666"
     borderopacity="1.0"
     inkscape:pageopacity="0"
     inkscape:pageshadow="2"
     inkscape:zoom="0.35"
     inkscape:cx="278.57143"
     inkscape:cy="36.642856"
     inkscape:document-units="mm"
     inkscape:current-layer="layer1"
     showgrid="false"
     fit-margin-top="0"
     fit-margin-left="0"
     fit-margin-right="0"
     fit-margin-bottom="0"
     inkscape:pagecheckerboard="true"
     showborder="false"
     inkscape:window-width="1918"
     inkscape:window-height="718"
     inkscape:window-x="1920"
     inkscape:window-y="720"
     inkscape:window-maximized="0" />
  <metadata
     id="metadata3807">
    <rdf:RDF>
      <cc:Work
         rdf:about="">
        <dc:format>image/svg+xml</dc:format>
        <dc:type
           rdf:resource="http://purl.org/dc/dcmitype/StillImage" />
        <dc:title></dc:title>
      </cc:Work>
    </rdf:RDF>
  </metadata>
  <g
     inkscape:label="Layer 1"
     inkscape:groupmode="layer"
     id="layer1"
     transform="translate(-32.127977,-95.293007)">
    <g
       id="g3962"
       transform="matrix(0.26458333,0,0,0.26458333,14.138983,77.656842)">
      <path
         style="fill:#0f0f0f"
         d="m 174.37209,301.18846 c -28.17748,-5.36182 -50.04332,-16.40774 -69.21586,-34.9656 -23.030645,-22.29228 -35.166331,-50.01801 -35.166331,-80.34258 0,-56.27874 40.421911,-102.621931 101.052581,-115.855456 11.97883,-2.614554 41.91601,-2.614554 53.89484,0 46.49202,10.147559 81.66025,39.821106 95.56218,80.631546 7.82822,22.98048 7.20844,51.45614 -1.60617,73.79443 -15.17413,38.45483 -48.45607,65.768 -92.40343,75.83184 -9.59781,2.19788 -42.33745,2.7669 -52.11781,0.90582 z m 47.78101,-4.00075 c 61.52923,-10.73386 105.63317,-64.58002 99.76149,-121.79801 -4.61599,-44.98172 -36.47196,-82.571428 -82.78275,-97.682783 -25.08489,-8.185275 -57.19899,-8.185275 -82.28388,0 -65.365763,21.329051 -99.428486,87.114343 -75.845669,146.480653 16.414719,41.32166 56.085329,69.4657 105.487609,74.83745 6.91935,0.75237 26.6433,-0.26377 35.6632,-1.83731 z m -40.6632,-7.18387 c -4.95,-1.34141 -11.29485,-3.54335 -14.09967,-4.8932 -2.80482,-1.34985 -5.61732,-2.45427 -6.25,-2.45427 -0.63268,0 -1.15033,-0.43417 -1.15033,-0.96482 0,-1.55285 3.59027,-3.03518 7.35135,-3.03518 1.91556,0 5.58245,-0.9 8.14865,-2 2.5662,-1.1 5.77286,-2 7.12593,-2 1.66514,0 4.42319,-1.93886 8.53507,-6 3.34123,-3.3 6.41878,-6 6.839,-6 0.42022,0 3.49777,2.7 6.839,6 4.11188,4.06114 6.86993,6 8.53507,6 1.35307,0 4.55973,0.9 7.12593,2 2.5662,1.1 6.23309,2 8.14865,2 3.76108,0 7.35135,1.48233 7.35135,3.03518 0,0.53065 -0.51765,0.96482 -1.15033,0.96482 -0.63268,0 -3.44518,1.1015 -6.25,2.44779 -8.05078,3.86429 -23.64022,7.56724 -31.34518,7.4454 -3.71497,-0.0587 -10.80449,-1.20432 -15.75449,-2.54572 z m -33.5,-19.54046 c -6.65078,-2.32998 -9.22042,-4.40146 -6.67271,-5.37911 0.9253,-0.35507 3.36769,-0.33813 5.42754,0.0376 9.88441,1.80319 16.96041,1.71984 20.88279,-0.24599 2.12431,-1.06466 4.98823,-2.20516 6.36427,-2.53443 2.81885,-0.67453 13.39518,-9.72781 15.21983,-13.0281 0.65591,-1.18636 1.53441,-4.63202 1.95224,-7.65702 0.41782,-3.025 1.03392,-7.075 1.36911,-9 0.64469,-3.70241 -2.54571,-13 -4.46085,-13 -0.54387,0 -1.70004,1.0125 -2.56927,2.25 -3.82606,5.44707 -6.51295,9.91396 -6.51295,10.82765 0,1.5164 -4.91253,10.90234 -8.26706,15.79516 -4.42696,6.45703 -13.00381,10.1428 -23.46098,10.082 -9.57784,-0.0557 -13.88154,-2.09413 -21.02317,-9.95763 -3.53163,-3.88861 -6.51908,-8.87544 -10.18413,-17 -6.59148,-14.61173 -8.97139,-16.99714 -16.957993,-16.99714 -7.233437,0 -8.614122,1.29539 -7.733133,7.25542 l 0.627418,4.24458 -2.500476,-2.80576 c -4.871663,-5.46645 -2.935206,-10.74228 4.840592,-13.18807 l 5.376244,-1.69103 3.891348,2.0048 c 7.40758,3.81636 13.22496,12.12999 16.71197,23.88311 1.69475,5.71224 7.87891,14.58969 12.58944,18.07234 2.54784,1.8837 4.29491,2.22461 11.4005,2.22461 7.08727,0 9.15298,-0.40094 13.29049,-2.57957 10.00631,-5.26891 16.31025,-13.97771 17.92831,-24.76772 0.7059,-4.70725 -0.79206,-10.65271 -2.68393,-10.65271 -0.50156,0 -3.25947,1.19859 -6.12869,2.66354 -4.74558,2.42297 -7.77823,3.37322 -16.01746,5.01893 -7.72552,1.5431 -20.24765,-6.48249 -23.87167,-15.29965 -3.40313,-8.27976 -4.07903,-13.73872 -2.35363,-19.00923 0.87751,-2.68047 2.00537,-5.53556 2.50637,-6.34463 1.57555,-2.54441 2.45763,-0.1291 1.21144,3.31717 -1.90101,5.25714 -1.50339,14.09448 0.80446,17.8797 1.09794,1.80079 1.99794,3.97748 2,4.83708 0.005,2.05274 4.71957,6.331 8.50374,7.71662 8.90212,3.25962 17.66116,2.05797 26.65448,-3.6567 l 4.65447,-2.95762 0.35823,-14.33261 c 0.21695,-8.68011 0.83339,-15.17011 1.56307,-16.45621 l 1.20483,-2.1236 4.78246,1.45938 c 5.10598,1.55811 10.75982,3.62908 16.03246,5.87259 2.76655,1.17718 3.73345,1.17718 6.5,0 5.27264,-2.24351 10.92648,-4.31448 16.03246,-5.87259 l 4.78246,-1.45938 1.20483,2.1236 c 0.72968,1.2861 1.34612,7.7761 1.56307,16.45621 l 0.35823,14.33261 4.65447,2.95762 c 8.99332,5.71467 17.75236,6.91632 26.65448,3.6567 3.78417,-1.38562 8.49883,-5.66388 8.50374,-7.71662 0.002,-0.8596 0.90205,-3.03629 2,-4.83708 2.30785,-3.78522 2.70547,-12.62256 0.80446,-17.8797 -1.24619,-3.44627 -0.36411,-5.86158 1.21144,-3.31717 0.501,0.80907 1.62886,3.66416 2.50637,6.34463 1.7254,5.27051 1.0495,10.72947 -2.35364,19.00923 -3.62401,8.81716 -16.14614,16.84275 -23.87166,15.29965 -8.23924,-1.64571 -11.27188,-2.59596 -16.01747,-5.01893 -2.86921,-1.46495 -5.62712,-2.66354 -6.12868,-2.66354 -1.89187,0 -3.38983,5.94546 -2.68393,10.65271 1.61806,10.79001 7.922,19.49881 17.92831,24.76772 4.13751,2.17863 6.20322,2.57957 13.29049,2.57957 7.10559,0 8.85266,-0.34091 11.4005,-2.22461 4.71053,-3.48265 10.89468,-12.3601 12.58944,-18.07234 3.487,-11.75312 9.30439,-20.06675 16.71197,-23.88311 l 3.89135,-2.0048 5.37624,1.69103 c 7.7758,2.44579 9.71226,7.72162 4.84059,13.18807 l -2.50047,2.80576 0.62742,-4.24458 c 0.88098,-5.96003 -0.4997,-7.25542 -7.73314,-7.25542 -7.9866,0 -10.36651,2.38541 -16.95799,16.99718 -3.66505,8.12456 -6.6525,13.11139 -10.18413,17 -7.14163,7.8635 -11.44533,9.90195 -21.02317,9.95763 -10.45717,0.0608 -19.03402,-3.62497 -23.46098,-10.082 -3.35453,-4.89282 -8.26706,-14.27876 -8.26706,-15.79516 0,-0.91369 -2.68689,-5.38058 -6.51295,-10.82765 -0.86923,-1.2375 -2.0254,-2.25 -2.56927,-2.25 -1.91514,0 -5.10554,9.29759 -4.46085,13 0.33519,1.925 0.95129,5.975 1.36911,9 0.41783,3.025 1.29633,6.47066 1.95224,7.65702 1.82465,3.30029 12.40098,12.35357 15.21983,13.0281 1.37604,0.32927 4.23996,1.46977 6.36427,2.53443 3.92238,1.96583 10.99837,2.04918 20.88279,0.24599 2.05984,-0.37577 4.50224,-0.39271 5.42754,-0.0376 1.45516,0.5584 1.48957,0.83326 0.25483,2.03515 -2.19926,2.14074 -13.36441,5.53865 -18.14599,5.5224 -8.58872,-0.0292 -25.47586,-8.04185 -29.31811,-13.91094 -1.28705,-1.96598 -3.94285,-5.37451 -5.90177,-7.57451 l -3.56167,-4 -3.56167,4 c -1.95892,2.2 -4.61472,5.60853 -5.90177,7.57451 -1.53133,2.33913 -4.70689,4.81743 -9.18832,7.17083 -13.66707,7.1772 -20.88451,8.22745 -31.34824,4.56167 z m 31.83459,-66.4037 c 1.59091,-1.11432 2.18682,-2.3957 1.9725,-4.24145 -0.59491,-5.12354 -6.80709,-3.4864 -6.80709,1.79392 0,4.33566 1.24154,4.9642 4.83459,2.44753 z m 40.66541,-2.37766 c 0,-3.61026 -2.19639,-5.73987 -4.86408,-4.71618 -2.39222,0.91798 -2.02648,5.30356 0.59545,7.14004 3.06928,2.1498 4.26863,1.46877 4.26863,-2.42386 z m -100.5,58.97752 c -10.23945,-8.35075 -22.479118,-22.06582 -21.721213,-24.33953 0.28729,-0.86187 7.266323,-3.61934 9.234403,-3.64858 0.55726,-0.008 2.57215,3.24744 4.47753,7.23494 1.90539,3.9875 5.68755,10.5269 8.40481,14.532 5.48031,8.07769 5.30288,10.86849 -0.39553,6.22117 z m 151.47433,1.95529 c -0.37106,-0.60038 1.51804,-4.32414 4.19798,-8.27503 2.67995,-3.95089 6.43158,-10.44593 8.33697,-14.43343 1.90538,-3.9875 3.92027,-7.24322 4.47753,-7.23494 1.96808,0.0292 8.94711,2.78671 9.2344,3.64858 1.14959,3.44876 -24.49089,29.13608 -26.24688,26.29482 z M 138.9899,243.87249 c -6.22032,-3.99789 -12.31769,-10.9215 -15.94325,-18.10369 -5.38397,-10.66559 -3.53424,-12.57646 4.70075,-4.85614 3.15837,2.96098 7.35287,6.30394 9.3211,7.4288 5.06967,2.89737 15.36332,3.84187 20.93811,1.9212 4.82528,-1.66245 6.98329,-0.86955 6.98329,2.56581 0,5.42631 -5.18858,10.19656 -13,11.95189 -1.925,0.43257 -4.625,1.05601 -6,1.38542 -1.77286,0.42472 -3.80886,-0.2423 -7,-2.29329 z m 109,1.78388 c -0.825,-0.53316 -2.53043,-0.97627 -3.78984,-0.98469 -3.71393,-0.0248 -10.05061,-3.8061 -11.68955,-6.97546 -3.43904,-6.65037 -1.18135,-9.72262 5.46268,-7.43356 5.57479,1.92067 15.86843,0.97617 20.93811,-1.9212 1.96823,-1.12486 6.16272,-4.46782 9.3211,-7.4288 8.23499,-7.72032 10.08472,-5.80945 4.70074,4.85614 -3.62308,7.17729 -9.73643,14.1219 -15.88902,18.04952 -4.71939,3.01271 -6.63486,3.40156 -9.05422,1.83805 z M 80.067072,202.80057 c -1.183966,-2.21226 -1.700085,-15.85462 -0.639922,-16.91478 0.362272,-0.36228 1.424593,-0.10561 2.360713,0.57037 6.02866,4.35333 8.020916,5.19299 12.329591,5.19647 5.28495,0.004 6.697266,1.20343 7.093976,6.02331 l 0.27847,3.38325 -5.412176,1.22706 c -2.976696,0.67488 -7.553399,1.52155 -10.170451,1.88148 -4.130529,0.5681 -4.901012,0.38773 -5.840201,-1.36716 z m 222.422828,0.0215 -8,-1.66573 0.27847,-3.43184 c 0.39506,-4.8688 1.79567,-6.06762 7.09397,-6.0719 4.30868,-0.003 6.30094,-0.84314 12.3296,-5.19647 2.54112,-1.83496 3.03023,-0.6243 2.91105,7.20556 -0.17885,11.74932 -0.67759,12.06196 -14.61309,9.16038 z M 159.8,201.75339 c -0.92945,-0.90787 -2.15581,-2.87611 -2.72525,-4.37385 -0.56944,-1.49774 -1.67891,-2.72317 -2.46549,-2.72317 -0.78657,0 -3.26926,-1.4625 -5.51708,-3.25 -2.24781,-1.7875 -5.45895,-4.3121 -7.13585,-5.61021 -5.4649,-4.23047 -10.38188,-16.68752 -10.12041,-25.63979 0.50121,-17.15984 4.58983,-30.18298 12.87196,-41 5.41311,-7.06988 17.31809,-19.499998 18.67617,-19.499998 1.43953,0 14.01716,-6.222334 14.73409,-7.289165 0.34554,-0.51417 2.37054,-1.29925 4.5,-1.744623 2.12947,-0.445373 5.67176,-1.500217 7.87176,-2.344097 5.07856,-1.948045 9.92144,-1.948045 15,0 2.2,0.84388 5.74229,1.898724 7.87176,2.344097 2.12946,0.445373 4.15446,1.230453 4.5,1.744623 0.71693,1.066831 13.29456,7.289165 14.73409,7.289165 1.35808,0 13.26306,12.430118 18.67616,19.499998 4.55994,5.95557 8.04254,12.78048 9.95043,19.5 1.04463,3.67914 2.7724,16.39406 2.92154,21.5 0.26147,8.95227 -4.65551,21.40932 -10.12041,25.63979 -1.6769,1.29811 -4.88804,3.82271 -7.13586,5.61021 -2.24781,1.7875 -4.7305,3.25 -5.51707,3.25 -0.78658,0 -1.8983,1.23134 -2.47049,2.73632 -1.49127,3.92233 -4.46574,6.51781 -5.69723,4.97132 -0.97807,-1.22826 -1.30121,-2.57526 -3.16844,-13.20764 -0.57954,-3.3 -1.28165,-6.99835 -1.56025,-8.21855 -0.39377,-1.7246 0.18456,-2.57594 2.59754,-3.82374 1.70725,-0.88285 3.17477,-1.4595 3.26116,-1.28145 1.66076,3.423 2.80394,4.36765 5.62191,4.6456 2.54925,0.25145 3.50493,0.96246 4.36839,3.25 1.53825,4.07531 3.73185,3.66607 8.58794,-1.60216 7.02178,-7.61774 8.39623,-11.98001 8.25618,-26.20377 -0.10003,-10.1595 -0.46443,-12.90832 -2.1489,-16.21017 -1.11565,-2.18684 -2.02845,-4.74374 -2.02845,-5.68199 0,-2.41875 -8.21841,-15.2684 -12.17698,-19.03896 -4.48665,-4.27356 -23.96789,-17.296439 -31.02737,-20.741271 -12.85194,-6.271399 -18.73936,-6.271399 -31.5913,0 -7.05948,3.444832 -26.54072,16.467711 -31.02737,20.741271 -3.95857,3.77056 -12.17698,16.62021 -12.17698,19.03896 0,0.93825 -0.9128,3.49515 -2.02845,5.68199 -1.68447,3.30185 -2.04887,6.05067 -2.1489,16.21017 -0.14005,14.22376 1.2344,18.58603 8.25618,26.20377 4.85609,5.26823 7.04969,5.67747 8.58794,1.60216 0.86345,-2.28754 1.81914,-2.99855 4.36839,-3.25 2.81797,-0.27795 3.96115,-1.2226 5.62191,-4.6456 0.0864,-0.17805 1.55391,0.3986 3.26116,1.28145 2.41297,1.2478 2.99131,2.09914 2.59754,3.82374 -0.47273,2.07044 -1.92084,10.00706 -3.18091,17.43351 -0.72149,4.25226 -2.37137,5.48547 -4.52476,3.38206 z m -54.14343,-5.76369 c -0.36667,-0.36666 -0.66667,-4.09154 -0.66667,-8.27749 0,-10.42923 -1.21286,-12.05584 -8.989317,-12.05584 -4.934418,0 -5.974437,0.31044 -6.490832,1.93745 -0.338208,1.0656 -0.04807,2.84514 0.644757,3.95452 1.555433,2.49065 0.445817,3.85953 -1.691007,2.08612 -1.027327,-0.8526 -1.470249,-2.55225 -1.274166,-4.88942 0.249331,-2.97186 0.897163,-3.87316 3.800564,-5.28756 6.771185,-3.29862 14.638071,-1.4949 17.296861,3.96582 0.97126,1.9948 1.0863,3.94863 0.42589,7.23307 -0.49766,2.475 -0.90882,6.1875 -0.9137,8.25 -0.008,3.57493 -0.68176,4.54396 -2.14238,3.08333 z m 182.52116,-3.03226 c -0.003,-2.09059 -0.41293,-5.82607 -0.91058,-8.30107 -0.66041,-3.28444 -0.54537,-5.23827 0.42589,-7.23307 2.65879,-5.46072 10.52567,-7.26444 17.29686,-3.96582 2.9034,1.4144 3.55123,2.3157 3.80056,5.28756 0.19609,2.33717 -0.24684,4.03682 -1.27416,4.88942 -2.13683,1.77341 -3.24644,0.40453 -1.69101,-2.08612 0.69283,-1.10938 0.98297,-2.88892 0.64476,-3.95452 -0.51536,-1.62374 -1.55571,-1.93745 -6.42509,-1.93745 -7.6069,0 -8.42431,1.0669 -9.05506,11.81893 -0.30161,5.14129 -0.95758,8.67396 -1.6532,8.90319 -0.73473,0.24211 -1.1553,-0.99934 -1.15897,-3.42105 z M 181.93289,176.69138 c -4.15636,-2.12575 -8.04767,-4.46576 -8.64736,-5.20001 -0.75411,-0.92331 -0.82319,-4.1104 -0.22403,-10.335 1.48754,-15.45372 3.88847,-28.65168 6.8001,-37.38027 2.52306,-7.56369 2.56943,-8.11973 0.67724,-8.11973 -1.79287,0 -8.59452,11.9457 -9.61006,16.87809 -0.41014,1.99205 -1.46418,6.23137 -2.3423,9.4207 -0.87812,3.18934 -1.5984,7.91434 -1.60061,10.5 -0.006,7.09148 -2.98178,14.47221 -6.30611,15.64132 -4.39932,1.54716 -5.79639,-0.77408 -6.17061,-10.25252 -0.22538,-5.70847 0.0825,-8.60863 1.04908,-9.8834 0.75243,-0.9923 1.38237,-2.58892 1.39987,-3.54803 0.0628,-3.4441 9.76425,-21.52738 15.19473,-28.32265 6.53218,-8.17385 18.54103,-19.711939 22.81831,-21.923805 l 3.01876,-1.561063 3.01876,1.561063 c 4.27728,2.211866 16.28613,13.749955 22.81831,21.923805 5.43048,6.79527 15.13192,24.87855 15.19473,28.32265 0.0175,0.95911 0.64743,2.55573 1.39987,3.54803 0.96662,1.27477 1.27446,4.17493 1.04908,9.8834 -0.37422,9.47844 -1.77129,11.79968 -6.17061,10.25252 -3.32433,-1.16911 -6.30002,-8.54984 -6.30611,-15.64132 -0.002,-2.58566 -0.72249,-7.31066 -1.60061,-10.5 -0.87812,-3.18933 -1.93216,-7.42865 -2.3423,-9.4207 -1.01554,-4.93239 -7.81719,-16.87809 -9.61006,-16.87809 -1.89219,0 -1.84582,0.55604 0.67724,8.11973 2.91163,8.72859 5.31256,21.92655 6.8001,37.38027 0.59965,6.22966 0.53031,9.41139 -0.22527,10.3365 -0.60038,0.73507 -4.5942,3.09757 -8.87516,5.25 l -7.78358,3.9135 -8.27219,-0.05 -8.2722,-0.05 -7.55701,-3.86501 z m -65.94299,-1.76459 c 0,-3.5429 -4.04515,-7.60757 -9,-9.04343 -4.51495,-1.30837 -19.903491,-3.36262 -22.500001,-3.00356 -1.751393,0.24219 -1.960684,-0.21249 -1.683709,-3.65786 0.184318,-2.29277 1.291855,-5.09381 2.654351,-6.71305 1.285933,-1.52824 2.501538,-3.26906 2.701344,-3.86847 0.199806,-0.59942 2.042506,-1.46858 4.094889,-1.93147 3.094046,-0.69782 4.193159,-0.47856 6.433054,1.28335 5.281602,4.15451 12.215992,6.66407 18.414062,6.66407 h 5.91541 l 1.98156,3.25 c 2.89193,4.74311 2.50342,6.73599 -2.59775,13.32521 -5.41579,6.99562 -6.41321,7.57032 -6.41321,3.69521 z m 157.74246,-3.47782 c -5.26327,-6.88909 -5.6501,-8.7917 -2.75342,-13.5426 l 1.98156,-3.25 h 5.9154 c 6.19808,0 13.13246,-2.50956 18.41407,-6.66407 2.2399,-1.76191 3.33901,-1.98117 6.43306,-1.28335 2.05238,0.46289 3.89508,1.33205 4.09488,1.93147 0.19981,0.59941 1.41541,2.34023 2.70135,3.86847 1.36249,1.61924 2.47003,4.42028 2.65435,6.71305 0.27697,3.44537 0.0677,3.90005 -1.68371,3.65786 -2.59651,-0.35906 -17.98505,1.69519 -22.5,3.00356 -4.89602,1.41881 -9,5.5046 -9,8.9601 0,1.5471 -0.34089,2.81291 -0.75754,2.81291 -0.41665,0 -2.89165,-2.79333 -5.5,-6.2074 z m -129.28185,-9.5426 c 1.65316,-4.28857 1.60905,-14.76912 -0.0779,-18.51013 -0.9326,-2.06814 -1.37864,-4.07725 -0.9912,-4.46469 1.23819,-1.2382 4.0681,1.30675 5.36049,4.82072 1.3678,3.71902 0.8535,14.90422 -0.82994,18.04977 -1.30492,2.43826 -4.39704,2.53147 -3.46143,0.10433 z m 103.61735,-0.10433 c -1.68345,-3.14555 -2.19775,-14.33075 -0.82994,-18.04977 1.29239,-3.51397 4.12229,-6.05892 5.36049,-4.82072 0.38744,0.38744 -0.0586,2.39655 -0.99121,4.46469 -1.68696,3.74101 -1.73108,14.22156 -0.0779,18.51013 0.93561,2.42714 -2.15651,2.33393 -3.46143,-0.10433 z M 107.4899,145.15534 c -6.94787,-3.46885 -12.018029,-7.85176 -10.995965,-9.5055 0.292936,-0.47398 2.109545,-0.60588 4.036915,-0.29311 2.3931,0.38835 4.05204,0.083 5.23167,-0.96283 0.95006,-0.84233 3.75238,-1.77681 6.22738,-2.07662 16.1551,-1.95697 15.95096,-1.95228 16.55415,-0.38039 1.40688,3.66626 -7.96586,16.72245 -12.00032,16.7164 -1.12961,-0.002 -5.20383,-1.57577 -9.05383,-3.49795 z m 166.80397,0.25103 c -3.87428,-4.07704 -7.63102,-11.45535 -6.85812,-13.46948 0.60319,-1.57189 0.39905,-1.57658 16.55415,0.38039 2.475,0.29981 5.27732,1.23429 6.22738,2.07662 1.17963,1.04587 2.83857,1.35118 5.23167,0.96283 4.34329,-0.70482 5.09122,0.33037 2.56191,3.54587 -2.16674,2.75456 -15.54935,9.75377 -18.64939,9.75377 -1.08858,0 -3.369,-1.4625 -5.0676,-3.25 z m -170.82858,-21.14434 -1.90687,-1.39433 3.56907,-5.09838 c 1.963,-2.80412 5.32258,-6.45879 7.46574,-8.1215 2.14317,-1.6627 5.24667,-4.19201 6.89667,-5.62067 3.39318,-2.93801 13.51202,-9.370778 14.74038,-9.370778 0.44431,0 3.09748,-1.575 5.89594,-3.5 2.79846,-1.925 5.71871,-3.5 6.48946,-3.5 0.77075,0 2.18275,-0.443199 3.13779,-0.984886 0.95503,-0.541688 4.66143,-1.923821 8.23643,-3.071408 3.575,-1.147587 8.75,-3.124229 11.5,-4.392537 5.42411,-2.501618 16.67154,-4.806308 19.0332,-3.900057 2.31278,0.887499 1.71189,3.24927 -0.99985,3.929875 -1.35666,0.3405 -2.36916,1.071141 -2.25,1.623648 0.28572,1.324802 -20.19295,12.795365 -22.84387,12.795365 -1.34572,0 -15.49925,11.543378 -16.7467,13.658328 -1.66646,2.82535 -10.91494,10.87978 -13.5988,11.8431 -1.53453,0.55079 -3.42448,1.52797 -4.1999,2.17151 -4.68371,3.88713 -20.51345,5.78831 -24.41869,2.93272 z m 170.08224,-0.25943 c -2.16831,-0.78136 -4.5992,-1.96576 -5.40197,-2.63201 -0.80278,-0.66624 -2.71512,-1.662 -4.24964,-2.21279 -2.68386,-0.96332 -11.93234,-9.01775 -13.59881,-11.8431 -1.24745,-2.11495 -15.40097,-13.658328 -16.74669,-13.658328 -2.65092,0 -23.12959,-11.470563 -22.84387,-12.795365 0.11916,-0.552507 -0.89334,-1.283148 -2.25,-1.623648 -2.71174,-0.680605 -3.31263,-3.042376 -0.99985,-3.929875 2.36166,-0.906251 13.60909,1.398439 19.0332,3.900057 2.75,1.268308 7.925,3.24495 11.5,4.392537 3.575,1.147587 7.28139,2.52972 8.23643,3.071408 0.95504,0.541687 2.36704,0.984886 3.13779,0.984886 0.77075,0 3.691,1.575 6.48946,3.5 2.79846,1.925 5.45163,3.5 5.89594,3.5 1.22835,0 11.3472,6.432768 14.74038,9.370778 1.65,1.42866 4.7535,3.95797 6.89666,5.62067 2.14317,1.66271 5.50275,5.31738 7.46574,8.1215 l 3.56908,5.09838 -1.90687,1.39433 c -2.46503,1.80248 -13.67039,1.64921 -18.96698,-0.25943 z"
         id="path3964"
         inkscape:connector-curvature="0" />
    </g>
  </g>
</svg>
