<?xml version="1.0" encoding="UTF-8" standalone="no"?>
<!-- Created with Inkscape (http://www.inkscape.org/) -->

<svg
   xmlns:dc="http://purl.org/dc/elements/1.1/"
   xmlns:cc="http://creativecommons.org/ns#"
   xmlns:rdf="http://www.w3.org/1999/02/22-rdf-syntax-ns#"
   xmlns:svg="http://www.w3.org/2000/svg"
   xmlns="http://www.w3.org/2000/svg"
   xmlns:sodipodi="http://sodipodi.sourceforge.net/DTD/sodipodi-0.dtd"
   xmlns:inkscape="http://www.inkscape.org/namespaces/inkscape"
   width="744.09448819"
   height="1052.3622047"
   id="svg2"
   version="1.1"
   inkscape:version="0.48.1 "
   sodipodi:docname="New document 1">
  <defs
     id="defs4" />
  <sodipodi:namedview
     id="base"
     pagecolor="#ffffff"
     bordercolor="#666666"
     borderopacity="1.0"
     inkscape:pageopacity="0.0"
     inkscape:pageshadow="2"
     inkscape:zoom="1.979899"
     inkscape:cx="321.12133"
     inkscape:cy="838.41104"
     inkscape:document-units="px"
     inkscape:current-layer="layer1"
     showgrid="false"
     inkscape:window-width="1280"
     inkscape:window-height="1005"
     inkscape:window-x="1276"
     inkscape:window-y="-4"
     inkscape:window-maximized="1" />
  <metadata
     id="metadata7">
    <rdf:RDF>
      <cc:Work
         rdf:about="">
        <dc:format>image/svg+xml</dc:format>
        <dc:type
           rdf:resource="http://purl.org/dc/dcmitype/StillImage" />
        <dc:title></dc:title>
      </cc:Work>
    </rdf:RDF>
  </metadata>
  <g
     inkscape:label="Layer 1"
     inkscape:groupmode="layer"
     id="layer1">
    <path
       style="fill:#000000"
       d="m 308.07143,866.42179 c -29.8607,-4.6103 -55.24439,-17.30154 -75.37473,-37.68558 -10.11839,-10.2459 -15.40013,-17.61958 -21.65451,-30.23117 -8.65434,-17.45097 -10.6657,-25.70261 -11.22217,-46.03926 -0.52139,-19.05422 0.67832,-27.66238 5.82676,-41.80827 14.07825,-38.68152 50.63688,-69.28267 93.29823,-78.09461 10.58174,-2.18572 48.6711,-2.18572 59.25284,0 42.66135,8.81194 79.21998,39.41309 93.29823,78.09461 5.14844,14.14589 6.34815,22.75405 5.82676,41.80827 -0.55648,20.33665 -2.56783,28.58829 -11.22217,46.03926 -10.49228,21.15707 -25.79657,37.43828 -47.39275,50.41796 -25.92794,15.58315 -60.19447,22.19884 -90.63649,17.49879 z m 42,-2.89951 c 31.00354,-5.08017 57.75479,-19.64269 77.67559,-42.2841 11.36277,-12.91459 20.0524,-29.18451 24.54461,-45.95579 2.30206,-8.59453 2.62758,-11.77344 2.69076,-26.27735 0.0622,-14.28676 -0.24505,-17.70722 -2.29092,-25.5 -6.97695,-26.57546 -23.50121,-50.51385 -45.88934,-66.47905 -73.92387,-52.71584 -180.22682,-17.79173 -202.35074,66.47905 -2.04587,7.79278 -2.35316,11.21324 -2.29093,25.5 0.0632,14.50391 0.3887,17.68282 2.69076,26.27735 12.19241,45.51925 51.714,79.80771 101.72021,88.25123 10.46501,1.76701 32.68231,1.76122 43.5,-0.0113 z m -35,-0.14544 c -28.83981,-3.13471 -56.32807,-15.47842 -77.24073,-34.68524 -12.67619,-11.64221 -26.90088,-35.35842 -31.17874,-51.98296 -9.65503,-37.52127 0.24366,-75.20333 27.15415,-103.36964 18.67132,-19.54265 41.04805,-31.68554 68.81835,-37.34477 13.66164,-2.78406 38.2323,-2.78406 51.89394,0 27.77029,5.65923 50.14703,17.80212 68.81835,37.34477 26.9266,28.18318 36.80933,65.84232 27.14051,103.42168 -4.2641,16.57309 -18.50575,40.30417 -31.16511,51.93092 -17.9035,16.44312 -41.31898,28.23238 -65.28845,32.87151 -7.95672,1.53997 -31.41967,2.63247 -38.95227,1.81373 z m 35.11901,-3.89692 c 21.14787,-3.6317 40.43131,-11.93853 57.07614,-24.587 47.03467,-35.74182 57.99443,-97.25186 25.8842,-145.27135 -6.26267,-9.36556 -18.97384,-22.35489 -29.07935,-29.71571 -14.45653,-10.53007 -40.32683,-20.89419 -55.5,-22.2343 -5.63551,-0.49773 -5.90151,-0.45285 -2,0.33746 5.70862,1.15636 12.19419,3.13057 13.53482,4.12 0.91076,0.67218 15.55723,5.97703 20.96518,7.59345 1.1,0.32878 3.81014,1.82806 6.02253,3.33172 2.21239,1.50366 5.67257,3.42335 7.68929,4.26599 4.42036,1.84695 14.78818,9.36009 14.78818,10.7164 0,0.53265 0.5625,0.98765 1.25,1.0111 1.85716,0.0633 8.94864,6.86161 12.1282,11.62672 1.59712,2.39356 2.64143,5.16202 2.45192,6.5 l -0.33012,2.33064 -9,0.30916 c -9.46038,0.32498 -15.24591,-0.86991 -19.38486,-4.00355 -1.31167,-0.99309 -3.12888,-1.80561 -4.03824,-1.80561 -0.90935,0 -3.34607,-2.025 -5.41491,-4.5 -2.06884,-2.475 -4.41414,-4.5 -5.21176,-4.5 -0.79763,0 -1.45023,-0.45041 -1.45023,-1.00092 0,-1.78337 -12.3958,-13.15111 -16,-14.67301 -7.39088,-3.12085 -12.56805,-5.7966 -14.27595,-7.37833 -0.97677,-0.90461 -3.631,-2.25697 -5.89827,-3.00524 -2.26728,-0.74827 -4.32221,-2.12484 -4.56651,-3.05904 -0.2443,-0.93421 -1.33569,-1.93169 -2.42532,-2.21664 -1.49488,-0.39091 -1.90172,-1.21015 -1.65755,-3.3377 0.25425,-2.21532 0.96657,-2.95603 3.3236,-3.45606 1.65,-0.35004 -3.075,-0.63643 -10.5,-0.63643 -7.425,0 -12.15,0.28639 -10.5,0.63643 2.35703,0.50003 3.06935,1.24074 3.3236,3.45606 0.24417,2.12755 -0.16267,2.94679 -1.65755,3.3377 -1.08963,0.28495 -2.18102,1.28243 -2.42532,2.21664 -0.2443,0.9342 -2.29923,2.31077 -4.56651,3.05904 -2.26727,0.74827 -4.9215,2.10063 -5.89827,3.00524 -1.7079,1.58173 -6.88507,4.25748 -14.27595,7.37833 -3.6042,1.5219 -16,12.88964 -16,14.67301 0,0.55051 -0.65261,1.00092 -1.45023,1.00092 -0.79763,0 -3.14292,2.025 -5.21176,4.5 -2.06885,2.475 -4.50556,4.5 -5.41492,4.5 -0.90935,0 -2.72656,0.81252 -4.03823,1.80561 -4.13895,3.13364 -9.92448,4.32853 -19.38486,4.00355 l -9,-0.30916 -0.33012,-2.33064 c -0.18951,-1.33798 0.8548,-4.10644 2.45192,-6.5 3.17956,-4.76511 10.27104,-11.56338 12.1282,-11.62672 0.6875,-0.0234 1.25,-0.47845 1.25,-1.0111 0,-1.35631 10.36782,-8.86945 14.78818,-10.7164 2.01672,-0.84264 5.4769,-2.76234 7.68929,-4.26599 2.21239,-1.50366 4.92253,-3.00294 6.02253,-3.33172 5.40794,-1.61642 20.05441,-6.92127 20.96518,-7.59345 1.34063,-0.98943 7.8262,-2.96364 13.53482,-4.12 3.90151,-0.79031 3.63551,-0.83519 -2,-0.33746 -15.17317,1.34011 -41.04347,11.70423 -55.5,22.2343 -10.10551,7.36082 -22.81668,20.35015 -29.07935,29.71571 -32.11023,48.01949 -21.15047,109.52953 25.8842,145.27135 16.31497,12.39781 35.68884,20.84623 56.19515,24.5052 10.85794,1.93739 33.07379,1.97858 44.11901,0.0818 z m -28.61901,-2.52799 c -13.65859,-1.90835 -32.89353,-8.90861 -32.96442,-11.99689 -0.0581,-2.53174 2.12546,-3.95 6.08151,-3.95 2.0444,0 5.81671,-0.9 8.38291,-2 2.5662,-1.1 5.57973,-2 6.69675,-2 3.20784,0 9.44973,-3.97662 12.81502,-8.16427 4.2195,-5.2506 7.75696,-5.2506 11.97646,0 3.36529,4.18765 9.60718,8.16427 12.81502,8.16427 1.11702,0 4.13055,0.9 6.69675,2 2.5662,1.1 6.3385,2 8.38291,2 3.95605,0 6.13963,1.41826 6.08151,3.95 -0.0492,2.1418 -9.50795,6.35594 -20.96442,9.3402 -11.34379,2.95491 -18.57621,3.69393 -26,2.65669 z m 21.75449,-4.4991 c 5.36003,-1.40372 12.04036,-3.65372 14.84518,-5 2.80482,-1.34629 5.72982,-2.47942 6.5,-2.51808 2.84811,-0.14295 -2.70692,-1.7912 -6.26676,-1.85942 -2.01691,-0.0387 -5.76671,-0.97029 -8.33291,-2.07029 -2.5662,-1.1 -5.78285,-2 -7.14812,-2 -1.67553,0 -4.26988,-1.78757 -7.98231,-5.5 -3.025,-3.025 -5.89131,-5.5 -6.36957,-5.5 -0.47826,0 -3.34457,2.475 -6.36957,5.5 -3.71243,3.71243 -6.30678,5.5 -7.98231,5.5 -1.36527,0 -4.58192,0.9 -7.14812,2 -2.5662,1.1 -6.316,2.03163 -8.33291,2.07029 -3.55984,0.0682 -9.11487,1.71647 -6.26677,1.85942 0.77019,0.0387 3.69519,1.17471 6.50001,2.52456 7.24315,3.48585 22.08936,7.31337 28.85416,7.43892 3.29533,0.0612 9.91918,-0.98387 15.5,-2.4454 z m -66.75449,-17.34501 c -6.26438,-2.26891 -7,-2.87253 -7,-5.74386 l 0,-2.52304 6.75,0.52223 c 3.7125,0.28723 8.59954,0.81542 10.8601,1.17376 3.13351,0.49671 5.0843,0.15452 8.21016,-1.44018 2.25503,-1.15043 4.93354,-2.09169 5.95223,-2.09169 2.79956,0 12.5848,-7.90876 16.11002,-13.02065 2.45772,-3.56392 3.12073,-5.57446 3.1328,-9.5 0.008,-2.73864 0.40896,-5.60087 0.89008,-6.36051 0.55515,-0.87652 0.12669,-3.1812 -1.17266,-6.30779 l -2.04741,-4.92663 -2.79373,4.80779 c -1.53655,2.64428 -3.31227,5.93279 -3.94604,7.30779 -7.13752,15.48511 -10.43029,19.99616 -16.94753,23.2179 -4.86804,2.40648 -6.65852,2.72159 -15.6259,2.75 -6.61538,0.021 -11.32199,-0.46683 -13.57096,-1.40651 -3.36955,-1.40789 -16.80116,-14.65317 -16.80116,-16.56809 0,-0.53307 -2.29958,-5.86493 -5.11017,-11.84858 -4.33306,-9.22493 -5.63083,-11.12765 -8.53393,-12.51204 -6.56666,-3.13143 -13.70039,-1.01339 -11.35392,3.37102 0.54891,1.02565 0.99802,2.7944 0.99802,3.93056 0,2.66852 -4.009,2.81826 -6.34501,0.237 -2.0246,-2.23715 -2.32817,-12.6219 -0.40499,-13.85415 2.76804,-1.77358 8.48308,-3.28783 12.46254,-3.30205 3.49198,-0.0125 5.11696,0.72203 9.5,4.29416 6.02447,4.90988 8.94488,9.4917 11.76143,18.45249 2.45126,7.79859 3.40794,9.64675 7.81568,15.09875 4.90511,6.0672 8.66874,8.1313 14.83462,8.1358 11.14692,0.008 22.27491,-7.2013 26.96059,-17.46681 3.58418,-7.85233 4.3143,-11.45576 2.97867,-14.70097 l -1.09951,-2.67152 -4.81376,2.32002 c -8.42915,4.06248 -20.06879,5.49184 -27.40186,3.36498 -5.21802,-1.51341 -13.23207,-8.73677 -14.9402,-13.46614 -3.6498,-10.10536 -4.10643,-17.62234 -1.51113,-24.87582 1.35809,-3.79566 2.34519,-5.08019 4.09807,-5.33293 l 2.30907,-0.33293 -0.56335,4.83293 c -0.30985,2.65811 -0.85038,6.71733 -1.20119,9.02049 -0.48214,3.16535 -0.14946,5.11819 1.36284,8 1.10037,2.09684 2.56008,5.30036 3.2438,7.11893 1.64518,4.37589 8.95969,8.19351 15.69865,8.19351 5.6377,0 18.44824,-5.62396 20.17961,-8.85906 0.59149,-1.1052 1.10136,-6.87654 1.13306,-12.8252 0.0317,-5.94866 0.38186,-12.61574 0.77815,-14.81574 l 0.72052,-4 2.97185,0.0837 c 1.63452,0.0461 3.87185,0.43848 4.97185,0.87208 1.1,0.43359 -0.475,-0.73927 -3.5,-2.60637 l -5.5,-3.39473 0.23543,-3.47734 c 0.73327,-10.83046 4.45784,-35.20431 6.72018,-43.97734 0.35458,-1.375 -0.57702,-0.25 -2.07022,2.5 -1.4932,2.75 -3.04731,6.575 -3.45357,8.5 -0.40626,1.925 -1.45712,6.10946 -2.33524,9.29879 -0.87812,3.18933 -1.60336,7.91433 -1.61164,10.5 -0.0155,4.83174 -1.85296,11.46923 -3.6812,13.29747 -0.56761,0.56761 -2.98784,0.89065 -5.37829,0.71788 l -4.34628,-0.31414 -0.84322,-4 c -2.86702,-13.60029 3.54739,-33.28736 15.78726,-48.45416 5.6495,-7.00047 19.37172,-20.69615 23.4493,-23.40393 1.35987,-0.90305 1.99996,-1.64191 1.4224,-1.64191 -1.68491,0 -13.37823,4.94473 -16.25906,6.87544 -1.44972,0.97158 -7.36085,4.87835 -13.13585,8.68169 -5.775,3.80334 -11.77389,8.2714 -13.33087,9.92902 -3.68951,3.928 -11.66913,17.45592 -11.66913,19.78278 0,0.99591 -0.9,3.57489 -2,5.73107 -4.23439,8.30009 -1.61702,32 3.53401,32 1.07879,0 1.50031,0.71204 1.28554,2.17154 -0.3102,2.10798 3.97364,7.82846 5.86242,7.82846 0.48375,0 1.38912,-1.35 2.01192,-3 0.9204,-2.43841 1.70864,-3 4.21077,-3 1.99538,0 3.51781,-0.70362 4.32741,-2 1.44476,-2.31343 5.51211,-2.63876 8.22151,-0.6576 l 1.83585,1.3424 -1.60584,9.4076 c -2.91917,17.10161 -3.00413,17.37811 -5.44706,17.72715 -1.23009,0.17575 -2.23653,-0.10926 -2.23653,-0.63337 0,-0.5241 -0.9,-1.18827 -2,-1.47593 -1.11175,-0.29073 -2,-1.36401 -2,-2.41663 0,-2.19198 -1.81591,-4.29362 -3.70988,-4.29362 -0.72042,0 -4.5811,-2.65218 -8.57928,-5.89373 -7.97907,-6.46908 -10.50259,-10.7641 -12.69467,-21.60627 -1.39024,-6.8762 -1.38778,-10.93713 0.008,-13.54552 0.5366,-1.00265 0.97564,-4.40813 0.97564,-7.56774 0,-8.23868 3.30097,-18.07026 8.42742,-25.10016 1.68992,-2.31738 4.38821,-6.01899 5.9962,-8.2258 4.24993,-5.8326 14.49631,-14.55236 18.74638,-15.95333 2.01851,-0.66536 4.21111,-1.86174 4.87245,-2.6586 0.66134,-0.79687 2.02981,-1.44885 3.04104,-1.44885 1.01123,0 2.64363,-0.83841 3.62755,-1.86313 0.98393,-1.02472 2.91396,-2.11308 4.28896,-2.41858 1.375,-0.30549 4.3,-1.24733 6.5,-2.09298 5.13605,-1.9742 15.86395,-1.9742 21,0 2.2,0.84565 5.125,1.78749 6.5,2.09298 1.375,0.3055 3.30503,1.39386 4.28896,2.41858 0.98392,1.02472 2.61632,1.86313 3.62755,1.86313 1.01123,0 2.3797,0.65198 3.04104,1.44885 0.66134,0.79686 2.85394,1.99324 4.87244,2.6586 4.25007,1.40097 14.49646,10.12073 18.74638,15.95333 1.608,2.20681 4.30629,5.90842 5.9962,8.2258 5.12646,7.0299 8.42743,16.86148 8.42743,25.10016 0,3.15961 0.43904,6.56509 0.97564,7.56774 1.39597,2.60839 1.39842,6.66932 0.008,13.54552 -2.19208,10.84217 -4.71561,15.13719 -12.69467,21.60627 -3.99799,3.24155 -7.85867,5.89373 -8.5791,5.89373 -1.89396,0 -3.70987,2.10164 -3.70987,4.29362 0,1.05262 -0.88825,2.1259 -2,2.41663 -1.1,0.28766 -2,0.95183 -2,1.47593 0,0.52411 -1.00644,0.80912 -2.23654,0.63337 -2.44292,-0.34904 -2.52788,-0.62554 -5.44705,-17.72715 l -1.60584,-9.4076 1.83585,-1.3424 c 2.7094,-1.98116 6.77674,-1.65583 8.22151,0.6576 0.8096,1.29638 2.33202,2 4.32741,2 2.50213,0 3.29036,0.56159 4.21076,3 0.62281,1.65 1.52817,3 2.01193,3 1.88878,0 6.17262,-5.72048 5.86242,-7.82846 -0.21477,-1.4595 0.20675,-2.17154 1.28554,-2.17154 5.15103,0 7.7684,-23.69991 3.53401,-32 -1.1,-2.15618 -2,-4.73516 -2,-5.73107 0,-2.32686 -7.97963,-15.85478 -11.66914,-19.78278 -1.55697,-1.65762 -7.55586,-6.12568 -13.33086,-9.92902 -5.775,-3.80334 -11.68613,-7.71011 -13.13585,-8.68169 -2.88083,-1.93071 -14.57415,-6.87544 -16.25906,-6.87544 -0.57756,0 0.0625,0.73886 1.4224,1.64191 4.07758,2.70778 17.7998,16.40346 23.4493,23.40393 12.23987,15.1668 18.65428,34.85387 15.78726,48.45416 l -0.84322,4 -4.34628,0.31414 c -2.39045,0.17277 -4.81068,-0.15027 -5.37829,-0.71788 -1.82824,-1.82824 -3.66573,-8.46573 -3.6812,-13.29747 -0.008,-2.58567 -0.73352,-7.31067 -1.61164,-10.5 -0.87812,-3.18933 -1.92898,-7.37379 -2.33524,-9.29879 -0.40626,-1.925 -1.96037,-5.75 -3.45357,-8.5 -1.4932,-2.75 -2.4248,-3.875 -2.07022,-2.5 2.26234,8.77303 5.98691,33.14688 6.72018,43.97735 l 0.23543,3.47734 -5.5,3.39473 c -3.025,1.8671 -4.6,3.03996 -3.5,2.60637 1.1,-0.4336 3.33733,-0.82603 4.97185,-0.87208 l 2.97185,-0.0837 0.72052,4 c 0.39629,2.2 0.74645,8.86708 0.77815,14.81574 0.0317,5.94866 0.54157,11.72 1.13306,12.8252 1.73137,3.2351 14.54191,8.85906 20.1796,8.85906 6.73897,0 14.05347,-3.81762 15.69866,-8.19351 0.68372,-1.81857 2.14343,-5.02209 3.2438,-7.11893 1.5123,-2.88181 1.84497,-4.83465 1.36284,-8 -0.35081,-2.30316 -0.89134,-6.36238 -1.20119,-9.02049 l -0.56335,-4.83293 2.30906,0.33293 c 1.75289,0.25274 2.73998,1.53727 4.09808,5.33293 2.5953,7.25348 2.13867,14.77046 -1.51113,24.87582 -1.70813,4.72937 -9.72218,11.95273 -14.9402,13.46614 -7.33308,2.12686 -18.97272,0.6975 -27.40187,-3.36498 l -4.81375,-2.32002 -1.09951,2.67152 c -1.33563,3.24521 -0.60551,6.84864 2.97867,14.70097 4.68568,10.26551 15.81367,17.47494 26.96059,17.46681 6.16587,-0.005 9.92951,-2.0686 14.83462,-8.1358 4.40773,-5.452 5.36441,-7.30016 7.81567,-15.09875 2.81656,-8.96079 5.73697,-13.54261 11.76144,-18.45249 4.38304,-3.57213 6.00802,-4.30664 9.5,-4.29416 3.97946,0.0142 9.6945,1.52847 12.46254,3.30205 0.76369,0.48933 1.25,3.05195 1.25,6.58692 0,6.3174 -1.78052,9.09597 -5.82874,9.09597 -2.39719,0 -2.92866,-2.71628 -1.17324,-5.9963 2.34647,-4.38441 -4.78726,-6.50245 -11.35392,-3.37102 -2.90311,1.38439 -4.20087,3.28711 -8.53393,12.51204 -2.81059,5.98364 -5.11017,11.3155 -5.11017,11.84857 0,1.91492 -13.43162,15.1602 -16.80116,16.56809 -2.24897,0.93968 -6.95558,1.42748 -13.57096,1.40651 -8.96739,-0.0284 -10.75787,-0.34352 -15.62591,-2.75 -6.51723,-3.22174 -9.81,-7.73279 -16.94752,-23.2179 -0.63377,-1.375 -2.40949,-4.66351 -3.94604,-7.30779 l -2.79373,-4.80779 -2.04741,4.92663 c -1.29935,3.12659 -1.72781,5.43127 -1.17266,6.30779 0.48112,0.75964 0.88166,3.62187 0.89008,6.36051 0.0121,3.92554 0.67508,5.93608 3.1328,9.5 3.52522,5.11189 13.31046,13.02065 16.11002,13.02065 1.01869,0 3.69719,0.94126 5.95223,2.09169 3.12585,1.5947 5.07664,1.93689 8.21016,1.44018 2.26055,-0.35834 7.1476,-0.88653 10.8601,-1.17376 l 6.75,-0.52223 0,2.52304 c 0,2.91754 -0.71607,3.47471 -7.5,5.83567 -8.23634,2.86644 -18.7756,2.40306 -27.53934,-1.21081 -9.32825,-3.84667 -12.90681,-6.6186 -18.74515,-14.5199 -2.59353,-3.50994 -4.94051,-6.38171 -5.21551,-6.38171 -0.275,0 -2.62198,2.87177 -5.21551,6.38171 -5.83834,7.9013 -9.4169,10.67323 -18.74515,14.5199 -6.24398,2.57481 -8.50164,2.99666 -15.42688,2.88254 -4.65611,-0.0767 -10.02971,-0.82809 -12.61246,-1.76354 z m 21,-1.6965 c 7.69069,-2.674 18.10081,-8.62635 19.80939,-11.32672 3.46896,-5.4826 9.58044,-12.07956 11.19061,-12.07956 1.61017,0 7.72165,6.59696 11.19061,12.07956 1.70858,2.70037 12.1187,8.65272 19.80939,11.32672 6.0353,2.09842 9.87581,1.99062 17.28155,-0.48509 7.6448,-2.55563 9.94718,-4.4374 4.21845,-3.44781 -2.2,0.38004 -7.44111,0.9118 -11.64692,1.18171 -6.2355,0.40015 -8.3581,0.13432 -11.5,-1.44028 -2.11919,-1.06206 -4.97893,-2.20042 -6.35497,-2.52969 -2.81885,-0.67453 -13.39518,-9.72781 -15.21983,-13.0281 -1.07366,-1.94197 -1.54481,-4.46403 -3.39189,-18.15702 -0.71507,-5.30107 2.64429,-13.5 5.53139,-13.5 1.09387,0 2.70004,1.0125 3.56927,2.25 3.82606,5.44707 6.51295,9.91396 6.51295,10.82765 0,1.5164 4.91253,10.90234 8.26706,15.79516 4.21996,6.1551 13.05617,10.13314 22.46098,10.11188 3.72458,-0.008 7.44696,-0.45153 8.27196,-0.98469 1.03684,-0.67006 -1.00137,-0.9741 -6.60106,-0.98469 -9.24125,-0.0175 -14.87144,-2.30481 -21.77127,-8.84488 -7.05303,-6.6853 -11.512,-21.20704 -8.64041,-28.13966 1.59074,-3.84041 3.45557,-3.84562 11.01274,-0.0308 3.26863,1.65 6.71135,3 7.65049,3 0.93913,0 3.15937,0.525 4.93386,1.16666 2.63868,0.95416 4.23426,0.84964 8.75983,-0.57383 3.04341,-0.95727 6.12351,-2.46652 6.84465,-3.35389 1.14686,-1.41121 1.06053,-1.50814 -0.68883,-0.77347 -1.1,0.46197 -4.71604,1.28119 -8.03565,1.8205 -7.24905,1.1777 -14.31507,-0.52214 -21.71435,-5.22372 l -4.75,-3.0182 -0.0239,-11.77203 c -0.0208,-10.24965 -0.93806,-18.56728 -2.1852,-19.81441 -0.56103,-0.56103 -9.43879,2.0304 -15.79094,4.60939 -3.025,1.22815 -6.625,2.23301 -8,2.23301 -1.375,0 -4.975,-1.00486 -8,-2.23301 -6.35215,-2.57899 -15.22991,-5.17042 -15.79094,-4.60939 -1.24714,1.24713 -2.16443,9.56476 -2.1852,19.81441 l -0.0238,11.77203 -4.75,3.0182 c -7.39928,4.70158 -14.46531,6.40142 -21.71435,5.22372 -3.31961,-0.53931 -6.93565,-1.35853 -8.03565,-1.8205 -1.74937,-0.73467 -1.83569,-0.63774 -0.68883,0.77347 0.72114,0.88737 3.80123,2.39662 6.84465,3.35389 4.52557,1.42347 6.12115,1.52799 8.75983,0.57383 1.77449,-0.64166 3.99473,-1.16666 4.93386,-1.16666 0.93914,0 4.38185,-1.35 7.65049,-3 7.55717,-3.81485 9.422,-3.80964 11.01274,0.0308 2.87159,6.93262 -1.58738,21.45436 -8.64042,28.13966 -6.89982,6.54007 -12.53001,8.82741 -21.77126,8.84488 -5.59969,0.0106 -7.63791,0.3146 -6.60106,0.98466 0.825,0.53316 4.54738,0.97627 8.27195,0.98469 9.40482,0.0213 18.24103,-3.95678 22.46099,-10.11188 3.35453,-4.89282 8.26706,-14.27876 8.26706,-15.79516 0,-0.91369 2.68689,-5.38058 6.51295,-10.82765 0.86923,-1.2375 2.4754,-2.25 3.56927,-2.25 2.8871,0 6.24646,8.19893 5.53139,13.5 -1.84708,13.69299 -2.31823,16.21505 -3.39189,18.15702 -1.82465,3.30029 -12.40098,12.35357 -15.21983,13.0281 -1.37604,0.32927 -4.23578,1.46763 -6.35497,2.52969 -3.1419,1.5746 -5.26451,1.84043 -11.5,1.44028 -4.20581,-0.26991 -9.44692,-0.80167 -11.64692,-1.18171 -5.46219,-0.94355 -3.58799,0.83883 3.5,3.32854 6.9071,2.42617 12.24483,2.60539 18,0.60436 z m 7.66667,-64.07295 c -1.24383,-1.24382 -0.67453,-8.08192 0.77286,-9.28314 0.79174,-0.65709 2.70424,-1.04969 4.25,-0.87245 2.44116,0.27991 2.85051,0.80255 3.11517,3.97724 0.23972,2.87553 -0.18093,3.99513 -1.97251,5.25 -2.37903,1.66634 -5.02859,2.06529 -6.16552,0.92835 z m 5.71234,-4.87862 c 0.84164,-2.19329 -1.5395,-2.95571 -2.99868,-0.96016 -0.72395,0.99005 -1.09127,2.16415 -0.81627,2.6091 0.68895,1.11474 3.16513,0.0445 3.81495,-1.64894 z m 34.81629,3.97995 c -1.81883,-1.28218 -2.24046,-2.39523 -2,-5.27968 0.27285,-3.27293 0.62719,-3.68645 3.38987,-3.95605 3.98846,-0.38921 5.62778,1.64258 5.22936,6.48128 -0.36445,4.42599 -2.80653,5.44221 -6.61923,2.75445 z m 3.77222,-4.49535 c -1.11612,-2.08549 -2.50329,-2.49946 -3.41769,-1.01993 -0.7412,1.19928 2.33386,4.27054 3.53349,3.52912 0.55136,-0.34075 0.5048,-1.34959 -0.1158,-2.50919 z m -91.96752,46.71568 c 0,-0.18976 -1.0125,-1.20226 -2.25,-2.25 l -2.25,-1.90499 1.90498,2.25 c 1.79022,2.11444 2.59502,2.70524 2.59502,1.90499 z m 144.5,-1.65499 c 0.99549,-1.1 1.58498,-2 1.30998,-2 -0.275,0 -1.31449,0.9 -2.30998,2 -0.99549,1.1 -1.58498,2 -1.30998,2 0.275,0 1.31449,-0.9 2.30998,-2 z m -152.37793,-11.675 c -1.17884,-2.02721 -1.46351,-1.37835 -0.49853,1.13634 0.34294,0.8937 0.83419,1.41426 1.09166,1.15679 0.25747,-0.25747 -0.009,-1.28938 -0.59313,-2.29313 z m 158.8473,-0.825 c 0,-0.55 -0.43621,-0.325 -0.96937,0.5 -0.53316,0.825 -0.96937,1.95 -0.96937,2.5 0,0.55 0.43621,0.325 0.96937,-0.5 0.53316,-0.825 0.96937,-1.95 0.96937,-2.5 z M 246.68793,790.3494 c -1.11546,-2.1144 -2.048,-3.52213 -2.07231,-3.12829 -0.071,1.14992 3.27512,7.79795 3.70733,7.36574 0.2162,-0.2162 -0.51957,-2.12304 -1.63502,-4.23745 z m 165.79967,-2.84436 c 0,-0.55 -0.86228,0.575 -1.91617,2.5 -1.05389,1.925 -1.91617,3.95 -1.91617,4.5 0,0.55 0.86228,-0.575 1.91617,-2.5 1.05389,-1.925 1.91617,-3.95 1.91617,-4.5 z m -190.70524,-9.25 c 0.63855,-0.77198 3.58758,-1.25 7.71151,-1.25 3.95714,0 7.2262,0.50925 8.02426,1.25 1.07859,1.00114 1.20445,0.99829 0.63215,-0.0143 -0.393,-0.69536 -2.39963,-2.12395 -4.45918,-3.17466 l -3.74462,-1.91036 -4.72183,1.55448 c -5.35516,1.76299 -7.18944,4.23278 -6.04398,8.13797 l 0.7793,2.65686 0.39421,-3 c 0.21682,-1.65 0.8595,-3.5625 1.42818,-4.25 z m 216.03446,0.38922 c -0.69356,-1.5222 -2.74202,-2.89485 -5.84415,-3.91612 l -4.77629,-1.57241 -3.74463,1.91036 c -2.05954,1.05071 -4.06617,2.4793 -4.45918,3.17466 -0.57229,1.01258 -0.44643,1.01543 0.63216,0.0143 1.74974,-1.6241 14.13328,-1.66342 15.7467,-0.05 0.66,0.66 1.23046,2.5725 1.26768,4.25 l 0.0677,3.05 1.08894,-2.25854 c 0.77579,-1.60902 0.78185,-2.93255 0.0211,-4.60224 z m -194.24539,4.9198 c 0,-0.24254 -0.51953,-0.76207 -1.15451,-1.15451 -0.7153,-0.44208 -0.88306,-0.27432 -0.44098,0.44098 0.71244,1.15275 1.59549,1.54767 1.59549,0.71353 z m 171.5,-0.55902 c 0.33992,-0.55 0.39303,-1 0.11803,-1 -0.275,0 -0.77811,0.45 -1.11803,1 -0.33992,0.55 -0.39303,1 -0.11803,1 0.275,0 0.77811,-0.45 1.11803,-1 z m -149.5,-2.34501 c 0,-0.18976 -1.0125,-1.20226 -2.25,-2.25 l -2.25,-1.90499 1.90498,2.25 c 1.79022,2.11444 2.59502,2.70524 2.59502,1.90499 z m 128.5,-1.65499 c 0.99549,-1.1 1.58498,-2 1.30998,-2 -0.275,0 -1.31449,0.9 -2.30998,2 -0.99549,1.1 -1.58498,2 -1.30998,2 0.275,0 1.31449,-0.9 2.30998,-2 z m -133.93162,-6.49057 c -2.05813,-4.9258 -3.50167,-7.25947 -3.53797,-5.71959 -0.0346,1.46692 3.75149,9.21016 4.50333,9.21016 0.2712,0 -0.16321,-1.57076 -0.96536,-3.49057 z m 138.4113,-0.46959 c 2.05726,-4.03258 2.84505,-8.06056 0.93495,-4.78041 -1.65879,2.84856 -3.98333,8.74057 -3.44837,8.74057 0.2712,0 1.40224,-1.78207 2.51342,-3.96016 z M 256.50804,758.75504 c -0.0505,-4.18083 -0.24852,-4.7892 -0.97246,-2.98732 -0.80729,2.00932 -0.30764,8.23732 0.66085,8.23732 0.20625,0 0.34647,-2.3625 0.31161,-5.25 z m 37.06339,2.68426 c 0,-1.41116 0.40367,-3.32366 0.89704,-4.25 0.49338,-0.92634 1.21378,-4.65619 1.6009,-8.28855 0.61268,-5.74891 0.47834,-6.69083 -1.03721,-7.2724 -1.14917,-0.44098 -2.22262,0.0194 -3.1576,1.35429 -0.89183,1.27326 -2.53897,2.0224 -4.4467,2.0224 -2.44854,0 -3.24751,0.57583 -4.16254,3 -0.82818,2.19412 -1.78198,3 -3.55063,3 l -2.41827,0 3.77501,3 c 2.07625,1.65 4.38209,3 5.12408,3 0.74199,0 2.00715,1.575 2.81147,3.5 1.73572,4.15416 4.56445,4.73315 4.56445,0.93426 z m 74.56445,-0.93426 c 0.80431,-1.925 2.06947,-3.5 2.81147,-3.5 0.74199,0 3.04782,-1.35 5.12408,-3 l 3.77501,-3 -2.41827,0 c -1.76866,0 -2.72245,-0.80588 -3.55064,-3 -0.91502,-2.42417 -1.71399,-3 -4.16253,-3 -1.90773,0 -3.55488,-0.74914 -4.44671,-2.0224 -0.93498,-1.33487 -2.00842,-1.79527 -3.15759,-1.35429 -1.51556,0.58157 -1.64989,1.52349 -1.03721,7.2724 0.38712,3.63236 1.10752,7.36221 1.60089,8.28855 0.49338,0.92634 0.89705,2.83884 0.89705,4.25 0,3.79889 2.82873,3.2199 4.56445,-0.93426 z m 33.50248,-4.65332 c -0.75454,-1.88337 -0.93487,-1.26081 -0.91336,3.15332 l 0.0268,5.5 0.91335,-3.15332 c 0.55897,-1.92983 0.54857,-4.06383 -0.0268,-5.5 z M 258.5408,748.50504 c 0,-0.55 -0.43622,-0.325 -0.96937,0.5 -0.53316,0.825 -0.96938,1.95 -0.96938,2.5 0,0.55 0.43622,0.325 0.96938,-0.5 0.53315,-0.825 0.96937,-1.95 0.96937,-2.5 z m 141.1527,0.825 c -1.17884,-2.02721 -1.46351,-1.37835 -0.49853,1.13634 0.34294,0.8937 0.83419,1.41426 1.09166,1.15679 0.25747,-0.25747 -0.009,-1.28938 -0.59313,-2.29313 z m -126.77567,-2.575 c -2.14957,-2.3375 -4.51745,-5.72693 -5.26196,-7.53206 -0.7445,-1.80514 -1.55126,-3.08446 -1.79278,-2.84294 -0.83641,0.83641 2.94474,7.14173 6.52147,10.875 4.93149,5.14732 5.35844,4.74701 0.53327,-0.5 z m 116.81099,-6.09691 c 1.09017,-2.11579 1.78631,-4.04272 1.54697,-4.28206 -0.23933,-0.23934 -1.0443,1.04177 -1.7888,2.84691 -0.74451,1.80513 -3.15182,5.30706 -5.34957,7.78206 l -3.99592,4.5 3.80259,-3.5 c 2.09143,-1.925 4.69456,-5.23111 5.78473,-7.34691 z m -57.98582,6.03774 3.67157,-1.27907 -6.90179,0 -6.90179,0 3.23022,1.17481 c 1.77662,0.64615 3.23022,1.22172 3.23022,1.27906 0,0.0573 1.65221,-0.47132 3.67157,-1.1748 z m 11.6564,-7.60433 c 4.28096,-2.15243 8.23701,-4.51493 8.79122,-5.25 1.4108,-1.8712 0.0828,-15.10648 -3.44527,-34.3365 -0.50453,-2.75 -1.87506,-7.87112 -3.04562,-11.38027 -2.81679,-8.44426 -2.76335,-10.11973 0.32276,-10.11973 1.98206,0 3.16031,1.26826 6.1577,6.62809 2.03865,3.64544 4.04221,8.25794 4.45236,10.25 0.41014,1.99205 1.46418,6.23137 2.3423,9.4207 0.87812,3.18933 1.59658,7.82978 1.59658,10.3121 0,9.99356 5.09596,18.72172 8.77987,15.03781 1.8534,-1.8534 2.11973,-16.1491 0.33412,-17.93471 -0.61269,-0.6127 -1.11399,-1.92122 -1.11399,-2.90783 0,-3.43347 -9.65871,-21.48496 -15.1812,-28.37265 -5.95439,-7.42636 -16.57681,-17.95201 -21.06151,-20.86964 -1.70631,-1.11009 -3.64835,-1.55704 -5.13937,-1.18282 -3.16985,0.79558 -16.48942,13.31135 -23.44906,22.03397 -5.52322,6.92233 -15.16886,24.97582 -15.16886,28.39114 0,0.98661 -0.5013,2.29513 -1.11399,2.90783 -1.78561,1.78561 -1.51929,16.08131 0.33412,17.93471 3.68391,3.68391 8.77987,-5.04425 8.77987,-15.03781 0,-2.48232 0.71846,-7.12277 1.59658,-10.3121 0.87812,-3.18933 1.93216,-7.42865 2.3423,-9.4207 0.41015,-1.99206 2.41371,-6.60456 4.45236,-10.25 2.99739,-5.35983 4.17564,-6.62809 6.1577,-6.62809 3.08611,0 3.13955,1.67547 0.32276,10.11973 -1.17056,3.50915 -2.54109,8.63027 -3.04562,11.38027 -3.5266,19.22207 -4.85595,32.46539 -3.44651,34.335 0.55352,0.73425 4.40706,3.07426 8.56342,5.20001 6.67047,3.41159 8.41014,3.87088 14.82921,3.915 6.51682,0.0448 8.08068,-0.35651 15.05577,-3.86351 z m -78.16131,-5.75317 c -0.36666,-0.36666 -0.66666,-0.0667 -0.66666,0.66667 0,0.73333 0.3,1.03333 0.66666,0.66667 0.36667,-0.36667 0.36667,-0.96667 0,-1.33334 z m 127.00001,0 c -0.36667,-0.36666 -0.66667,-0.0667 -0.66667,0.66667 0,0.73333 0.3,1.03333 0.66667,0.66667 0.36666,-0.36667 0.36666,-0.96667 0,-1.33334 z m -128.55049,-8.9324 c -0.5034,-2.14551 -0.95434,-3.00093 -1.00208,-1.90093 -0.10321,2.3783 0.97489,6.74434 1.52863,6.1906 0.2138,-0.21381 -0.0232,-2.14415 -0.52655,-4.28967 z m 130.81353,-1.3176 c 0.10163,-3.49421 -0.56648,-2.22634 -1.27346,2.41667 -0.42449,2.7878 -0.33447,3.3939 0.29705,2 0.49837,-1.1 0.93776,-3.0875 0.97641,-4.41667 z m -127.26305,-22.75 c -0.36666,-0.36666 -0.66666,-0.0667 -0.66666,0.66667 0,0.73333 0.3,1.03333 0.66666,0.66667 0.36667,-0.36667 0.36667,-0.96667 0,-1.33334 z m 123.00001,0 c -0.36667,-0.36666 -0.66667,-0.0667 -0.66667,0.66667 0,0.73333 0.3,1.03333 0.66667,0.66667 0.36666,-0.36667 0.36666,-0.96667 0,-1.33334 z m -122.00001,-3 c -0.36666,-0.36666 -0.66666,-0.0667 -0.66666,0.66667 0,0.73333 0.3,1.03333 0.66666,0.66667 0.36667,-0.36667 0.36667,-0.96667 0,-1.33334 z m 121.00001,0 c -0.36667,-0.36666 -0.66667,-0.0667 -0.66667,0.66667 0,0.73333 0.3,1.03333 0.66667,0.66667 0.36666,-0.36667 0.36666,-0.96667 0,-1.33334 z m -117.16667,-7.33333 c 0.33992,-0.55 0.39303,-1 0.11803,-1 -0.275,0 -0.77811,0.45 -1.11803,1 -0.33992,0.55 -0.39304,1 -0.11804,1 0.275,0 0.77812,-0.45 1.11804,-1 z m 114.5,0.55902 c 0,-0.24254 -0.51953,-0.76207 -1.15451,-1.15451 -0.7153,-0.44208 -0.88306,-0.27432 -0.44098,0.44098 0.71244,1.15275 1.59549,1.54767 1.59549,0.71353 z m -76.19313,-8.08548 c -0.30789,-0.30789 -0.86705,0.24711 -1.24258,1.23333 -0.54268,1.4252 -0.42782,1.54006 0.5598,0.5598 0.68342,-0.67834 0.99067,-1.48525 0.68278,-1.79313 z m 37.53821,0.98333 c -0.32569,-0.84872 -0.80663,-1.32866 -1.06875,-1.06653 -0.26213,0.26213 -0.17998,0.95654 0.18255,1.54313 0.98605,1.59546 1.56238,1.28551 0.8862,-0.4766 z m -68.84508,-3.45687 c 0.33992,-0.55 0.39303,-1 0.11803,-1 -0.275,0 -0.77811,0.45 -1.11803,1 -0.33992,0.55 -0.39304,1 -0.11804,1 0.275,0 0.77812,-0.45 1.11804,-1 z m 100.5,0.55902 c 0,-0.24254 -0.51953,-0.76207 -1.15451,-1.15451 -0.7153,-0.44208 -0.88306,-0.27432 -0.44098,0.44098 0.71244,1.15275 1.59549,1.54767 1.59549,0.71353 z m -83.55861,-14.30902 c 5.86605,-3.9875 10.2916,-7.25 9.83458,-7.25 -0.45703,0 -1.82555,0.69664 -3.04117,1.54809 -1.21561,0.85145 -3.73115,2.08895 -5.5901,2.75 -1.85893,0.66105 -6.25197,3.89751 -9.76229,7.19213 -3.51033,3.29462 -5.42034,5.31962 -4.24448,4.5 1.17587,-0.81962 6.93742,-4.75272 12.80346,-8.74022 z m 73.4832,4 c -3.40418,-3.1625 -7.71036,-6.29086 -9.5693,-6.95191 -1.85894,-0.66105 -4.37448,-1.89855 -5.59009,-2.75 -1.21562,-0.85145 -2.61782,-1.54809 -3.11601,-1.54809 -0.49819,0 2.63103,2.30887 6.95382,5.13081 4.32278,2.82195 9.84523,6.64695 12.2721,8.5 2.42687,1.85305 4.59843,3.36919 4.82569,3.36919 0.22726,0 -2.37203,-2.5875 -5.77621,-5.75 z M 312.6253,656.10876 c 1.54648,-0.61764 1.84325,-1.00026 0.80691,-1.04034 -0.90156,-0.0348 -2.49777,0.72412 -3.54713,1.68662 -1.04935,0.9625 -1.41246,1.43065 -0.80691,1.04033 0.60555,-0.39032 2.20176,-1.1493 3.54713,-1.68662 z m 35.08535,0.86301 c -1.29844,-1.0817 -3.09844,-1.96603 -4,-1.96518 -0.90157,8.6e-4 -0.0642,0.84571 1.86078,1.87746 4.57725,2.45328 4.99952,2.47059 2.13922,0.0877 z m -17.88922,-2.62901 c -0.6875,-0.27741 -1.8125,-0.27741 -2.5,0 -0.6875,0.27741 -0.125,0.50438 1.25,0.50438 1.375,0 1.9375,-0.22697 1.25,-0.50438 z m -4.25,-2.38341 c 1.09546,-0.74131 0.69092,-0.83408 -1.5,-0.34401 -3.67693,0.82247 -4.47511,1.39483 -1.91667,1.37439 1.05417,-0.008 2.59167,-0.47209 3.41667,-1.03038 z m 10.91667,0.68637 c -0.22917,-0.19763 -1.76667,-0.6613 -3.41667,-1.03038 -2.19092,-0.49007 -2.59546,-0.3973 -1.5,0.34401 1.35037,0.91381 5.92015,1.55175 4.91667,0.68637 z m -91.3962,169.10932 c -3.80145,-3.4375 -7.83619,-7.18559 -8.9661,-8.32908 -3.38045,-3.42111 -9.55437,-12.41899 -9.55437,-13.92454 0,-1.48306 8.03534,-5.49638 11.00467,-5.49638 2.33169,0 3.51264,1.56241 8.11826,10.74056 2.14154,4.26769 5.43509,9.78444 7.319,12.25944 2.19747,2.88695 3.44908,5.66498 3.49168,7.75 0.10636,5.20653 -3.33935,4.30081 -11.41314,-3 z m 7.87421,1 c -3.59014,-4.13413 -7.93961,-11.18099 -11.42697,-18.51358 -2.57934,-5.42339 -3.83622,-7.10089 -4.96112,-6.62141 -0.82863,0.3532 -2.51909,0.86177 -3.75659,1.13016 -1.2375,0.26839 -2.25,0.88163 -2.25,1.36275 0,2.56262 11.80313,15.49779 20.5,22.46615 3.76355,3.01554 4.41303,3.07585 1.89468,0.17593 z m 147.67171,2 c 0.0426,-2.08502 1.29421,-4.86305 3.49168,-7.75 1.88391,-2.475 5.17746,-7.99175 7.319,-12.25944 4.60562,-9.17815 5.78657,-10.74056 8.11826,-10.74056 2.96933,0 11.00467,4.01332 11.00467,5.49638 0,1.50555 -6.17392,10.50343 -9.55437,13.92454 -7.66236,7.75452 -16.16398,14.57908 -18.16173,14.57908 -1.92366,0 -2.27343,-0.51262 -2.21751,-3.25 z m 13.5795,-9.40548 c 5.30062,-4.99019 12.35411,-13.68942 12.35411,-15.2366 0,-0.48112 -1.0125,-1.09436 -2.25,-1.36275 -1.2375,-0.26839 -2.92797,-0.77696 -3.75659,-1.13016 -1.1249,-0.47948 -2.38178,1.19802 -4.96112,6.62141 -3.42277,7.19679 -7.58685,13.97563 -11.50266,18.72553 l -2.02963,2.46194 3.5,-2.61742 c 1.925,-1.43959 5.81565,-4.79747 8.64589,-7.46195 z m -147.71215,-7.69864 c -6.01989,-4.48056 -10.98165,-10.38236 -14.88398,-17.7039 -3.93557,-7.38389 -3.85456,-11.29222 0.24382,-11.76261 2.21893,-0.25467 3.65884,0.59269 7,4.11939 8.54501,9.01955 20.47452,13.11101 28.516,9.78011 1.63649,-0.67785 4.2613,-1.0854 5.83292,-0.90567 l 2.8575,0.3268 0.29397,5.01121 0.29398,5.01121 -3.46527,3.35867 c -3.60003,3.48929 -8.0509,4.98232 -17.12268,5.74375 -4.45522,0.37395 -5.49753,0.0494 -9.56626,-2.97896 z m 15.06626,-0.60241 c 5.71349,-1.15245 9.96836,-3.90928 11.72771,-7.59867 2.25723,-4.73346 0.92876,-5.96793 -4.77078,-4.4332 -5.75627,1.55 -17.17847,0.35475 -21.84535,-2.28597 -1.98637,-1.12397 -5.96295,-4.30818 -8.83684,-7.07601 -2.8739,-2.76784 -5.49086,-4.76684 -5.81548,-4.44222 -1.06278,1.06279 5.55929,12.85676 9.84749,17.53847 5.15937,5.63282 12.59925,10.52604 14.67033,9.6487 0.8376,-0.35482 3.09792,-0.96282 5.02292,-1.3511 z m 94,2.95653 c -0.825,-0.53316 -2.7362,-0.97627 -4.24712,-0.98469 -1.74303,-0.01 -4.22729,-1.35256 -6.79676,-3.67392 l -4.04964,-3.6586 0.29676,-5.0914 0.29676,-5.09139 2.85749,-0.3268 c 1.57163,-0.17973 4.19644,0.22782 5.83292,0.90567 8.04149,3.3309 19.971,-0.76056 28.51601,-9.78011 3.34116,-3.5267 4.78106,-4.37406 7,-4.11939 4.11467,0.47226 4.17923,4.37903 0.19585,11.85261 -6.54447,12.27869 -16.54485,20.97943 -24.08245,20.95271 -2.3759,-0.008 -4.99482,-0.45153 -5.81982,-0.98469 z m 11.05422,-3.83805 c 2.44518,-1.56092 6.33274,-4.89816 8.63902,-7.41608 4.2882,-4.68171 10.91028,-16.47568 9.8475,-17.53847 -0.32462,-0.32462 -2.94159,1.67438 -5.81548,4.44222 -2.87389,2.76783 -6.85047,5.95204 -8.83685,7.07601 -4.66688,2.64072 -16.08907,3.83597 -21.84535,2.28597 -5.70211,-1.53542 -7.02804,-0.30034 -4.76723,4.44062 1.75582,3.68201 7.83682,7.53569 11.93433,7.56309 1.25941,0.008 2.96484,0.45153 3.78984,0.98469 2.07589,1.34154 2.07172,1.34263 7.05422,-1.83805 z M 209.12191,767.75504 c -0.8961,-2.89625 -1.52143,-14.64525 -0.93543,-17.57526 0.71165,-3.55826 3.24317,-4.25621 5.5125,-1.51984 1.9885,2.39775 7.6315,4.63424 13.3267,5.2818 l 4.95426,0.5633 1.4771,4.76864 c 0.97841,3.15868 1.14164,5.10411 0.48348,5.76226 -1.25605,1.25606 -15.26077,3.9691 -20.48844,3.9691 -2.2818,0 -4.10638,-0.52671 -4.33017,-1.25 z m 16.94952,-3.19965 5,-1.11874 -0.34758,-2.4658 c -0.54534,-3.86888 -2.05641,-4.96581 -6.84061,-4.96581 -4.77646,0 -7.50657,-1.06108 -11.06181,-4.29928 l -2.25,-2.04935 0,6.74006 c 0,3.70703 0.4672,7.61304 1.03823,8.68001 1.11515,2.08368 3.1476,2.01045 14.46177,-0.52109 z m 205.08208,2.90985 c -3.80485,-0.76782 -7.37396,-1.85208 -7.93136,-2.40948 -0.68458,-0.68458 -0.53412,-2.56083 0.46367,-5.78208 l 1.4771,-4.76864 4.95426,-0.5633 c 5.6952,-0.64756 11.3382,-2.88405 13.32669,-5.2818 0.75485,-0.91019 2.1778,-1.6549 3.16211,-1.6549 2.37484,0 3.18396,5.31212 2.20857,14.5 l -0.74312,7 -5,0.17812 c -2.75,0.098 -8.11306,-0.45009 -11.91792,-1.21792 z m 14.38274,-2.39446 c 0.56935,-1.06384 1.03518,-4.96728 1.03518,-8.67431 l 0,-6.74006 -2.25,2.04935 c -3.55524,3.2382 -6.28535,4.29928 -11.06181,4.29928 -4.79634,0 -6.29807,1.09766 -6.84062,5 l -0.34757,2.5 8,1.66573 c 10.37349,2.15992 10.2548,2.16095 11.46482,-0.1 z M 235.2381,761.33837 c -0.36667,-0.36666 -0.66835,-3.85416 -0.67041,-7.75 -0.005,-8.66366 -2.63594,-14.18198 -6.29478,-13.20093 -1.21081,0.32466 -3.45481,0.59644 -4.98667,0.60395 -2.44238,0.012 -2.65777,0.25172 -1.75,1.94791 1.71241,3.19966 1.29394,7.06574 -0.76481,7.06574 -4.8632,0 -5.84676,-7.88949 -1.61111,-12.92327 l 2.5889,-3.07673 6.73679,0 c 7.1019,0 9.09048,1.11238 11.96519,6.6931 1.75136,3.39997 -0.69885,21.3069 -2.91543,21.3069 -0.89706,0 -1.93101,-0.3 -2.29767,-0.66667 z m 2,-4 c -0.36667,-0.36666 -0.66667,-0.0667 -0.66667,0.66667 0,0.73333 0.3,1.03333 0.66667,0.66667 0.36666,-0.36667 0.36666,-0.96667 0,-1.33334 z m 1.26304,-11.62878 c 0.12253,-6.61651 -6.51953,-11.09496 -13.24712,-8.93196 l -3.18259,1.02323 5.69329,0.10209 c 7.09731,0.12727 8.77471,2.03097 8.87699,10.0746 0.051,4.01186 0.30594,4.97909 0.92972,3.52749 0.47268,-1.1 0.89106,-3.70795 0.92971,-5.79545 z m 178.27323,6.78089 c -1.29068,-10.219 -1.00124,-11.73667 3.09634,-16.23544 1.73773,-1.90787 3.07372,-2.25 8.78614,-2.25 l 6.73679,0 2.5889,3.07673 c 4.23564,5.03378 3.25208,12.92327 -1.61111,12.92327 -2.05875,0 -2.47722,-3.86608 -0.76482,-7.06574 0.90778,-1.69619 0.69238,-1.93594 -1.75,-1.94791 -1.53185,-0.008 -3.75947,-0.27501 -4.95026,-0.59443 -3.53764,-0.94895 -5.74814,3.60688 -6.33492,13.05618 -0.44402,7.15035 -0.72867,8.08463 -2.54232,8.34424 l -2.04233,0.29233 -1.21241,-9.59923 z m 3.46373,4.84789 c -0.36667,-0.36666 -0.66667,-0.0667 -0.66667,0.66667 0,0.73333 0.3,1.03333 0.66667,0.66667 0.36666,-0.36667 0.36666,-0.96667 0,-1.33334 z m 2.20577,-17.68184 c 0.95497,-1.14912 3.08429,-1.68254 7,-1.75358 l 5.62756,-0.10209 -3.18259,-1.02323 c -4.03997,-1.2989 -7.82784,-0.35307 -10.90353,2.72262 -2.49805,2.49805 -3.08888,6.60655 -1.65446,11.50479 0.56399,1.9259 0.8479,1.09953 1.23634,-3.59851 0.27733,-3.35418 1.12184,-6.84168 1.87668,-7.75 z m -176.86953,0.85617 c -0.5516,-1.45082 -1.00291,-3.25292 -1.00291,-4.00467 0,-4.3291 -17.22282,-9.35393 -29.39891,-8.57725 l -3.8989,0.2487 0.57842,-5.60432 c 0.81512,-7.89784 5.04691,-13.19677 11.28631,-14.13243 3.82377,-0.57341 5.03626,-0.29451 8.20972,1.88842 6.18665,4.25561 12.98053,6.67389 18.74956,6.67389 4.3614,0 5.64273,0.4031 6.87539,2.16297 0.83325,1.18963 1.28221,2.53963 0.99769,3 -0.28452,0.46036 -0.13112,0.83703 0.3409,0.83703 2.15838,0 -0.3152,7.84046 -4.24305,13.44911 -4.82454,6.88905 -7.01936,7.93773 -8.49422,4.05855 z m 10.99335,-13.93245 c -0.002,-0.59137 -0.89544,-2.53771 -1.9853,-4.32521 l -1.98157,-3.25 -5.89385,0 c -6.07553,0 -15.57525,-3.41504 -18.15863,-6.52782 -1.49122,-1.79681 -6.51654,-1.93774 -7.92241,-0.22218 -4.48868,5.47746 -5.82469,7.60906 -6.26766,10 l -0.5095,2.75 3.49603,0 c 3.98341,0 14.7937,1.65028 20.72663,3.16409 4.95621,1.2646 9.5,5.39864 9.5,8.64332 0,2.07958 0.65403,1.59096 4.5,-3.36188 2.475,-3.18731 4.49832,-6.27896 4.49626,-6.87032 z m 150.29876,15.21768 c -4.73011,-5.98936 -8.10058,-12.00167 -8.46159,-15.09394 -0.2375,-2.03442 -0.0456,-3.69895 0.42639,-3.69895 0.47202,0 0.62542,-0.37667 0.3409,-0.83703 -0.28452,-0.46037 0.16444,-1.81037 0.99769,-3 1.23265,-1.75987 2.51399,-2.16297 6.87539,-2.16297 5.76903,0 12.56291,-2.41828 18.74956,-6.67389 8.42103,-5.79258 18.27308,0.39476 19.49603,12.24401 l 0.57842,5.60432 -3.89891,-0.2487 c -8.18369,-0.52201 -22.20815,2.1999 -26.34536,5.11319 -1.34555,0.9475 -2.93397,3.46027 -3.52981,5.58394 -1.12252,4.00084 -3.45552,5.41527 -5.22871,3.17002 z m 5.37552,-9.93687 c 1.37528,-1.45419 4.37452,-3.10461 6.66498,-3.6676 6.37957,-1.56806 16.99644,-3.18842 20.89111,-3.18842 l 3.49603,0 -0.5095,-2.75 c -0.44297,-2.39094 -1.77898,-4.52254 -6.26766,-10 -1.40587,-1.71556 -6.4312,-1.57463 -7.92241,0.22218 -2.58338,3.11278 -12.0831,6.52782 -18.15863,6.52782 l -5.89386,0 -1.98156,3.25 c -1.08986,1.7875 -1.98325,3.72805 -1.9853,4.31232 -0.002,0.58428 1.90876,3.55406 4.24626,6.59951 3.55765,4.63514 4.30458,5.19516 4.58502,3.43767 0.18427,-1.15472 1.46025,-3.28929 2.83552,-4.74348 z m -139.31581,-4.37398 c -0.32037,-0.83488 -0.038,-2.83246 0.62747,-4.43907 1.15424,-2.78658 1.0482,-6.31423 -0.54989,-18.29297 -0.56595,-4.24213 -0.42773,-4.75 1.29268,-4.75 2.2272,0 5.35522,3.23826 7.11587,7.36664 0.94065,2.20564 0.96591,4.74101 0.10956,10.99548 -0.61215,4.47086 -1.58152,8.69338 -2.15416,9.38336 -1.44946,1.7465 -5.73754,1.57113 -6.44153,-0.26344 z m 6.05465,-9.5105 c 0.75374,-5.68191 -0.64141,-12.08962 -3.07109,-14.10505 l -1.64735,-1.36649 1.65453,3.20034 c 1.84493,3.56864 2.17666,11.92812 0.68675,17.30626 -0.83516,3.01471 -0.78397,3.2511 0.3736,1.72514 0.73775,-0.97254 1.63935,-4.01463 2.00356,-6.7602 z m 98.83631,9.8245 c -1.95534,-2.35604 -3.46995,-17.1856 -2.08655,-20.4294 1.76065,-4.12838 4.88867,-7.36664 7.11587,-7.36664 1.7271,0 1.85589,0.49137 1.24501,4.75 -0.73553,5.12759 -0.92589,15.90592 -0.36648,20.75 0.29918,2.59057 -0.006,3.04102 -2.23914,3.30056 -1.42207,0.1653 -3.07299,-0.28673 -3.66871,-1.00452 z m 2.6845,-5.03944 c -1.45908,-5.08753 -1.10072,-13.52607 0.72434,-17.05626 l 1.65453,-3.20034 -1.64735,1.36649 c -3.51774,2.91798 -4.39166,14.80397 -1.49871,20.38351 1.42632,2.75088 1.78448,2.05368 0.76719,-1.4934 z M 240.07143,711.61457 c -7.93366,-3.04613 -14.5,-8.65341 -14.5,-12.38217 l 0,-2.3803 3.90035,0.28161 c 2.14519,0.15489 4.50769,-0.20184 5.25,-0.79273 1.8122,-1.44256 9.70233,-2.58169 18.84965,-2.72139 l 7.5,-0.11455 0.3242,2.28552 c 0.35985,2.53677 -3.69957,10.21843 -7.64384,14.46448 -2.03385,2.18947 -3.38268,2.72568 -6.61745,2.63069 -2.2346,-0.0656 -5.41291,-0.63764 -7.06291,-1.27116 z m 11.19603,-3.85953 c 1.6986,-1.7875 4.05055,-5.17138 5.22655,-7.51973 1.86027,-3.71475 1.93768,-4.34666 0.59553,-4.86169 -0.84846,-0.32559 -2.99964,-0.30449 -4.78039,0.0469 -1.78074,0.35136 -5.59071,0.90656 -8.46659,1.23377 -2.87588,0.32721 -5.74348,1.21499 -6.37245,1.97285 -0.63119,0.76054 -2.98048,1.37792 -5.24335,1.37792 l -4.09978,0 1.97223,1.97156 c 2.05774,2.05707 15.19311,9.02 17.02605,9.02536 0.57961,0.002 2.4436,-1.45942 4.1422,-3.24692 z m 152.1236,2.5 c -3.94426,-4.24605 -8.00368,-11.92771 -7.64384,-14.46448 l 0.32421,-2.28552 7.5,0.11455 c 9.14731,0.1397 17.03744,1.27883 18.84965,2.72139 0.7423,0.59089 3.1048,0.94762 5.25,0.79273 l 3.90035,-0.28161 0,2.3803 c 0,5.53376 -13.12792,13.71982 -22.06291,13.75758 -2.6129,0.011 -4.24405,-0.7182 -6.11746,-2.73494 z m 14.77047,-2.827 c 3.98162,-1.96736 8.02243,-4.44235 8.97959,-5.5 l 1.74029,-1.923 -4.03255,0 c -2.2179,0 -4.54715,-0.62007 -5.17611,-1.37792 -0.62897,-0.75786 -3.49657,-1.64564 -6.37245,-1.97285 -2.87588,-0.32721 -6.68585,-0.88241 -8.4666,-1.23378 -1.78075,-0.35136 -3.93192,-0.37246 -4.78038,-0.0469 -1.34215,0.51503 -1.26474,1.14695 0.59552,4.8617 2.26687,4.52669 7.65455,10.76973 9.29416,10.76973 0.53858,0 4.23692,-1.60965 8.21853,-3.577 z M 251.56354,686.41199 c 2.47067,-0.86016 5.12655,-2.09047 5.90197,-2.73401 0.77542,-0.64354 2.66537,-1.62072 4.19989,-2.17151 2.68387,-0.96332 11.93235,-9.01776 13.59881,-11.8431 1.24745,-2.11495 15.40098,-13.65833 16.74669,-13.65833 1.11593,0 4.18423,-1.50488 17.31053,-8.49013 2.8875,-1.5366 5.25,-3.35615 5.25,-4.04344 0,-0.68729 1.19009,-1.54831 2.64464,-1.91338 1.53615,-0.38555 2.26966,-1.0319 1.75,-1.54206 -1.25599,-1.23305 -12.99849,1.14169 -18.41666,3.72448 -2.46289,1.17404 -7.40298,3.07065 -10.97798,4.21469 -3.575,1.14404 -7.2814,2.52327 -8.23643,3.06495 -0.95504,0.54169 -2.36705,0.98489 -3.13779,0.98489 -0.77075,0 -3.69101,1.575 -6.48946,3.5 -2.79846,1.925 -5.45163,3.5 -5.89594,3.5 -1.22836,0 -11.3472,6.43276 -14.74038,9.37077 -1.65,1.42867 -4.71882,3.93041 -6.81959,5.55943 -3.8066,2.95178 -9.68041,10.21959 -9.68041,11.97781 0,2.44507 10.51537,2.75383 16.99211,0.49894 z m 169.4261,0.98606 c 0.86999,-0.33384 1.58179,-1.01274 1.58179,-1.50866 0,-1.73802 -5.89751,-9.02075 -9.68041,-11.95415 -2.10077,-1.62902 -5.16959,-4.13076 -6.81959,-5.55943 -3.39318,-2.93801 -13.51203,-9.37077 -14.74038,-9.37077 -0.44431,0 -3.09748,-1.575 -5.89594,-3.5 -2.79846,-1.925 -5.71871,-3.5 -6.48946,-3.5 -0.77075,0 -2.18275,-0.4432 -3.13779,-0.98489 -0.95504,-0.54168 -4.66143,-1.92091 -8.23643,-3.06495 -3.575,-1.14404 -8.51509,-3.04065 -10.97798,-4.21469 -5.41817,-2.58279 -17.16067,-4.95753 -18.41666,-3.72448 -0.51966,0.51016 0.21385,1.15651 1.75,1.54206 1.45455,0.36507 2.64464,1.22609 2.64464,1.91338 0,0.68729 2.3625,2.50684 5.25,4.04344 13.12629,6.98525 16.1946,8.49013 17.31052,8.49013 1.34572,0 15.49924,11.54338 16.74669,13.65833 1.66647,2.82534 10.91495,10.87978 13.59881,11.8431 1.53452,0.55079 3.44686,1.54654 4.24964,2.21279 3.85885,3.20256 16.70953,5.42595 21.26255,3.67879 z"
       id="path3923"
       inkscape:connector-curvature="0" />
    <g
       id="g3962"
       transform="translate(269.20565,1.0101525)">
      <path
         style="fill:#fcfcfc"
         d="m 67.989899,186.15637 0,-119.499998 130.000001,0 130,0 0,119.499998 0,119.5 -130,0 -130.000001,0 0,-119.5 z"
         id="path3968"
         inkscape:connector-curvature="0" />
      <path
         style="fill:#aeaeae"
         d="M 177.58939,302.14707 C 147.39711,297.2217 122.54146,284.67062 102.4899,264.22495 59.690084,220.58389 58.193172,156.0629 98.909921,109.91809 122.54755,83.129267 159.34057,67.305057 197.9899,67.305057 c 33.05354,0 61.77418,10.23903 87.05223,31.034488 29.02344,23.876675 45.24784,63.001535 40.95847,98.770605 -6.11758,51.01449 -45.66696,92.07535 -99.76682,103.57967 -12.95819,2.75556 -36.38401,3.45733 -48.64439,1.45725 z m 47.90051,-5.96176 c 37.99215,-8.51144 69.11301,-31.70688 85.23555,-63.52894 C 337.61372,179.5853 314.43337,114.73015 258.34791,86.111889 194.7738,53.672455 115.11199,77.945494 84.993661,138.93311 c -16.812269,34.04373 -14.00926,73.64446 7.518668,106.22326 5.462253,8.26618 18.454321,21.68146 27.602311,28.50146 14.75043,10.99672 36.21276,20.15052 53.87526,22.97809 4.125,0.66037 8.175,1.36259 9,1.56048 3.92547,0.9416 36.12041,-0.58186 42.5,-2.01109 z m -45,-5.18278 c -4.95,-1.34213 -11.25,-3.5043 -14,-4.80482 -2.75,-1.30053 -5.7875,-2.61524 -6.75,-2.92158 -4.35071,-1.38474 -0.38042,-4.80462 6.60399,-5.68847 2.83031,-0.35816 7.17101,-1.37616 9.64601,-2.26222 2.475,-0.88606 5.78667,-1.86999 7.35927,-2.18652 1.68151,-0.33845 5.00054,-2.82187 8.05765,-6.02903 2.85911,-2.99943 5.82149,-5.45352 6.58308,-5.45352 0.76159,0 3.72397,2.45409 6.58308,5.45352 3.05711,3.20716 6.37614,5.69058 8.05765,6.02903 1.5726,0.31653 4.88427,1.30046 7.35927,2.18652 2.475,0.88606 6.8157,1.90406 9.64601,2.26222 6.98441,0.88385 10.9547,4.30373 6.60399,5.68847 -0.9625,0.30634 -4,1.61812 -6.75,2.91505 -2.75,1.29694 -9.38548,3.50717 -14.74551,4.91163 -12.46152,3.26522 -21.94432,3.23746 -34.25449,-0.10028 z m -33.5,-19.53915 c -6.41076,-2.24589 -8.52485,-3.99689 -7.63271,-6.32178 0.53597,-1.3967 1.58074,-1.5697 6.38675,-1.05756 17.00978,1.81262 16.8495,1.81524 21.08393,-0.34501 2.2453,-1.14546 4.78852,-2.08266 5.65161,-2.08266 2.15691,0 11.29449,-7.36677 14.67718,-11.83283 2.0488,-2.70496 2.7849,-4.82927 2.80542,-8.09617 0.0153,-2.43595 0.54236,-5.85193 1.17123,-7.59105 0.93699,-2.59118 0.81994,-4.00906 -0.64833,-7.85366 -0.98546,-2.58038 -2.15897,-4.91856 -2.60781,-5.19596 -0.44883,-0.2774 -1.9611,1.6498 -3.36059,4.28266 -1.39949,2.63285 -2.91984,5.46201 -3.37857,6.28701 -0.45872,0.825 -1.90565,3.75 -3.2154,6.5 -5.62208,11.80437 -8.73077,15.53387 -15.51055,18.60796 -5.39857,2.44783 -7.65834,2.89204 -14.71237,2.89204 -6.15196,0 -9.36754,-0.49929 -12.28092,-1.90688 -4.98419,-2.4081 -15.00679,-12.83869 -17.06129,-17.7558 -0.85867,-2.05508 -3.49494,-7.84733 -5.85839,-12.87168 -4.87056,-10.35408 -6.81274,-11.80322 -15.112991,-11.2764 l -4.8962,0.31076 0.08372,3 c 0.04604,1.65 0.430232,3.78371 0.853754,4.74157 0.538999,1.21903 0.241572,1.94436 -0.991297,2.41746 -4.257695,1.63383 -8.272322,-8.37832 -5.46376,-13.62617 1.227335,-2.29329 11.075656,-5.48609 14.370964,-4.65902 1.34976,0.33877 4.74362,2.4257 7.54192,4.63763 5.51527,4.35957 8.98239,10.16569 12.53538,20.99204 2.3528,7.16924 7.40603,14.61777 12.1312,17.88157 2.4075,1.66292 4.56622,2.11492 10.10077,2.11492 10.00463,0 14.56988,-1.8617 22.48486,-9.16926 5.7199,-5.28093 10.21086,-19.40649 7.67674,-24.14588 l -1.32425,-2.47666 -5,2.50781 c -14.45383,7.24948 -27.15055,6.47555 -35.80884,-2.18274 -4.68583,-4.68583 -6.8457,-9.06915 -8.74238,-17.7421 -1.08057,-4.94112 -1.01881,-6.43893 0.45921,-11.13796 2.07991,-6.61257 3.84963,-9.23006 5.53592,-8.18787 0.83817,0.51801 1.03244,1.96224 0.59226,4.40277 -1.82651,10.12677 -1.76457,14.54964 0.26059,18.6079 1.10443,2.21319 2.48836,5.25279 3.0754,6.75465 1.48524,3.79982 8.50939,6.93182 15.84662,7.06584 4.3633,0.0797 7.30115,-0.58454 11.97835,-2.70828 9.5285,-4.32654 9.51314,-4.29446 10.40607,-21.73742 0.42595,-8.32065 1.19811,-15.55211 1.71592,-16.06992 0.58863,-0.58863 2.68594,-0.34921 5.59612,0.63882 6.40742,2.17538 6.89455,1.9101 1.58476,-0.86303 -6.49625,-3.39277 -10.36481,-7.23251 -9.41473,-9.34459 0.42358,-0.94164 1.12022,-5.08708 1.54808,-9.21208 1.24204,-11.97439 3.97883,-27.54396 5.75674,-32.75 0.61045,-1.7875 1.54541,-4.7125 2.07768,-6.5 l 0.96778,-3.25 -1.54754,2 c -2.62291,3.38978 -6.67663,11.81806 -7.45497,15.5 -0.40693,1.925 -1.45834,6.10946 -2.33646,9.29879 -0.87812,3.18934 -1.60313,7.91434 -1.61113,10.5 -0.0172,5.57182 -2.42891,13.19512 -4.72987,14.95121 -2.2721,1.73407 -6.75039,1.56365 -8.31057,-0.31626 -1.76319,-2.12451 -1.79942,-15.72215 -0.0571,-21.43648 5.05312,-16.57299 13.26738,-29.17278 28.73988,-44.08382 9.81187,-9.455821 12.61669,-11.319883 15.82222,-10.515345 3.11821,0.782619 19.14059,15.959495 26.26554,24.879495 6.47618,8.10777 12.14122,19.04288 15.39658,29.71967 1.7423,5.71433 1.70607,19.31197 -0.0571,21.43648 -1.56018,1.87991 -6.03847,2.05033 -8.31057,0.31626 -2.30096,-1.75609 -4.71262,-9.37939 -4.72987,-14.95121 -0.008,-2.58566 -0.73301,-7.31066 -1.61113,-10.5 -0.87814,-3.18933 -1.92955,-7.37379 -2.33648,-9.29879 -0.77834,-3.68194 -4.83206,-12.11023 -7.45497,-15.5 l -1.54754,-2 0.96778,3.25 c 0.53227,1.7875 1.46723,4.7125 2.07768,6.5 1.77791,5.20604 4.5147,20.77561 5.75674,32.75 0.42786,4.125 1.1245,8.27044 1.54808,9.21208 0.95008,2.11208 -2.91848,5.95182 -9.41473,9.34459 -5.30979,2.77313 -4.82266,3.03841 1.58476,0.86303 2.91018,-0.98803 5.00749,-1.22745 5.59612,-0.63882 0.51781,0.51781 1.28997,7.74927 1.71592,16.06992 0.89293,17.44296 0.87757,17.41088 10.40607,21.73742 4.6772,2.12374 7.61505,2.78798 11.97835,2.70828 7.33723,-0.13402 14.36138,-3.26602 15.84662,-7.06584 0.58703,-1.50186 1.97096,-4.54146 3.0754,-6.75465 2.02516,-4.05826 2.0871,-8.48113 0.26059,-18.6079 -0.44019,-2.44053 -0.24591,-3.88476 0.59226,-4.40277 1.68629,-1.04219 3.45601,1.5753 5.53592,8.18787 1.47802,4.69903 1.53978,6.19684 0.45921,11.13796 -1.89668,8.67295 -4.05655,13.05627 -8.74238,17.7421 -8.65829,8.65829 -21.35501,9.43222 -35.80884,2.18274 l -5,-2.50781 -1.32425,2.47666 c -2.53412,4.73939 1.95684,18.86495 7.67674,24.14588 7.91498,7.30756 12.48023,9.16926 22.48485,9.16926 5.53456,0 7.69328,-0.452 10.10078,-2.11492 4.72518,-3.2638 9.7784,-10.71233 12.1312,-17.88157 3.55299,-10.82635 7.02011,-16.63247 12.53538,-20.99204 2.7983,-2.21193 6.19217,-4.29886 7.54192,-4.63763 3.29531,-0.82707 13.14363,2.36573 14.37097,4.65902 2.80856,5.24785 -1.20607,15.26 -5.46376,13.62617 -1.23287,-0.4731 -1.5303,-1.19843 -0.9913,-2.41746 0.42352,-0.95786 0.80771,-3.09157 0.85376,-4.74157 l 0.0837,-3 -4.8962,-0.31076 c -8.30025,-0.52682 -10.24243,0.92232 -15.11299,11.2764 -2.36345,5.02435 -4.99973,10.8166 -5.85839,12.87168 -2.0545,4.91711 -12.0771,15.3477 -17.06129,17.7558 -2.91338,1.40759 -6.12896,1.90688 -12.28092,1.90688 -7.05403,0 -9.3138,-0.44421 -14.71238,-2.89204 -6.77977,-3.07409 -9.88846,-6.80359 -15.51054,-18.60796 -1.30975,-2.75 -2.75668,-5.675 -3.2154,-6.5 -0.45873,-0.825 -1.97908,-3.65416 -3.37857,-6.28701 -1.39949,-2.63286 -2.91176,-4.56006 -3.36059,-4.28266 -0.44884,0.2774 -1.62235,2.61558 -2.60781,5.19596 -1.46827,3.8446 -1.58532,5.26248 -0.64833,7.85366 0.62887,1.73912 1.15593,5.1551 1.17123,7.59105 0.0205,3.2669 0.75662,5.39121 2.80542,8.09617 3.38269,4.46606 12.52027,11.83283 14.67718,11.83283 0.86309,0 3.40631,0.9372 5.65161,2.08266 4.23443,2.16025 4.07415,2.15763 21.08393,0.34501 4.80601,-0.51214 5.85078,-0.33914 6.38674,1.05756 0.91871,2.3941 -1.26425,4.07777 -8.35115,6.44107 -10.95376,3.6528 -17.53771,2.81514 -30.73207,-3.90999 -6.65335,-3.39119 -9.4788,-6.08874 -17.29948,-16.51631 l -2.25,-3 -2.25,3 c -7.82068,10.42757 -10.64613,13.12512 -17.29948,16.51631 -3.82279,1.94846 -8.55747,4.09189 -10.52152,4.76317 -5.04967,1.72591 -14.477,1.28787 -20.92899,-0.97247 z m 33.84378,-70.27609 c 0.18908,-0.95885 -0.12935,-2.21649 -0.70762,-2.79476 -1.511,-1.511 -4.13616,0.93511 -4.13616,3.85406 0,2.01164 0.32013,2.22715 2.25,1.5147 1.2375,-0.45685 2.4047,-1.61515 2.59378,-2.574 z m 37.8385,-2.27721 c -0.8197,-0.8197 -1.98354,-1.18556 -2.58632,-0.81302 -1.92065,1.18703 -1.2037,4.58339 1.15404,5.4669 1.82703,0.68463 2.31322,0.46653 2.58632,-1.16019 0.18498,-1.10183 -0.33434,-2.67399 -1.15404,-3.49369 z M 201.5399,183.75343 c 0.5225,-0.49661 1.85,-1.10132 2.95,-1.3438 1.1,-0.24248 -1.825,-0.44087 -6.5,-0.44087 -4.675,0 -7.6,0.19839 -6.5,0.44087 1.1,0.24248 2.4275,0.84719 2.95,1.3438 1.2279,1.16708 5.8721,1.16708 7.1,0 z m -85.22052,75.17807 c -3.39378,-3.17632 -7.44378,-6.92786 -9,-8.33674 -3.73907,-3.38509 -10.329481,-12.64926 -10.329481,-14.52019 0,-0.81453 0.7875,-1.7247 1.75,-2.02259 0.9625,-0.29789 3.260241,-1.19925 5.106081,-2.00302 4.38198,-1.90813 5.19705,-1.18914 10.22657,9.02108 2.19081,4.44748 5.77752,10.56133 7.97046,13.58633 4.00234,5.52091 4.74246,9.23311 1.94689,9.76492 -0.825,0.15694 -4.27673,-2.31346 -7.67052,-5.48979 z m 154.33719,5.0582 c -1.43175,-1.43174 -0.5038,-4.05466 3.30201,-9.33333 2.18096,-3.025 5.75786,-9.13885 7.94867,-13.58633 5.02952,-10.21022 5.84459,-10.92921 10.22657,-9.02108 1.84584,0.80377 4.14358,1.70513 5.10608,2.00302 0.9625,0.29789 1.75,1.20806 1.75,2.02259 0,1.87093 -6.59041,11.1351 -10.32948,14.52019 -1.55622,1.40888 -5.59426,5.14911 -8.97343,8.31161 -5.9349,5.55436 -7.61414,6.49962 -9.03042,5.08333 z M 137.35683,244.21754 c -6.54837,-4.40993 -11.29856,-9.9995 -15.83603,-18.63433 -2.95404,-5.62154 -3.42189,-7.26201 -2.54066,-8.9086 1.63595,-3.0568 3.57065,-2.46585 8.25026,2.52003 8.83798,9.41641 20.39582,13.11983 30.62992,9.81459 6.1544,-1.98766 8.12958,-0.92173 8.12958,4.38723 0,2.71656 -0.85045,4.34565 -3.8175,7.3127 -2.09962,2.09962 -5.13712,4.08729 -6.75,4.41704 -1.61287,0.32974 -4.31445,1.03393 -6.0035,1.56485 -4.892,1.53772 -6.63713,1.17985 -12.06207,-2.47351 z m 108.63307,2.3693 c -1.375,-0.47122 -3.81963,-1.12754 -5.4325,-1.45848 -1.61288,-0.33094 -4.65038,-2.31958 -6.75,-4.4192 -2.96705,-2.96705 -3.8175,-4.59614 -3.8175,-7.3127 0,-5.30896 1.97517,-6.37489 8.12958,-4.38723 10.2341,3.30524 21.79194,-0.39818 30.62992,-9.81459 4.67961,-4.98588 6.61431,-5.57683 8.25026,-2.52003 0.88183,1.64771 0.40659,3.29999 -2.58859,8.99983 -4.49311,8.55039 -9.83534,14.75581 -16.24315,18.8677 -4.9052,3.14765 -7.62646,3.60455 -12.17802,2.0447 z M 79.008422,203.69098 c -1.508393,-2.81846 -1.673945,-17.77919 -0.212908,-19.24022 0.908266,-0.90827 1.818151,-0.60244 3.937792,1.32355 3.782781,3.4372 7.55459,4.88206 12.744629,4.88206 4.679705,0 5.300545,0.51561 7.220995,5.99716 1.66034,4.73908 0.66287,5.51397 -9.569499,7.43403 -10.862251,2.03826 -12.847765,1.9825 -14.121009,-0.39658 z m 222.981478,0.31236 c -9.34176,-1.82135 -10.34832,-2.67081 -8.70903,-7.34981 1.92045,-5.48155 2.54129,-5.99716 7.22099,-5.99716 5.19004,0 8.96185,-1.44486 12.74463,-4.88206 4.04149,-3.67227 5.15619,-1.89147 4.94786,7.90446 -0.2735,12.8603 -0.95885,13.29697 -16.20445,10.32457 z m -141,-0.23034 c 0,-0.48585 -0.90298,-1.1195 -2.00662,-1.40811 -1.25542,-0.3283 -2.23812,-1.68223 -2.625,-3.61663 -0.39893,-1.99463 -1.21912,-3.09189 -2.31115,-3.09189 -0.93102,0 -5.05497,-2.67477 -9.16434,-5.94394 -6.03163,-4.79842 -7.97991,-7.0629 -10.10925,-11.75 -3.07569,-6.77018 -5.42022,-20.06948 -3.82012,-21.66958 0.57006,-0.57006 1.03648,-3.72703 1.03648,-7.01548 0,-8.52169 3.90752,-19.96455 9.35962,-27.40889 6.88394,-9.39938 10.8542,-14.21211 11.7243,-14.21211 0.50258,0 2.71969,-1.75257 4.9269,-3.89459 2.20722,-2.14203 5.20972,-4.194928 6.67223,-4.561994 1.46251,-0.367067 3.76781,-1.539498 5.12289,-2.605404 1.35508,-1.065905 3.27757,-1.93801 4.27221,-1.93801 0.99465,0 2.39646,-0.812909 3.11515,-1.806465 1.51159,-2.089712 16.27397,-7.193535 20.8067,-7.193535 4.53273,0 19.29511,5.103823 20.8067,7.193535 0.71869,0.993556 2.1205,1.806465 3.11515,1.806465 0.99464,0 2.91713,0.872105 4.27221,1.93801 1.35508,1.065906 3.66038,2.238337 5.12289,2.605404 1.46251,0.367066 4.46501,2.419964 6.67222,4.561994 2.20722,2.14202 4.42432,3.89459 4.92691,3.89459 0.87009,0 4.84036,4.81273 11.7243,14.21211 5.4521,7.44434 9.35962,18.8872 9.35962,27.40889 0,3.28845 0.46642,6.44542 1.03648,7.01548 1.60009,1.6001 -0.74443,14.8994 -3.82012,21.66958 -2.12934,4.6871 -4.07762,6.95158 -10.10925,11.75 -4.10937,3.26917 -8.23332,5.94394 -9.16434,5.94394 -1.08379,0 -1.91032,1.08775 -2.29749,3.0236 -0.3326,1.66298 -1.40135,3.31766 -2.375,3.67706 -0.97365,0.3594 -2.09151,1.13628 -2.48412,1.7264 -1.5688,2.35801 -3.56031,-2.27109 -4.70097,-10.92706 -0.6523,-4.95 -1.43407,-10.61395 -1.73727,-12.58656 l -0.55127,-3.58657 3.14086,-1.30098 c 2.80136,-1.16037 3.29531,-1.09697 4.56987,0.58656 0.78596,1.03815 1.44332,2.25384 1.46082,2.70152 0.0175,0.44768 1.44534,0.67268 3.17299,0.5 2.68037,-0.26791 3.37721,0.15949 4.75,2.91332 0.88485,1.77501 2.02345,3.23751 2.53023,3.25 2.24371,0.0553 9.4554,-9.08793 11.14166,-14.12579 2.57125,-7.68184 2.24881,-25.33974 -0.56338,-30.85208 -1.09983,-2.15586 -1.9997,-4.68563 -1.9997,-5.62172 0,-2.08513 -4.05462,-9.24481 -8.86317,-15.65066 -3.19531,-4.25672 -9.57853,-9.01543 -29.13683,-21.721562 -2.33892,-1.519487 -9.2495,-4.311595 -16.75,-6.767565 -2.29734,-0.752244 -4.20266,-0.752244 -6.5,0 -7.5005,2.45597 -14.41108,5.248078 -16.75,6.767565 -19.5583,12.706132 -25.94152,17.464842 -29.13683,21.721562 -4.80855,6.40585 -8.86317,13.56553 -8.86317,15.65066 0,0.93609 -0.89987,3.46586 -1.9997,5.62172 -2.81219,5.51233 -3.13463,23.17024 -0.56338,30.85208 1.68626,5.03786 8.89795,14.18109 11.14166,14.12579 0.50678,-0.0125 1.64538,-1.47499 2.53023,-3.25 1.37278,-2.75383 2.06963,-3.18123 4.75,-2.91332 1.72765,0.17268 3.1555,-0.0523 3.17299,-0.5 0.0175,-0.44768 0.67486,-1.66337 1.46082,-2.70152 1.27456,-1.68353 1.76851,-1.74693 4.56987,-0.58656 l 3.14086,1.30098 -0.55127,3.58657 c -0.3032,1.97261 -1.09069,7.63656 -1.74999,12.58656 -0.65929,4.95 -1.63708,9.5625 -2.17285,10.25 -1.12555,1.4443 -2.72924,1.65973 -2.72924,0.36663 z m -55.7875,-6.30413 c -0.7271,-0.7271 -1.2125,-4.11606 -1.2125,-8.46545 0,-3.98912 -0.51857,-8.39109 -1.15239,-9.78215 l -1.15238,-2.52921 -5.929542,0.16342 -5.929542,0.16342 0.501193,2.06873 c 0.275656,1.13781 0.815007,3.08124 1.198558,4.31874 0.569062,1.83604 0.314415,2.25 -1.384083,2.25 -5.070967,0 -5.072001,-8.20648 -0.0016,-12.47297 4.09107,-3.44241 11.772946,-3.58527 14.895656,-0.27703 3.89538,4.12681 5.17613,7.67974 4.55131,12.62572 -0.3213,2.54336 -0.69961,6.38516 -0.84069,8.53735 -0.2725,4.15687 -1.55572,5.38773 -3.54402,3.39943 z m 182.34039,0.27307 c -0.31083,-0.50293 -0.5549,-2.41543 -0.54238,-4.25 0.0125,-1.83456 -0.25053,-5.41649 -0.58457,-7.95985 -0.65028,-4.95129 0.61548,-8.48057 4.52816,-12.62572 3.12271,-3.30824 10.80459,-3.16538 14.89566,0.27703 5.07043,4.26649 5.06939,12.47297 -0.002,12.47297 -1.69849,0 -1.95314,-0.41396 -1.38408,-2.25 0.38355,-1.2375 0.9229,-3.18093 1.19856,-4.31874 l 0.50119,-2.06873 -5.92954,-0.16342 -5.92954,-0.16342 -1.15239,2.52921 c -0.63339,1.39106 -1.15196,5.79303 -1.15196,9.78215 0,4.30785 -0.48727,7.74022 -1.2,8.45295 -1.43458,1.43458 -2.48016,1.52653 -3.24711,0.28557 z M 116.02337,176.39366 c -1.84922,-4.99438 -2.50188,-6.00207 -5.1108,-7.89099 -2.56432,-1.85662 -16.029991,-4.22882 -24.422671,-4.30244 l -5,-0.0439 0.325031,-4.98735 c 0.178767,-2.74304 0.976091,-5.66804 1.771831,-6.5 0.795739,-0.83195 2.321324,-2.68873 3.390188,-4.12616 2.840845,-3.82043 8.475061,-4.51903 12.459227,-1.54484 5.812664,4.33916 12.228714,6.65835 18.420384,6.65835 6.96485,0 7.9773,0.88689 8.78353,7.69425 l 0.58105,4.90601 -4.28676,6.24662 c -2.35771,3.43564 -4.60751,6.44486 -4.99956,6.68716 -0.39204,0.2423 -1.2522,-1.01624 -1.91145,-2.79675 z m 161.31395,2.11874 c -0.59041,-0.74582 -2.76421,-3.7909 -4.83069,-6.76685 l -3.75722,-5.41081 0.58567,-4.94506 c 0.81115,-6.84886 1.81624,-7.73331 8.78816,-7.73331 6.19167,0 12.60772,-2.31919 18.42038,-6.65835 3.98417,-2.97419 9.61839,-2.27559 12.45923,1.54484 1.06886,1.43743 2.59445,3.29421 3.39019,4.12616 0.79574,0.83196 1.59306,3.75696 1.77183,6.5 l 0.32503,4.98735 -5,0.0439 c -8.39268,0.0736 -21.85835,2.44582 -24.42267,4.30244 -2.51115,1.81813 -2.89435,2.40301 -5.24776,8.00973 -1.1147,2.65563 -1.63272,3.07302 -2.48215,2 z m -133.8625,-13.88043 c -0.34821,-0.56342 -0.31259,-2.47592 0.0792,-4.25 1.31235,-5.94312 1.23247,-13.18751 -0.17559,-15.92594 -3.14278,-6.11211 -0.82732,-9.55233 3.58443,-5.3256 3.53287,3.3847 4.04136,6.04432 3.05045,15.95505 -0.58533,5.85424 -1.26548,8.27476 -2.5992,9.25 -2.17182,1.58807 -3.09793,1.65778 -3.93925,0.29649 z m 105.10935,-0.28301 c -1.35541,-0.9911 -2.02881,-3.37416 -2.61764,-9.26348 -0.99091,-9.91074 -0.48242,-12.57035 3.05045,-15.95505 4.41962,-4.23427 6.73188,-0.77618 3.56974,5.33871 -0.94051,1.81875 -1.24733,4.6875 -0.93052,8.70034 0.85831,10.8716 0.84271,11.78853 -0.20674,12.15275 -0.57224,0.19861 -1.86162,-0.23937 -2.86529,-0.97327 z M 111.9899,148.74516 c -0.825,-0.43647 -3.65717,-1.87251 -6.29371,-3.19119 -10.030363,-5.01675 -14.270325,-12.9764 -6.095349,-11.44276 2.517099,0.47221 4.082759,0.23683 5.239439,-0.78768 1.58586,-1.40467 4.54826,-1.95196 17.69149,-3.26846 8.51788,-0.85319 9.62701,0.63333 5.82545,7.80762 -5.38612,10.16464 -10.85331,13.79973 -16.36732,10.88247 z m 161.46887,-2.34944 c -1.66712,-1.78164 -4.29341,-5.62151 -5.83619,-8.53303 -3.80156,-7.17429 -2.69243,-8.66081 5.82545,-7.80762 13.14323,1.3165 16.10562,1.86379 17.69149,3.26846 1.15668,1.02451 2.72234,1.25989 5.23944,0.78768 8.17473,-1.53359 3.93562,6.42494 -6.09536,11.44346 -2.63653,1.31907 -5.57509,2.78157 -6.53013,3.25 -3.56199,1.74712 -7.20301,0.89512 -10.2947,-2.40895 z M 102.55442,125.32721 c -1.56143,-1.14175 -1.63981,-1.66164 -0.55586,-3.68702 2.04316,-3.81767 6.40492,-8.48513 15.55414,-16.64425 3.60877,-3.21824 14.21144,-10.339568 15.39418,-10.339568 0.6265,0 3.47998,-1.47505 6.34106,-3.277888 5.39157,-3.397371 11.38095,-6.154057 15.70196,-7.227027 1.375,-0.341432 3.4,-0.998747 4.5,-1.460698 13.01064,-5.463892 27.06671,-9.038245 29.53755,-7.51118 1.4768,0.912713 1.1427,3.470394 -0.53755,4.115167 -0.825,0.316582 -1.5,1.216582 -1.5,2 0,0.783417 -0.7875,1.683961 -1.75,2.001208 -4.40801,1.452913 -9.98148,4.331946 -11.17865,5.774447 -0.72393,0.872284 -2.10604,1.585971 -3.07135,1.585971 -0.96531,0 -2.31263,0.67177 -2.99404,1.492823 -0.68142,0.821053 -2.87402,1.935045 -4.87245,2.475539 -2.43852,0.659519 -6.429,3.681775 -12.13351,9.189496 -4.675,4.51374 -7.6,7.56224 -6.5,6.77447 l 2,-1.43233 -1.36331,1.73899 c -0.74982,0.95645 -1.70255,1.52932 -2.11719,1.27306 -0.41464,-0.25625 -2.58735,1.5487 -4.82826,4.01102 -2.2409,2.46231 -4.94557,4.47693 -6.01036,4.47693 -1.0648,0 -2.45772,0.62864 -3.09538,1.39698 -3.24714,3.91256 -22.41208,6.27836 -26.52098,3.27386 z m 169.96175,-0.33489 c -2.18555,-0.787 -4.69598,-2.08455 -5.57874,-2.88343 -0.88276,-0.79889 -2.38337,-1.45252 -3.3347,-1.45252 -0.95134,0 -3.56317,-2.01462 -5.80407,-4.47693 -2.24091,-2.46232 -4.41362,-4.26727 -4.82826,-4.01102 -0.41464,0.25626 -1.36737,-0.31661 -2.11719,-1.27306 l -1.36331,-1.73899 2,1.43233 c 1.1,0.78777 -1.825,-2.26073 -6.5,-6.77447 -5.70451,-5.507721 -9.69499,-8.529977 -12.13351,-9.189496 -1.99843,-0.540494 -4.19103,-1.654486 -4.87245,-2.475539 -0.68141,-0.821053 -2.02873,-1.492823 -2.99404,-1.492823 -0.96531,0 -2.34742,-0.713687 -3.07135,-1.585971 -1.19717,-1.442501 -6.77064,-4.321534 -11.17865,-5.774447 -0.9625,-0.317247 -1.75,-1.217791 -1.75,-2.001208 0,-0.783418 -0.675,-1.683418 -1.5,-2 -1.68025,-0.644773 -2.01435,-3.202454 -0.53755,-4.115167 2.47084,-1.527065 16.52691,2.047288 29.53755,7.51118 1.1,0.461951 3.125,1.119266 4.5,1.460698 4.32101,1.07297 10.31038,3.829656 15.70196,7.227027 2.86108,1.802838 5.71456,3.277888 6.34106,3.277888 1.18274,0 11.78541,7.121328 15.39418,10.339568 9.14922,8.15912 13.51098,12.82658 15.55414,16.64425 1.08395,2.02538 1.00557,2.54527 -0.55586,3.68702 -2.40963,1.76196 -15.67622,1.54949 -20.90921,-0.33489 z"
         id="path3966"
         inkscape:connector-curvature="0" />
      <path
         style="fill:#0f0f0f"
         d="m 174.37209,301.18846 c -28.17748,-5.36182 -50.04332,-16.40774 -69.21586,-34.9656 -23.030645,-22.29228 -35.166331,-50.01801 -35.166331,-80.34258 0,-56.27874 40.421911,-102.621931 101.052581,-115.855456 11.97883,-2.614554 41.91601,-2.614554 53.89484,0 46.49202,10.147559 81.66025,39.821106 95.56218,80.631546 7.82822,22.98048 7.20844,51.45614 -1.60617,73.79443 -15.17413,38.45483 -48.45607,65.768 -92.40343,75.83184 -9.59781,2.19788 -42.33745,2.7669 -52.11781,0.90582 z m 47.78101,-4.00075 c 61.52923,-10.73386 105.63317,-64.58002 99.76149,-121.79801 -4.61599,-44.98172 -36.47196,-82.571428 -82.78275,-97.682783 -25.08489,-8.185275 -57.19899,-8.185275 -82.28388,0 -65.365763,21.329051 -99.428486,87.114343 -75.845669,146.480653 16.414719,41.32166 56.085329,69.4657 105.487609,74.83745 6.91935,0.75237 26.6433,-0.26377 35.6632,-1.83731 z m -40.6632,-7.18387 c -4.95,-1.34141 -11.29485,-3.54335 -14.09967,-4.8932 -2.80482,-1.34985 -5.61732,-2.45427 -6.25,-2.45427 -0.63268,0 -1.15033,-0.43417 -1.15033,-0.96482 0,-1.55285 3.59027,-3.03518 7.35135,-3.03518 1.91556,0 5.58245,-0.9 8.14865,-2 2.5662,-1.1 5.77286,-2 7.12593,-2 1.66514,0 4.42319,-1.93886 8.53507,-6 3.34123,-3.3 6.41878,-6 6.839,-6 0.42022,0 3.49777,2.7 6.839,6 4.11188,4.06114 6.86993,6 8.53507,6 1.35307,0 4.55973,0.9 7.12593,2 2.5662,1.1 6.23309,2 8.14865,2 3.76108,0 7.35135,1.48233 7.35135,3.03518 0,0.53065 -0.51765,0.96482 -1.15033,0.96482 -0.63268,0 -3.44518,1.1015 -6.25,2.44779 -8.05078,3.86429 -23.64022,7.56724 -31.34518,7.4454 -3.71497,-0.0587 -10.80449,-1.20432 -15.75449,-2.54572 z m -33.5,-19.54046 c -6.65078,-2.32998 -9.22042,-4.40146 -6.67271,-5.37911 0.9253,-0.35507 3.36769,-0.33813 5.42754,0.0376 9.88441,1.80319 16.96041,1.71984 20.88279,-0.24599 2.12431,-1.06466 4.98823,-2.20516 6.36427,-2.53443 2.81885,-0.67453 13.39518,-9.72781 15.21983,-13.0281 0.65591,-1.18636 1.53441,-4.63202 1.95224,-7.65702 0.41782,-3.025 1.03392,-7.075 1.36911,-9 0.64469,-3.70241 -2.54571,-13 -4.46085,-13 -0.54387,0 -1.70004,1.0125 -2.56927,2.25 -3.82606,5.44707 -6.51295,9.91396 -6.51295,10.82765 0,1.5164 -4.91253,10.90234 -8.26706,15.79516 -4.42696,6.45703 -13.00381,10.1428 -23.46098,10.082 -9.57784,-0.0557 -13.88154,-2.09413 -21.02317,-9.95763 -3.53163,-3.88861 -6.51908,-8.87544 -10.18413,-17 -6.59148,-14.61173 -8.97139,-16.99714 -16.957993,-16.99714 -7.233437,0 -8.614122,1.29539 -7.733133,7.25542 l 0.627418,4.24458 -2.500476,-2.80576 c -4.871663,-5.46645 -2.935206,-10.74228 4.840592,-13.18807 l 5.376244,-1.69103 3.891348,2.0048 c 7.40758,3.81636 13.22496,12.12999 16.71197,23.88311 1.69475,5.71224 7.87891,14.58969 12.58944,18.07234 2.54784,1.8837 4.29491,2.22461 11.4005,2.22461 7.08727,0 9.15298,-0.40094 13.29049,-2.57957 10.00631,-5.26891 16.31025,-13.97771 17.92831,-24.76772 0.7059,-4.70725 -0.79206,-10.65271 -2.68393,-10.65271 -0.50156,0 -3.25947,1.19859 -6.12869,2.66354 -4.74558,2.42297 -7.77823,3.37322 -16.01746,5.01893 -7.72552,1.5431 -20.24765,-6.48249 -23.87167,-15.29965 -3.40313,-8.27976 -4.07903,-13.73872 -2.35363,-19.00923 0.87751,-2.68047 2.00537,-5.53556 2.50637,-6.34463 1.57555,-2.54441 2.45763,-0.1291 1.21144,3.31717 -1.90101,5.25714 -1.50339,14.09448 0.80446,17.8797 1.09794,1.80079 1.99794,3.97748 2,4.83708 0.005,2.05274 4.71957,6.331 8.50374,7.71662 8.90212,3.25962 17.66116,2.05797 26.65448,-3.6567 l 4.65447,-2.95762 0.35823,-14.33261 c 0.21695,-8.68011 0.83339,-15.17011 1.56307,-16.45621 l 1.20483,-2.1236 4.78246,1.45938 c 5.10598,1.55811 10.75982,3.62908 16.03246,5.87259 2.76655,1.17718 3.73345,1.17718 6.5,0 5.27264,-2.24351 10.92648,-4.31448 16.03246,-5.87259 l 4.78246,-1.45938 1.20483,2.1236 c 0.72968,1.2861 1.34612,7.7761 1.56307,16.45621 l 0.35823,14.33261 4.65447,2.95762 c 8.99332,5.71467 17.75236,6.91632 26.65448,3.6567 3.78417,-1.38562 8.49883,-5.66388 8.50374,-7.71662 0.002,-0.8596 0.90205,-3.03629 2,-4.83708 2.30785,-3.78522 2.70547,-12.62256 0.80446,-17.8797 -1.24619,-3.44627 -0.36411,-5.86158 1.21144,-3.31717 0.501,0.80907 1.62886,3.66416 2.50637,6.34463 1.7254,5.27051 1.0495,10.72947 -2.35364,19.00923 -3.62401,8.81716 -16.14614,16.84275 -23.87166,15.29965 -8.23924,-1.64571 -11.27188,-2.59596 -16.01747,-5.01893 -2.86921,-1.46495 -5.62712,-2.66354 -6.12868,-2.66354 -1.89187,0 -3.38983,5.94546 -2.68393,10.65271 1.61806,10.79001 7.922,19.49881 17.92831,24.76772 4.13751,2.17863 6.20322,2.57957 13.29049,2.57957 7.10559,0 8.85266,-0.34091 11.4005,-2.22461 4.71053,-3.48265 10.89468,-12.3601 12.58944,-18.07234 3.487,-11.75312 9.30439,-20.06675 16.71197,-23.88311 l 3.89135,-2.0048 5.37624,1.69103 c 7.7758,2.44579 9.71226,7.72162 4.84059,13.18807 l -2.50047,2.80576 0.62742,-4.24458 c 0.88098,-5.96003 -0.4997,-7.25542 -7.73314,-7.25542 -7.9866,0 -10.36651,2.38541 -16.95799,16.99718 -3.66505,8.12456 -6.6525,13.11139 -10.18413,17 -7.14163,7.8635 -11.44533,9.90195 -21.02317,9.95763 -10.45717,0.0608 -19.03402,-3.62497 -23.46098,-10.082 -3.35453,-4.89282 -8.26706,-14.27876 -8.26706,-15.79516 0,-0.91369 -2.68689,-5.38058 -6.51295,-10.82765 -0.86923,-1.2375 -2.0254,-2.25 -2.56927,-2.25 -1.91514,0 -5.10554,9.29759 -4.46085,13 0.33519,1.925 0.95129,5.975 1.36911,9 0.41783,3.025 1.29633,6.47066 1.95224,7.65702 1.82465,3.30029 12.40098,12.35357 15.21983,13.0281 1.37604,0.32927 4.23996,1.46977 6.36427,2.53443 3.92238,1.96583 10.99837,2.04918 20.88279,0.24599 2.05984,-0.37577 4.50224,-0.39271 5.42754,-0.0376 1.45516,0.5584 1.48957,0.83326 0.25483,2.03515 -2.19926,2.14074 -13.36441,5.53865 -18.14599,5.5224 -8.58872,-0.0292 -25.47586,-8.04185 -29.31811,-13.91094 -1.28705,-1.96598 -3.94285,-5.37451 -5.90177,-7.57451 l -3.56167,-4 -3.56167,4 c -1.95892,2.2 -4.61472,5.60853 -5.90177,7.57451 -1.53133,2.33913 -4.70689,4.81743 -9.18832,7.17083 -13.66707,7.1772 -20.88451,8.22745 -31.34824,4.56167 z m 31.83459,-66.4037 c 1.59091,-1.11432 2.18682,-2.3957 1.9725,-4.24145 -0.59491,-5.12354 -6.80709,-3.4864 -6.80709,1.79392 0,4.33566 1.24154,4.9642 4.83459,2.44753 z m 40.66541,-2.37766 c 0,-3.61026 -2.19639,-5.73987 -4.86408,-4.71618 -2.39222,0.91798 -2.02648,5.30356 0.59545,7.14004 3.06928,2.1498 4.26863,1.46877 4.26863,-2.42386 z m -100.5,58.97752 c -10.23945,-8.35075 -22.479118,-22.06582 -21.721213,-24.33953 0.28729,-0.86187 7.266323,-3.61934 9.234403,-3.64858 0.55726,-0.008 2.57215,3.24744 4.47753,7.23494 1.90539,3.9875 5.68755,10.5269 8.40481,14.532 5.48031,8.07769 5.30288,10.86849 -0.39553,6.22117 z m 151.47433,1.95529 c -0.37106,-0.60038 1.51804,-4.32414 4.19798,-8.27503 2.67995,-3.95089 6.43158,-10.44593 8.33697,-14.43343 1.90538,-3.9875 3.92027,-7.24322 4.47753,-7.23494 1.96808,0.0292 8.94711,2.78671 9.2344,3.64858 1.14959,3.44876 -24.49089,29.13608 -26.24688,26.29482 z M 138.9899,243.87249 c -6.22032,-3.99789 -12.31769,-10.9215 -15.94325,-18.10369 -5.38397,-10.66559 -3.53424,-12.57646 4.70075,-4.85614 3.15837,2.96098 7.35287,6.30394 9.3211,7.4288 5.06967,2.89737 15.36332,3.84187 20.93811,1.9212 4.82528,-1.66245 6.98329,-0.86955 6.98329,2.56581 0,5.42631 -5.18858,10.19656 -13,11.95189 -1.925,0.43257 -4.625,1.05601 -6,1.38542 -1.77286,0.42472 -3.80886,-0.2423 -7,-2.29329 z m 109,1.78388 c -0.825,-0.53316 -2.53043,-0.97627 -3.78984,-0.98469 -3.71393,-0.0248 -10.05061,-3.8061 -11.68955,-6.97546 -3.43904,-6.65037 -1.18135,-9.72262 5.46268,-7.43356 5.57479,1.92067 15.86843,0.97617 20.93811,-1.9212 1.96823,-1.12486 6.16272,-4.46782 9.3211,-7.4288 8.23499,-7.72032 10.08472,-5.80945 4.70074,4.85614 -3.62308,7.17729 -9.73643,14.1219 -15.88902,18.04952 -4.71939,3.01271 -6.63486,3.40156 -9.05422,1.83805 z M 80.067072,202.80057 c -1.183966,-2.21226 -1.700085,-15.85462 -0.639922,-16.91478 0.362272,-0.36228 1.424593,-0.10561 2.360713,0.57037 6.02866,4.35333 8.020916,5.19299 12.329591,5.19647 5.28495,0.004 6.697266,1.20343 7.093976,6.02331 l 0.27847,3.38325 -5.412176,1.22706 c -2.976696,0.67488 -7.553399,1.52155 -10.170451,1.88148 -4.130529,0.5681 -4.901012,0.38773 -5.840201,-1.36716 z m 222.422828,0.0215 -8,-1.66573 0.27847,-3.43184 c 0.39506,-4.8688 1.79567,-6.06762 7.09397,-6.0719 4.30868,-0.003 6.30094,-0.84314 12.3296,-5.19647 2.54112,-1.83496 3.03023,-0.6243 2.91105,7.20556 -0.17885,11.74932 -0.67759,12.06196 -14.61309,9.16038 z M 159.8,201.75339 c -0.92945,-0.90787 -2.15581,-2.87611 -2.72525,-4.37385 -0.56944,-1.49774 -1.67891,-2.72317 -2.46549,-2.72317 -0.78657,0 -3.26926,-1.4625 -5.51708,-3.25 -2.24781,-1.7875 -5.45895,-4.3121 -7.13585,-5.61021 -5.4649,-4.23047 -10.38188,-16.68752 -10.12041,-25.63979 0.50121,-17.15984 4.58983,-30.18298 12.87196,-41 5.41311,-7.06988 17.31809,-19.499998 18.67617,-19.499998 1.43953,0 14.01716,-6.222334 14.73409,-7.289165 0.34554,-0.51417 2.37054,-1.29925 4.5,-1.744623 2.12947,-0.445373 5.67176,-1.500217 7.87176,-2.344097 5.07856,-1.948045 9.92144,-1.948045 15,0 2.2,0.84388 5.74229,1.898724 7.87176,2.344097 2.12946,0.445373 4.15446,1.230453 4.5,1.744623 0.71693,1.066831 13.29456,7.289165 14.73409,7.289165 1.35808,0 13.26306,12.430118 18.67616,19.499998 4.55994,5.95557 8.04254,12.78048 9.95043,19.5 1.04463,3.67914 2.7724,16.39406 2.92154,21.5 0.26147,8.95227 -4.65551,21.40932 -10.12041,25.63979 -1.6769,1.29811 -4.88804,3.82271 -7.13586,5.61021 -2.24781,1.7875 -4.7305,3.25 -5.51707,3.25 -0.78658,0 -1.8983,1.23134 -2.47049,2.73632 -1.49127,3.92233 -4.46574,6.51781 -5.69723,4.97132 -0.97807,-1.22826 -1.30121,-2.57526 -3.16844,-13.20764 -0.57954,-3.3 -1.28165,-6.99835 -1.56025,-8.21855 -0.39377,-1.7246 0.18456,-2.57594 2.59754,-3.82374 1.70725,-0.88285 3.17477,-1.4595 3.26116,-1.28145 1.66076,3.423 2.80394,4.36765 5.62191,4.6456 2.54925,0.25145 3.50493,0.96246 4.36839,3.25 1.53825,4.07531 3.73185,3.66607 8.58794,-1.60216 7.02178,-7.61774 8.39623,-11.98001 8.25618,-26.20377 -0.10003,-10.1595 -0.46443,-12.90832 -2.1489,-16.21017 -1.11565,-2.18684 -2.02845,-4.74374 -2.02845,-5.68199 0,-2.41875 -8.21841,-15.2684 -12.17698,-19.03896 -4.48665,-4.27356 -23.96789,-17.296439 -31.02737,-20.741271 -12.85194,-6.271399 -18.73936,-6.271399 -31.5913,0 -7.05948,3.444832 -26.54072,16.467711 -31.02737,20.741271 -3.95857,3.77056 -12.17698,16.62021 -12.17698,19.03896 0,0.93825 -0.9128,3.49515 -2.02845,5.68199 -1.68447,3.30185 -2.04887,6.05067 -2.1489,16.21017 -0.14005,14.22376 1.2344,18.58603 8.25618,26.20377 4.85609,5.26823 7.04969,5.67747 8.58794,1.60216 0.86345,-2.28754 1.81914,-2.99855 4.36839,-3.25 2.81797,-0.27795 3.96115,-1.2226 5.62191,-4.6456 0.0864,-0.17805 1.55391,0.3986 3.26116,1.28145 2.41297,1.2478 2.99131,2.09914 2.59754,3.82374 -0.47273,2.07044 -1.92084,10.00706 -3.18091,17.43351 -0.72149,4.25226 -2.37137,5.48547 -4.52476,3.38206 z m -54.14343,-5.76369 c -0.36667,-0.36666 -0.66667,-4.09154 -0.66667,-8.27749 0,-10.42923 -1.21286,-12.05584 -8.989317,-12.05584 -4.934418,0 -5.974437,0.31044 -6.490832,1.93745 -0.338208,1.0656 -0.04807,2.84514 0.644757,3.95452 1.555433,2.49065 0.445817,3.85953 -1.691007,2.08612 -1.027327,-0.8526 -1.470249,-2.55225 -1.274166,-4.88942 0.249331,-2.97186 0.897163,-3.87316 3.800564,-5.28756 6.771185,-3.29862 14.638071,-1.4949 17.296861,3.96582 0.97126,1.9948 1.0863,3.94863 0.42589,7.23307 -0.49766,2.475 -0.90882,6.1875 -0.9137,8.25 -0.008,3.57493 -0.68176,4.54396 -2.14238,3.08333 z m 182.52116,-3.03226 c -0.003,-2.09059 -0.41293,-5.82607 -0.91058,-8.30107 -0.66041,-3.28444 -0.54537,-5.23827 0.42589,-7.23307 2.65879,-5.46072 10.52567,-7.26444 17.29686,-3.96582 2.9034,1.4144 3.55123,2.3157 3.80056,5.28756 0.19609,2.33717 -0.24684,4.03682 -1.27416,4.88942 -2.13683,1.77341 -3.24644,0.40453 -1.69101,-2.08612 0.69283,-1.10938 0.98297,-2.88892 0.64476,-3.95452 -0.51536,-1.62374 -1.55571,-1.93745 -6.42509,-1.93745 -7.6069,0 -8.42431,1.0669 -9.05506,11.81893 -0.30161,5.14129 -0.95758,8.67396 -1.6532,8.90319 -0.73473,0.24211 -1.1553,-0.99934 -1.15897,-3.42105 z M 181.93289,176.69138 c -4.15636,-2.12575 -8.04767,-4.46576 -8.64736,-5.20001 -0.75411,-0.92331 -0.82319,-4.1104 -0.22403,-10.335 1.48754,-15.45372 3.88847,-28.65168 6.8001,-37.38027 2.52306,-7.56369 2.56943,-8.11973 0.67724,-8.11973 -1.79287,0 -8.59452,11.9457 -9.61006,16.87809 -0.41014,1.99205 -1.46418,6.23137 -2.3423,9.4207 -0.87812,3.18934 -1.5984,7.91434 -1.60061,10.5 -0.006,7.09148 -2.98178,14.47221 -6.30611,15.64132 -4.39932,1.54716 -5.79639,-0.77408 -6.17061,-10.25252 -0.22538,-5.70847 0.0825,-8.60863 1.04908,-9.8834 0.75243,-0.9923 1.38237,-2.58892 1.39987,-3.54803 0.0628,-3.4441 9.76425,-21.52738 15.19473,-28.32265 6.53218,-8.17385 18.54103,-19.711939 22.81831,-21.923805 l 3.01876,-1.561063 3.01876,1.561063 c 4.27728,2.211866 16.28613,13.749955 22.81831,21.923805 5.43048,6.79527 15.13192,24.87855 15.19473,28.32265 0.0175,0.95911 0.64743,2.55573 1.39987,3.54803 0.96662,1.27477 1.27446,4.17493 1.04908,9.8834 -0.37422,9.47844 -1.77129,11.79968 -6.17061,10.25252 -3.32433,-1.16911 -6.30002,-8.54984 -6.30611,-15.64132 -0.002,-2.58566 -0.72249,-7.31066 -1.60061,-10.5 -0.87812,-3.18933 -1.93216,-7.42865 -2.3423,-9.4207 -1.01554,-4.93239 -7.81719,-16.87809 -9.61006,-16.87809 -1.89219,0 -1.84582,0.55604 0.67724,8.11973 2.91163,8.72859 5.31256,21.92655 6.8001,37.38027 0.59965,6.22966 0.53031,9.41139 -0.22527,10.3365 -0.60038,0.73507 -4.5942,3.09757 -8.87516,5.25 l -7.78358,3.9135 -8.27219,-0.05 -8.2722,-0.05 -7.55701,-3.86501 z m -65.94299,-1.76459 c 0,-3.5429 -4.04515,-7.60757 -9,-9.04343 -4.51495,-1.30837 -19.903491,-3.36262 -22.500001,-3.00356 -1.751393,0.24219 -1.960684,-0.21249 -1.683709,-3.65786 0.184318,-2.29277 1.291855,-5.09381 2.654351,-6.71305 1.285933,-1.52824 2.501538,-3.26906 2.701344,-3.86847 0.199806,-0.59942 2.042506,-1.46858 4.094889,-1.93147 3.094046,-0.69782 4.193159,-0.47856 6.433054,1.28335 5.281602,4.15451 12.215992,6.66407 18.414062,6.66407 l 5.91541,0 1.98156,3.25 c 2.89193,4.74311 2.50342,6.73599 -2.59775,13.32521 -5.41579,6.99562 -6.41321,7.57032 -6.41321,3.69521 z m 157.74246,-3.47782 c -5.26327,-6.88909 -5.6501,-8.7917 -2.75342,-13.5426 l 1.98156,-3.25 5.9154,0 c 6.19808,0 13.13246,-2.50956 18.41407,-6.66407 2.2399,-1.76191 3.33901,-1.98117 6.43306,-1.28335 2.05238,0.46289 3.89508,1.33205 4.09488,1.93147 0.19981,0.59941 1.41541,2.34023 2.70135,3.86847 1.36249,1.61924 2.47003,4.42028 2.65435,6.71305 0.27697,3.44537 0.0677,3.90005 -1.68371,3.65786 -2.59651,-0.35906 -17.98505,1.69519 -22.5,3.00356 -4.89602,1.41881 -9,5.5046 -9,8.9601 0,1.5471 -0.34089,2.81291 -0.75754,2.81291 -0.41665,0 -2.89165,-2.79333 -5.5,-6.2074 z m -129.28185,-9.5426 c 1.65316,-4.28857 1.60905,-14.76912 -0.0779,-18.51013 -0.9326,-2.06814 -1.37864,-4.07725 -0.9912,-4.46469 1.23819,-1.2382 4.0681,1.30675 5.36049,4.82072 1.3678,3.71902 0.8535,14.90422 -0.82994,18.04977 -1.30492,2.43826 -4.39704,2.53147 -3.46143,0.10433 z m 103.61735,-0.10433 c -1.68345,-3.14555 -2.19775,-14.33075 -0.82994,-18.04977 1.29239,-3.51397 4.12229,-6.05892 5.36049,-4.82072 0.38744,0.38744 -0.0586,2.39655 -0.99121,4.46469 -1.68696,3.74101 -1.73108,14.22156 -0.0779,18.51013 0.93561,2.42714 -2.15651,2.33393 -3.46143,-0.10433 z M 107.4899,145.15534 c -6.94787,-3.46885 -12.018029,-7.85176 -10.995965,-9.5055 0.292936,-0.47398 2.109545,-0.60588 4.036915,-0.29311 2.3931,0.38835 4.05204,0.083 5.23167,-0.96283 0.95006,-0.84233 3.75238,-1.77681 6.22738,-2.07662 16.1551,-1.95697 15.95096,-1.95228 16.55415,-0.38039 1.40688,3.66626 -7.96586,16.72245 -12.00032,16.7164 -1.12961,-0.002 -5.20383,-1.57577 -9.05383,-3.49795 z m 166.80397,0.25103 c -3.87428,-4.07704 -7.63102,-11.45535 -6.85812,-13.46948 0.60319,-1.57189 0.39905,-1.57658 16.55415,0.38039 2.475,0.29981 5.27732,1.23429 6.22738,2.07662 1.17963,1.04587 2.83857,1.35118 5.23167,0.96283 4.34329,-0.70482 5.09122,0.33037 2.56191,3.54587 -2.16674,2.75456 -15.54935,9.75377 -18.64939,9.75377 -1.08858,0 -3.369,-1.4625 -5.0676,-3.25 z m -170.82858,-21.14434 -1.90687,-1.39433 3.56907,-5.09838 c 1.963,-2.80412 5.32258,-6.45879 7.46574,-8.1215 2.14317,-1.6627 5.24667,-4.19201 6.89667,-5.62067 3.39318,-2.93801 13.51202,-9.370778 14.74038,-9.370778 0.44431,0 3.09748,-1.575 5.89594,-3.5 2.79846,-1.925 5.71871,-3.5 6.48946,-3.5 0.77075,0 2.18275,-0.443199 3.13779,-0.984886 0.95503,-0.541688 4.66143,-1.923821 8.23643,-3.071408 3.575,-1.147587 8.75,-3.124229 11.5,-4.392537 5.42411,-2.501618 16.67154,-4.806308 19.0332,-3.900057 2.31278,0.887499 1.71189,3.24927 -0.99985,3.929875 -1.35666,0.3405 -2.36916,1.071141 -2.25,1.623648 0.28572,1.324802 -20.19295,12.795365 -22.84387,12.795365 -1.34572,0 -15.49925,11.543378 -16.7467,13.658328 -1.66646,2.82535 -10.91494,10.87978 -13.5988,11.8431 -1.53453,0.55079 -3.42448,1.52797 -4.1999,2.17151 -4.68371,3.88713 -20.51345,5.78831 -24.41869,2.93272 z m 170.08224,-0.25943 c -2.16831,-0.78136 -4.5992,-1.96576 -5.40197,-2.63201 -0.80278,-0.66624 -2.71512,-1.662 -4.24964,-2.21279 -2.68386,-0.96332 -11.93234,-9.01775 -13.59881,-11.8431 -1.24745,-2.11495 -15.40097,-13.658328 -16.74669,-13.658328 -2.65092,0 -23.12959,-11.470563 -22.84387,-12.795365 0.11916,-0.552507 -0.89334,-1.283148 -2.25,-1.623648 -2.71174,-0.680605 -3.31263,-3.042376 -0.99985,-3.929875 2.36166,-0.906251 13.60909,1.398439 19.0332,3.900057 2.75,1.268308 7.925,3.24495 11.5,4.392537 3.575,1.147587 7.28139,2.52972 8.23643,3.071408 0.95504,0.541687 2.36704,0.984886 3.13779,0.984886 0.77075,0 3.691,1.575 6.48946,3.5 2.79846,1.925 5.45163,3.5 5.89594,3.5 1.22835,0 11.3472,6.432768 14.74038,9.370778 1.65,1.42866 4.7535,3.95797 6.89666,5.62067 2.14317,1.66271 5.50275,5.31738 7.46574,8.1215 l 3.56908,5.09838 -1.90687,1.39433 c -2.46503,1.80248 -13.67039,1.64921 -18.96698,-0.25943 z"
         id="path3964"
         inkscape:connector-curvature="0" />
    </g>
  </g>
</svg>
